G04 #@! TF.GenerationSoftware,KiCad,Pcbnew,(5.1.5)-2*
G04 #@! TF.CreationDate,2019-12-04T22:48:08+00:00*
G04 #@! TF.ProjectId,TTVV,54545656-2e6b-4696-9361-645f70636258,1.0.8*
G04 #@! TF.SameCoordinates,Original*
G04 #@! TF.FileFunction,Legend,Bot*
G04 #@! TF.FilePolarity,Positive*
%FSLAX46Y46*%
G04 Gerber Fmt 4.6, Leading zero omitted, Abs format (unit mm)*
G04 Created by KiCad (PCBNEW (5.1.5)-2) date 2019-12-04 22:48:08*
%MOMM*%
%LPD*%
G04 APERTURE LIST*
%ADD10C,0.125000*%
G04 APERTURE END LIST*
D10*
X113642009Y-61525495D02*
X113618200Y-61549304D01*
X113594390Y-61596923D01*
X113594390Y-61715971D01*
X113618200Y-61763590D01*
X113642009Y-61787400D01*
X113689628Y-61811209D01*
X113737247Y-61811209D01*
X113808676Y-61787400D01*
X114094390Y-61501685D01*
X114094390Y-61811209D01*
X113594390Y-62120733D02*
X113594390Y-62168352D01*
X113618200Y-62215971D01*
X113642009Y-62239780D01*
X113689628Y-62263590D01*
X113784866Y-62287400D01*
X113903914Y-62287400D01*
X113999152Y-62263590D01*
X114046771Y-62239780D01*
X114070580Y-62215971D01*
X114094390Y-62168352D01*
X114094390Y-62120733D01*
X114070580Y-62073114D01*
X114046771Y-62049304D01*
X113999152Y-62025495D01*
X113903914Y-62001685D01*
X113784866Y-62001685D01*
X113689628Y-62025495D01*
X113642009Y-62049304D01*
X113618200Y-62073114D01*
X113594390Y-62120733D01*
X114094390Y-62763590D02*
X114094390Y-62477876D01*
X114094390Y-62620733D02*
X113594390Y-62620733D01*
X113665819Y-62573114D01*
X113713438Y-62525495D01*
X113737247Y-62477876D01*
X114094390Y-63001685D02*
X114094390Y-63096923D01*
X114070580Y-63144542D01*
X114046771Y-63168352D01*
X113975342Y-63215971D01*
X113880104Y-63239780D01*
X113689628Y-63239780D01*
X113642009Y-63215971D01*
X113618200Y-63192161D01*
X113594390Y-63144542D01*
X113594390Y-63049304D01*
X113618200Y-63001685D01*
X113642009Y-62977876D01*
X113689628Y-62954066D01*
X113808676Y-62954066D01*
X113856295Y-62977876D01*
X113880104Y-63001685D01*
X113903914Y-63049304D01*
X113903914Y-63144542D01*
X113880104Y-63192161D01*
X113856295Y-63215971D01*
X113808676Y-63239780D01*
X114094390Y-63715971D02*
X114094390Y-63430257D01*
X114094390Y-63573114D02*
X113594390Y-63573114D01*
X113665819Y-63525495D01*
X113713438Y-63477876D01*
X113737247Y-63430257D01*
X113642009Y-63906447D02*
X113618200Y-63930257D01*
X113594390Y-63977876D01*
X113594390Y-64096923D01*
X113618200Y-64144542D01*
X113642009Y-64168352D01*
X113689628Y-64192161D01*
X113737247Y-64192161D01*
X113808676Y-64168352D01*
X114094390Y-63882638D01*
X114094390Y-64192161D01*
X113594390Y-64501685D02*
X113594390Y-64549304D01*
X113618200Y-64596923D01*
X113642009Y-64620733D01*
X113689628Y-64644542D01*
X113784866Y-64668352D01*
X113903914Y-64668352D01*
X113999152Y-64644542D01*
X114046771Y-64620733D01*
X114070580Y-64596923D01*
X114094390Y-64549304D01*
X114094390Y-64501685D01*
X114070580Y-64454066D01*
X114046771Y-64430257D01*
X113999152Y-64406447D01*
X113903914Y-64382638D01*
X113784866Y-64382638D01*
X113689628Y-64406447D01*
X113642009Y-64430257D01*
X113618200Y-64454066D01*
X113594390Y-64501685D01*
X113594390Y-65096923D02*
X113594390Y-65001685D01*
X113618200Y-64954066D01*
X113642009Y-64930257D01*
X113713438Y-64882638D01*
X113808676Y-64858828D01*
X113999152Y-64858828D01*
X114046771Y-64882638D01*
X114070580Y-64906447D01*
X114094390Y-64954066D01*
X114094390Y-65049304D01*
X114070580Y-65096923D01*
X114046771Y-65120733D01*
X113999152Y-65144542D01*
X113880104Y-65144542D01*
X113832485Y-65120733D01*
X113808676Y-65096923D01*
X113784866Y-65049304D01*
X113784866Y-64954066D01*
X113808676Y-64906447D01*
X113832485Y-64882638D01*
X113880104Y-64858828D01*
X113642009Y-65335019D02*
X113618200Y-65358828D01*
X113594390Y-65406447D01*
X113594390Y-65525495D01*
X113618200Y-65573114D01*
X113642009Y-65596923D01*
X113689628Y-65620733D01*
X113737247Y-65620733D01*
X113808676Y-65596923D01*
X114094390Y-65311209D01*
X114094390Y-65620733D01*
X114094390Y-66096923D02*
X114094390Y-65811209D01*
X114094390Y-65954066D02*
X113594390Y-65954066D01*
X113665819Y-65906447D01*
X113713438Y-65858828D01*
X113737247Y-65811209D01*
X113594390Y-66263590D02*
X113594390Y-66573114D01*
X113784866Y-66406447D01*
X113784866Y-66477876D01*
X113808676Y-66525495D01*
X113832485Y-66549304D01*
X113880104Y-66573114D01*
X113999152Y-66573114D01*
X114046771Y-66549304D01*
X114070580Y-66525495D01*
X114094390Y-66477876D01*
X114094390Y-66335019D01*
X114070580Y-66287399D01*
X114046771Y-66263590D01*
X113594390Y-66882638D02*
X113594390Y-66930257D01*
X113618200Y-66977876D01*
X113642009Y-67001685D01*
X113689628Y-67025495D01*
X113784866Y-67049304D01*
X113903914Y-67049304D01*
X113999152Y-67025495D01*
X114046771Y-67001685D01*
X114070580Y-66977876D01*
X114094390Y-66930257D01*
X114094390Y-66882638D01*
X114070580Y-66835019D01*
X114046771Y-66811209D01*
X113999152Y-66787399D01*
X113903914Y-66763590D01*
X113784866Y-66763590D01*
X113689628Y-66787399D01*
X113642009Y-66811209D01*
X113618200Y-66835019D01*
X113594390Y-66882638D01*
M02*
