G04 #@! TF.GenerationSoftware,KiCad,Pcbnew,(5.1.5)-2*
G04 #@! TF.CreationDate,2019-12-04T22:48:08+00:00*
G04 #@! TF.ProjectId,TTVV,54545656-2e6b-4696-9361-645f70636258,1.0.8*
G04 #@! TF.SameCoordinates,Original*
G04 #@! TF.FileFunction,Copper,L1,Top*
G04 #@! TF.FilePolarity,Positive*
%FSLAX46Y46*%
G04 Gerber Fmt 4.6, Leading zero omitted, Abs format (unit mm)*
G04 Created by KiCad (PCBNEW (5.1.5)-2) date 2019-12-04 22:48:08*
%MOMM*%
%LPD*%
G04 APERTURE LIST*
%ADD10C,0.100000*%
%ADD11O,1.700000X1.700000*%
%ADD12R,1.700000X1.700000*%
%ADD13C,0.800000*%
%ADD14C,0.250000*%
%ADD15C,0.800000*%
%ADD16C,0.300000*%
%ADD17C,0.254000*%
G04 APERTURE END LIST*
G04 #@! TA.AperFunction,SMDPad,CuDef*
D10*
G36*
X101542504Y-56784204D02*
G01*
X101566773Y-56787804D01*
X101590571Y-56793765D01*
X101613671Y-56802030D01*
X101635849Y-56812520D01*
X101656893Y-56825133D01*
X101676598Y-56839747D01*
X101694777Y-56856223D01*
X101711253Y-56874402D01*
X101725867Y-56894107D01*
X101738480Y-56915151D01*
X101748970Y-56937329D01*
X101757235Y-56960429D01*
X101763196Y-56984227D01*
X101766796Y-57008496D01*
X101768000Y-57033000D01*
X101768000Y-58283000D01*
X101766796Y-58307504D01*
X101763196Y-58331773D01*
X101757235Y-58355571D01*
X101748970Y-58378671D01*
X101738480Y-58400849D01*
X101725867Y-58421893D01*
X101711253Y-58441598D01*
X101694777Y-58459777D01*
X101676598Y-58476253D01*
X101656893Y-58490867D01*
X101635849Y-58503480D01*
X101613671Y-58513970D01*
X101590571Y-58522235D01*
X101566773Y-58528196D01*
X101542504Y-58531796D01*
X101518000Y-58533000D01*
X100593000Y-58533000D01*
X100568496Y-58531796D01*
X100544227Y-58528196D01*
X100520429Y-58522235D01*
X100497329Y-58513970D01*
X100475151Y-58503480D01*
X100454107Y-58490867D01*
X100434402Y-58476253D01*
X100416223Y-58459777D01*
X100399747Y-58441598D01*
X100385133Y-58421893D01*
X100372520Y-58400849D01*
X100362030Y-58378671D01*
X100353765Y-58355571D01*
X100347804Y-58331773D01*
X100344204Y-58307504D01*
X100343000Y-58283000D01*
X100343000Y-57033000D01*
X100344204Y-57008496D01*
X100347804Y-56984227D01*
X100353765Y-56960429D01*
X100362030Y-56937329D01*
X100372520Y-56915151D01*
X100385133Y-56894107D01*
X100399747Y-56874402D01*
X100416223Y-56856223D01*
X100434402Y-56839747D01*
X100454107Y-56825133D01*
X100475151Y-56812520D01*
X100497329Y-56802030D01*
X100520429Y-56793765D01*
X100544227Y-56787804D01*
X100568496Y-56784204D01*
X100593000Y-56783000D01*
X101518000Y-56783000D01*
X101542504Y-56784204D01*
G37*
G04 #@! TD.AperFunction*
G04 #@! TA.AperFunction,SMDPad,CuDef*
G36*
X98567504Y-56784204D02*
G01*
X98591773Y-56787804D01*
X98615571Y-56793765D01*
X98638671Y-56802030D01*
X98660849Y-56812520D01*
X98681893Y-56825133D01*
X98701598Y-56839747D01*
X98719777Y-56856223D01*
X98736253Y-56874402D01*
X98750867Y-56894107D01*
X98763480Y-56915151D01*
X98773970Y-56937329D01*
X98782235Y-56960429D01*
X98788196Y-56984227D01*
X98791796Y-57008496D01*
X98793000Y-57033000D01*
X98793000Y-58283000D01*
X98791796Y-58307504D01*
X98788196Y-58331773D01*
X98782235Y-58355571D01*
X98773970Y-58378671D01*
X98763480Y-58400849D01*
X98750867Y-58421893D01*
X98736253Y-58441598D01*
X98719777Y-58459777D01*
X98701598Y-58476253D01*
X98681893Y-58490867D01*
X98660849Y-58503480D01*
X98638671Y-58513970D01*
X98615571Y-58522235D01*
X98591773Y-58528196D01*
X98567504Y-58531796D01*
X98543000Y-58533000D01*
X97618000Y-58533000D01*
X97593496Y-58531796D01*
X97569227Y-58528196D01*
X97545429Y-58522235D01*
X97522329Y-58513970D01*
X97500151Y-58503480D01*
X97479107Y-58490867D01*
X97459402Y-58476253D01*
X97441223Y-58459777D01*
X97424747Y-58441598D01*
X97410133Y-58421893D01*
X97397520Y-58400849D01*
X97387030Y-58378671D01*
X97378765Y-58355571D01*
X97372804Y-58331773D01*
X97369204Y-58307504D01*
X97368000Y-58283000D01*
X97368000Y-57033000D01*
X97369204Y-57008496D01*
X97372804Y-56984227D01*
X97378765Y-56960429D01*
X97387030Y-56937329D01*
X97397520Y-56915151D01*
X97410133Y-56894107D01*
X97424747Y-56874402D01*
X97441223Y-56856223D01*
X97459402Y-56839747D01*
X97479107Y-56825133D01*
X97500151Y-56812520D01*
X97522329Y-56802030D01*
X97545429Y-56793765D01*
X97569227Y-56787804D01*
X97593496Y-56784204D01*
X97618000Y-56783000D01*
X98543000Y-56783000D01*
X98567504Y-56784204D01*
G37*
G04 #@! TD.AperFunction*
G04 #@! TA.AperFunction,SMDPad,CuDef*
G36*
X94684504Y-56784204D02*
G01*
X94708773Y-56787804D01*
X94732571Y-56793765D01*
X94755671Y-56802030D01*
X94777849Y-56812520D01*
X94798893Y-56825133D01*
X94818598Y-56839747D01*
X94836777Y-56856223D01*
X94853253Y-56874402D01*
X94867867Y-56894107D01*
X94880480Y-56915151D01*
X94890970Y-56937329D01*
X94899235Y-56960429D01*
X94905196Y-56984227D01*
X94908796Y-57008496D01*
X94910000Y-57033000D01*
X94910000Y-58283000D01*
X94908796Y-58307504D01*
X94905196Y-58331773D01*
X94899235Y-58355571D01*
X94890970Y-58378671D01*
X94880480Y-58400849D01*
X94867867Y-58421893D01*
X94853253Y-58441598D01*
X94836777Y-58459777D01*
X94818598Y-58476253D01*
X94798893Y-58490867D01*
X94777849Y-58503480D01*
X94755671Y-58513970D01*
X94732571Y-58522235D01*
X94708773Y-58528196D01*
X94684504Y-58531796D01*
X94660000Y-58533000D01*
X93735000Y-58533000D01*
X93710496Y-58531796D01*
X93686227Y-58528196D01*
X93662429Y-58522235D01*
X93639329Y-58513970D01*
X93617151Y-58503480D01*
X93596107Y-58490867D01*
X93576402Y-58476253D01*
X93558223Y-58459777D01*
X93541747Y-58441598D01*
X93527133Y-58421893D01*
X93514520Y-58400849D01*
X93504030Y-58378671D01*
X93495765Y-58355571D01*
X93489804Y-58331773D01*
X93486204Y-58307504D01*
X93485000Y-58283000D01*
X93485000Y-57033000D01*
X93486204Y-57008496D01*
X93489804Y-56984227D01*
X93495765Y-56960429D01*
X93504030Y-56937329D01*
X93514520Y-56915151D01*
X93527133Y-56894107D01*
X93541747Y-56874402D01*
X93558223Y-56856223D01*
X93576402Y-56839747D01*
X93596107Y-56825133D01*
X93617151Y-56812520D01*
X93639329Y-56802030D01*
X93662429Y-56793765D01*
X93686227Y-56787804D01*
X93710496Y-56784204D01*
X93735000Y-56783000D01*
X94660000Y-56783000D01*
X94684504Y-56784204D01*
G37*
G04 #@! TD.AperFunction*
G04 #@! TA.AperFunction,SMDPad,CuDef*
G36*
X91709504Y-56784204D02*
G01*
X91733773Y-56787804D01*
X91757571Y-56793765D01*
X91780671Y-56802030D01*
X91802849Y-56812520D01*
X91823893Y-56825133D01*
X91843598Y-56839747D01*
X91861777Y-56856223D01*
X91878253Y-56874402D01*
X91892867Y-56894107D01*
X91905480Y-56915151D01*
X91915970Y-56937329D01*
X91924235Y-56960429D01*
X91930196Y-56984227D01*
X91933796Y-57008496D01*
X91935000Y-57033000D01*
X91935000Y-58283000D01*
X91933796Y-58307504D01*
X91930196Y-58331773D01*
X91924235Y-58355571D01*
X91915970Y-58378671D01*
X91905480Y-58400849D01*
X91892867Y-58421893D01*
X91878253Y-58441598D01*
X91861777Y-58459777D01*
X91843598Y-58476253D01*
X91823893Y-58490867D01*
X91802849Y-58503480D01*
X91780671Y-58513970D01*
X91757571Y-58522235D01*
X91733773Y-58528196D01*
X91709504Y-58531796D01*
X91685000Y-58533000D01*
X90760000Y-58533000D01*
X90735496Y-58531796D01*
X90711227Y-58528196D01*
X90687429Y-58522235D01*
X90664329Y-58513970D01*
X90642151Y-58503480D01*
X90621107Y-58490867D01*
X90601402Y-58476253D01*
X90583223Y-58459777D01*
X90566747Y-58441598D01*
X90552133Y-58421893D01*
X90539520Y-58400849D01*
X90529030Y-58378671D01*
X90520765Y-58355571D01*
X90514804Y-58331773D01*
X90511204Y-58307504D01*
X90510000Y-58283000D01*
X90510000Y-57033000D01*
X90511204Y-57008496D01*
X90514804Y-56984227D01*
X90520765Y-56960429D01*
X90529030Y-56937329D01*
X90539520Y-56915151D01*
X90552133Y-56894107D01*
X90566747Y-56874402D01*
X90583223Y-56856223D01*
X90601402Y-56839747D01*
X90621107Y-56825133D01*
X90642151Y-56812520D01*
X90664329Y-56802030D01*
X90687429Y-56793765D01*
X90711227Y-56787804D01*
X90735496Y-56784204D01*
X90760000Y-56783000D01*
X91685000Y-56783000D01*
X91709504Y-56784204D01*
G37*
G04 #@! TD.AperFunction*
G04 #@! TA.AperFunction,SMDPad,CuDef*
G36*
X101567904Y-60855404D02*
G01*
X101592173Y-60859004D01*
X101615971Y-60864965D01*
X101639071Y-60873230D01*
X101661249Y-60883720D01*
X101682293Y-60896333D01*
X101701998Y-60910947D01*
X101720177Y-60927423D01*
X101736653Y-60945602D01*
X101751267Y-60965307D01*
X101763880Y-60986351D01*
X101774370Y-61008529D01*
X101782635Y-61031629D01*
X101788596Y-61055427D01*
X101792196Y-61079696D01*
X101793400Y-61104200D01*
X101793400Y-63254200D01*
X101792196Y-63278704D01*
X101788596Y-63302973D01*
X101782635Y-63326771D01*
X101774370Y-63349871D01*
X101763880Y-63372049D01*
X101751267Y-63393093D01*
X101736653Y-63412798D01*
X101720177Y-63430977D01*
X101701998Y-63447453D01*
X101682293Y-63462067D01*
X101661249Y-63474680D01*
X101639071Y-63485170D01*
X101615971Y-63493435D01*
X101592173Y-63499396D01*
X101567904Y-63502996D01*
X101543400Y-63504200D01*
X100618400Y-63504200D01*
X100593896Y-63502996D01*
X100569627Y-63499396D01*
X100545829Y-63493435D01*
X100522729Y-63485170D01*
X100500551Y-63474680D01*
X100479507Y-63462067D01*
X100459802Y-63447453D01*
X100441623Y-63430977D01*
X100425147Y-63412798D01*
X100410533Y-63393093D01*
X100397920Y-63372049D01*
X100387430Y-63349871D01*
X100379165Y-63326771D01*
X100373204Y-63302973D01*
X100369604Y-63278704D01*
X100368400Y-63254200D01*
X100368400Y-61104200D01*
X100369604Y-61079696D01*
X100373204Y-61055427D01*
X100379165Y-61031629D01*
X100387430Y-61008529D01*
X100397920Y-60986351D01*
X100410533Y-60965307D01*
X100425147Y-60945602D01*
X100441623Y-60927423D01*
X100459802Y-60910947D01*
X100479507Y-60896333D01*
X100500551Y-60883720D01*
X100522729Y-60873230D01*
X100545829Y-60864965D01*
X100569627Y-60859004D01*
X100593896Y-60855404D01*
X100618400Y-60854200D01*
X101543400Y-60854200D01*
X101567904Y-60855404D01*
G37*
G04 #@! TD.AperFunction*
G04 #@! TA.AperFunction,SMDPad,CuDef*
G36*
X98592904Y-60855404D02*
G01*
X98617173Y-60859004D01*
X98640971Y-60864965D01*
X98664071Y-60873230D01*
X98686249Y-60883720D01*
X98707293Y-60896333D01*
X98726998Y-60910947D01*
X98745177Y-60927423D01*
X98761653Y-60945602D01*
X98776267Y-60965307D01*
X98788880Y-60986351D01*
X98799370Y-61008529D01*
X98807635Y-61031629D01*
X98813596Y-61055427D01*
X98817196Y-61079696D01*
X98818400Y-61104200D01*
X98818400Y-63254200D01*
X98817196Y-63278704D01*
X98813596Y-63302973D01*
X98807635Y-63326771D01*
X98799370Y-63349871D01*
X98788880Y-63372049D01*
X98776267Y-63393093D01*
X98761653Y-63412798D01*
X98745177Y-63430977D01*
X98726998Y-63447453D01*
X98707293Y-63462067D01*
X98686249Y-63474680D01*
X98664071Y-63485170D01*
X98640971Y-63493435D01*
X98617173Y-63499396D01*
X98592904Y-63502996D01*
X98568400Y-63504200D01*
X97643400Y-63504200D01*
X97618896Y-63502996D01*
X97594627Y-63499396D01*
X97570829Y-63493435D01*
X97547729Y-63485170D01*
X97525551Y-63474680D01*
X97504507Y-63462067D01*
X97484802Y-63447453D01*
X97466623Y-63430977D01*
X97450147Y-63412798D01*
X97435533Y-63393093D01*
X97422920Y-63372049D01*
X97412430Y-63349871D01*
X97404165Y-63326771D01*
X97398204Y-63302973D01*
X97394604Y-63278704D01*
X97393400Y-63254200D01*
X97393400Y-61104200D01*
X97394604Y-61079696D01*
X97398204Y-61055427D01*
X97404165Y-61031629D01*
X97412430Y-61008529D01*
X97422920Y-60986351D01*
X97435533Y-60965307D01*
X97450147Y-60945602D01*
X97466623Y-60927423D01*
X97484802Y-60910947D01*
X97504507Y-60896333D01*
X97525551Y-60883720D01*
X97547729Y-60873230D01*
X97570829Y-60864965D01*
X97594627Y-60859004D01*
X97618896Y-60855404D01*
X97643400Y-60854200D01*
X98568400Y-60854200D01*
X98592904Y-60855404D01*
G37*
G04 #@! TD.AperFunction*
G04 #@! TA.AperFunction,SMDPad,CuDef*
G36*
X94684504Y-60869704D02*
G01*
X94708773Y-60873304D01*
X94732571Y-60879265D01*
X94755671Y-60887530D01*
X94777849Y-60898020D01*
X94798893Y-60910633D01*
X94818598Y-60925247D01*
X94836777Y-60941723D01*
X94853253Y-60959902D01*
X94867867Y-60979607D01*
X94880480Y-61000651D01*
X94890970Y-61022829D01*
X94899235Y-61045929D01*
X94905196Y-61069727D01*
X94908796Y-61093996D01*
X94910000Y-61118500D01*
X94910000Y-63268500D01*
X94908796Y-63293004D01*
X94905196Y-63317273D01*
X94899235Y-63341071D01*
X94890970Y-63364171D01*
X94880480Y-63386349D01*
X94867867Y-63407393D01*
X94853253Y-63427098D01*
X94836777Y-63445277D01*
X94818598Y-63461753D01*
X94798893Y-63476367D01*
X94777849Y-63488980D01*
X94755671Y-63499470D01*
X94732571Y-63507735D01*
X94708773Y-63513696D01*
X94684504Y-63517296D01*
X94660000Y-63518500D01*
X93735000Y-63518500D01*
X93710496Y-63517296D01*
X93686227Y-63513696D01*
X93662429Y-63507735D01*
X93639329Y-63499470D01*
X93617151Y-63488980D01*
X93596107Y-63476367D01*
X93576402Y-63461753D01*
X93558223Y-63445277D01*
X93541747Y-63427098D01*
X93527133Y-63407393D01*
X93514520Y-63386349D01*
X93504030Y-63364171D01*
X93495765Y-63341071D01*
X93489804Y-63317273D01*
X93486204Y-63293004D01*
X93485000Y-63268500D01*
X93485000Y-61118500D01*
X93486204Y-61093996D01*
X93489804Y-61069727D01*
X93495765Y-61045929D01*
X93504030Y-61022829D01*
X93514520Y-61000651D01*
X93527133Y-60979607D01*
X93541747Y-60959902D01*
X93558223Y-60941723D01*
X93576402Y-60925247D01*
X93596107Y-60910633D01*
X93617151Y-60898020D01*
X93639329Y-60887530D01*
X93662429Y-60879265D01*
X93686227Y-60873304D01*
X93710496Y-60869704D01*
X93735000Y-60868500D01*
X94660000Y-60868500D01*
X94684504Y-60869704D01*
G37*
G04 #@! TD.AperFunction*
G04 #@! TA.AperFunction,SMDPad,CuDef*
G36*
X91709504Y-60869704D02*
G01*
X91733773Y-60873304D01*
X91757571Y-60879265D01*
X91780671Y-60887530D01*
X91802849Y-60898020D01*
X91823893Y-60910633D01*
X91843598Y-60925247D01*
X91861777Y-60941723D01*
X91878253Y-60959902D01*
X91892867Y-60979607D01*
X91905480Y-61000651D01*
X91915970Y-61022829D01*
X91924235Y-61045929D01*
X91930196Y-61069727D01*
X91933796Y-61093996D01*
X91935000Y-61118500D01*
X91935000Y-63268500D01*
X91933796Y-63293004D01*
X91930196Y-63317273D01*
X91924235Y-63341071D01*
X91915970Y-63364171D01*
X91905480Y-63386349D01*
X91892867Y-63407393D01*
X91878253Y-63427098D01*
X91861777Y-63445277D01*
X91843598Y-63461753D01*
X91823893Y-63476367D01*
X91802849Y-63488980D01*
X91780671Y-63499470D01*
X91757571Y-63507735D01*
X91733773Y-63513696D01*
X91709504Y-63517296D01*
X91685000Y-63518500D01*
X90760000Y-63518500D01*
X90735496Y-63517296D01*
X90711227Y-63513696D01*
X90687429Y-63507735D01*
X90664329Y-63499470D01*
X90642151Y-63488980D01*
X90621107Y-63476367D01*
X90601402Y-63461753D01*
X90583223Y-63445277D01*
X90566747Y-63427098D01*
X90552133Y-63407393D01*
X90539520Y-63386349D01*
X90529030Y-63364171D01*
X90520765Y-63341071D01*
X90514804Y-63317273D01*
X90511204Y-63293004D01*
X90510000Y-63268500D01*
X90510000Y-61118500D01*
X90511204Y-61093996D01*
X90514804Y-61069727D01*
X90520765Y-61045929D01*
X90529030Y-61022829D01*
X90539520Y-61000651D01*
X90552133Y-60979607D01*
X90566747Y-60959902D01*
X90583223Y-60941723D01*
X90601402Y-60925247D01*
X90621107Y-60910633D01*
X90642151Y-60898020D01*
X90664329Y-60887530D01*
X90687429Y-60879265D01*
X90711227Y-60873304D01*
X90735496Y-60869704D01*
X90760000Y-60868500D01*
X91685000Y-60868500D01*
X91709504Y-60869704D01*
G37*
G04 #@! TD.AperFunction*
G04 #@! TA.AperFunction,SMDPad,CuDef*
G36*
X128038956Y-64555206D02*
G01*
X128075359Y-64560606D01*
X128111057Y-64569547D01*
X128145706Y-64581945D01*
X128178974Y-64597680D01*
X128210539Y-64616599D01*
X128240097Y-64638521D01*
X128267365Y-64663235D01*
X128292079Y-64690503D01*
X128314001Y-64720061D01*
X128332920Y-64751626D01*
X128348655Y-64784894D01*
X128361053Y-64819543D01*
X128369994Y-64855241D01*
X128375394Y-64891644D01*
X128377200Y-64928400D01*
X128377200Y-65678400D01*
X128375394Y-65715156D01*
X128369994Y-65751559D01*
X128361053Y-65787257D01*
X128348655Y-65821906D01*
X128332920Y-65855174D01*
X128314001Y-65886739D01*
X128292079Y-65916297D01*
X128267365Y-65943565D01*
X128240097Y-65968279D01*
X128210539Y-65990201D01*
X128178974Y-66009120D01*
X128145706Y-66024855D01*
X128111057Y-66037253D01*
X128075359Y-66046194D01*
X128038956Y-66051594D01*
X128002200Y-66053400D01*
X116752200Y-66053400D01*
X116715444Y-66051594D01*
X116679041Y-66046194D01*
X116643343Y-66037253D01*
X116608694Y-66024855D01*
X116575426Y-66009120D01*
X116543861Y-65990201D01*
X116514303Y-65968279D01*
X116487035Y-65943565D01*
X116462321Y-65916297D01*
X116440399Y-65886739D01*
X116421480Y-65855174D01*
X116405745Y-65821906D01*
X116393347Y-65787257D01*
X116384406Y-65751559D01*
X116379006Y-65715156D01*
X116377200Y-65678400D01*
X116377200Y-64928400D01*
X116379006Y-64891644D01*
X116384406Y-64855241D01*
X116393347Y-64819543D01*
X116405745Y-64784894D01*
X116421480Y-64751626D01*
X116440399Y-64720061D01*
X116462321Y-64690503D01*
X116487035Y-64663235D01*
X116514303Y-64638521D01*
X116543861Y-64616599D01*
X116575426Y-64597680D01*
X116608694Y-64581945D01*
X116643343Y-64569547D01*
X116679041Y-64560606D01*
X116715444Y-64555206D01*
X116752200Y-64553400D01*
X128002200Y-64553400D01*
X128038956Y-64555206D01*
G37*
G04 #@! TD.AperFunction*
G04 #@! TA.AperFunction,SMDPad,CuDef*
G36*
X128038956Y-62015206D02*
G01*
X128075359Y-62020606D01*
X128111057Y-62029547D01*
X128145706Y-62041945D01*
X128178974Y-62057680D01*
X128210539Y-62076599D01*
X128240097Y-62098521D01*
X128267365Y-62123235D01*
X128292079Y-62150503D01*
X128314001Y-62180061D01*
X128332920Y-62211626D01*
X128348655Y-62244894D01*
X128361053Y-62279543D01*
X128369994Y-62315241D01*
X128375394Y-62351644D01*
X128377200Y-62388400D01*
X128377200Y-63138400D01*
X128375394Y-63175156D01*
X128369994Y-63211559D01*
X128361053Y-63247257D01*
X128348655Y-63281906D01*
X128332920Y-63315174D01*
X128314001Y-63346739D01*
X128292079Y-63376297D01*
X128267365Y-63403565D01*
X128240097Y-63428279D01*
X128210539Y-63450201D01*
X128178974Y-63469120D01*
X128145706Y-63484855D01*
X128111057Y-63497253D01*
X128075359Y-63506194D01*
X128038956Y-63511594D01*
X128002200Y-63513400D01*
X116752200Y-63513400D01*
X116715444Y-63511594D01*
X116679041Y-63506194D01*
X116643343Y-63497253D01*
X116608694Y-63484855D01*
X116575426Y-63469120D01*
X116543861Y-63450201D01*
X116514303Y-63428279D01*
X116487035Y-63403565D01*
X116462321Y-63376297D01*
X116440399Y-63346739D01*
X116421480Y-63315174D01*
X116405745Y-63281906D01*
X116393347Y-63247257D01*
X116384406Y-63211559D01*
X116379006Y-63175156D01*
X116377200Y-63138400D01*
X116377200Y-62388400D01*
X116379006Y-62351644D01*
X116384406Y-62315241D01*
X116393347Y-62279543D01*
X116405745Y-62244894D01*
X116421480Y-62211626D01*
X116440399Y-62180061D01*
X116462321Y-62150503D01*
X116487035Y-62123235D01*
X116514303Y-62098521D01*
X116543861Y-62076599D01*
X116575426Y-62057680D01*
X116608694Y-62041945D01*
X116643343Y-62029547D01*
X116679041Y-62020606D01*
X116715444Y-62015206D01*
X116752200Y-62013400D01*
X128002200Y-62013400D01*
X128038956Y-62015206D01*
G37*
G04 #@! TD.AperFunction*
G04 #@! TA.AperFunction,SMDPad,CuDef*
G36*
X128038956Y-59475206D02*
G01*
X128075359Y-59480606D01*
X128111057Y-59489547D01*
X128145706Y-59501945D01*
X128178974Y-59517680D01*
X128210539Y-59536599D01*
X128240097Y-59558521D01*
X128267365Y-59583235D01*
X128292079Y-59610503D01*
X128314001Y-59640061D01*
X128332920Y-59671626D01*
X128348655Y-59704894D01*
X128361053Y-59739543D01*
X128369994Y-59775241D01*
X128375394Y-59811644D01*
X128377200Y-59848400D01*
X128377200Y-60598400D01*
X128375394Y-60635156D01*
X128369994Y-60671559D01*
X128361053Y-60707257D01*
X128348655Y-60741906D01*
X128332920Y-60775174D01*
X128314001Y-60806739D01*
X128292079Y-60836297D01*
X128267365Y-60863565D01*
X128240097Y-60888279D01*
X128210539Y-60910201D01*
X128178974Y-60929120D01*
X128145706Y-60944855D01*
X128111057Y-60957253D01*
X128075359Y-60966194D01*
X128038956Y-60971594D01*
X128002200Y-60973400D01*
X116752200Y-60973400D01*
X116715444Y-60971594D01*
X116679041Y-60966194D01*
X116643343Y-60957253D01*
X116608694Y-60944855D01*
X116575426Y-60929120D01*
X116543861Y-60910201D01*
X116514303Y-60888279D01*
X116487035Y-60863565D01*
X116462321Y-60836297D01*
X116440399Y-60806739D01*
X116421480Y-60775174D01*
X116405745Y-60741906D01*
X116393347Y-60707257D01*
X116384406Y-60671559D01*
X116379006Y-60635156D01*
X116377200Y-60598400D01*
X116377200Y-59848400D01*
X116379006Y-59811644D01*
X116384406Y-59775241D01*
X116393347Y-59739543D01*
X116405745Y-59704894D01*
X116421480Y-59671626D01*
X116440399Y-59640061D01*
X116462321Y-59610503D01*
X116487035Y-59583235D01*
X116514303Y-59558521D01*
X116543861Y-59536599D01*
X116575426Y-59517680D01*
X116608694Y-59501945D01*
X116643343Y-59489547D01*
X116679041Y-59480606D01*
X116715444Y-59475206D01*
X116752200Y-59473400D01*
X128002200Y-59473400D01*
X128038956Y-59475206D01*
G37*
G04 #@! TD.AperFunction*
G04 #@! TA.AperFunction,SMDPad,CuDef*
G36*
X128038956Y-56935206D02*
G01*
X128075359Y-56940606D01*
X128111057Y-56949547D01*
X128145706Y-56961945D01*
X128178974Y-56977680D01*
X128210539Y-56996599D01*
X128240097Y-57018521D01*
X128267365Y-57043235D01*
X128292079Y-57070503D01*
X128314001Y-57100061D01*
X128332920Y-57131626D01*
X128348655Y-57164894D01*
X128361053Y-57199543D01*
X128369994Y-57235241D01*
X128375394Y-57271644D01*
X128377200Y-57308400D01*
X128377200Y-58058400D01*
X128375394Y-58095156D01*
X128369994Y-58131559D01*
X128361053Y-58167257D01*
X128348655Y-58201906D01*
X128332920Y-58235174D01*
X128314001Y-58266739D01*
X128292079Y-58296297D01*
X128267365Y-58323565D01*
X128240097Y-58348279D01*
X128210539Y-58370201D01*
X128178974Y-58389120D01*
X128145706Y-58404855D01*
X128111057Y-58417253D01*
X128075359Y-58426194D01*
X128038956Y-58431594D01*
X128002200Y-58433400D01*
X116752200Y-58433400D01*
X116715444Y-58431594D01*
X116679041Y-58426194D01*
X116643343Y-58417253D01*
X116608694Y-58404855D01*
X116575426Y-58389120D01*
X116543861Y-58370201D01*
X116514303Y-58348279D01*
X116487035Y-58323565D01*
X116462321Y-58296297D01*
X116440399Y-58266739D01*
X116421480Y-58235174D01*
X116405745Y-58201906D01*
X116393347Y-58167257D01*
X116384406Y-58131559D01*
X116379006Y-58095156D01*
X116377200Y-58058400D01*
X116377200Y-57308400D01*
X116379006Y-57271644D01*
X116384406Y-57235241D01*
X116393347Y-57199543D01*
X116405745Y-57164894D01*
X116421480Y-57131626D01*
X116440399Y-57100061D01*
X116462321Y-57070503D01*
X116487035Y-57043235D01*
X116514303Y-57018521D01*
X116543861Y-56996599D01*
X116575426Y-56977680D01*
X116608694Y-56961945D01*
X116643343Y-56949547D01*
X116679041Y-56940606D01*
X116715444Y-56935206D01*
X116752200Y-56933400D01*
X128002200Y-56933400D01*
X128038956Y-56935206D01*
G37*
G04 #@! TD.AperFunction*
D11*
X104140000Y-58928000D03*
X104140000Y-56388000D03*
X106680000Y-58928000D03*
D12*
X106680000Y-56388000D03*
D11*
X106660000Y-51260000D03*
X106660000Y-53800000D03*
X104120000Y-51260000D03*
X104120000Y-53800000D03*
X101580000Y-51260000D03*
X101580000Y-53800000D03*
X99040000Y-51260000D03*
X99040000Y-53800000D03*
X96500000Y-51260000D03*
X96500000Y-53800000D03*
X93960000Y-51260000D03*
X93960000Y-53800000D03*
X91420000Y-51260000D03*
X91420000Y-53800000D03*
X88880000Y-51260000D03*
X88880000Y-53800000D03*
X86340000Y-51260000D03*
X86340000Y-53800000D03*
X83800000Y-51260000D03*
X83800000Y-53800000D03*
X81260000Y-51260000D03*
X81260000Y-53800000D03*
X78720000Y-51260000D03*
X78720000Y-53800000D03*
X76180000Y-51260000D03*
X76180000Y-53800000D03*
X73640000Y-51260000D03*
X73640000Y-53800000D03*
X71100000Y-51260000D03*
X71100000Y-53800000D03*
X68560000Y-51260000D03*
X68560000Y-53800000D03*
X66020000Y-51260000D03*
X66020000Y-53800000D03*
X63480000Y-51260000D03*
X63480000Y-53800000D03*
X60940000Y-51260000D03*
X60940000Y-53800000D03*
X58400000Y-51260000D03*
D12*
X58400000Y-53800000D03*
D13*
X114554000Y-58928000D03*
X108204000Y-58928000D03*
X115290600Y-65303400D03*
X92735400Y-61393100D03*
X92710000Y-58115200D03*
X109982000Y-57658000D03*
X99580400Y-61417200D03*
X99568000Y-58115200D03*
D14*
X90510000Y-57658000D02*
X88224000Y-55372000D01*
X91222500Y-57658000D02*
X90510000Y-57658000D01*
X88224000Y-55372000D02*
X73472998Y-55372000D01*
X73472998Y-55372000D02*
X72390000Y-54289002D01*
X72390000Y-52550000D02*
X71100000Y-51260000D01*
X72390000Y-54289002D02*
X72390000Y-52550000D01*
X98080500Y-54759500D02*
X99040000Y-53800000D01*
X98080500Y-57658000D02*
X98080500Y-54759500D01*
D15*
X58400000Y-51260000D02*
X60940000Y-51260000D01*
D16*
X62416000Y-49784000D02*
X60940000Y-51260000D01*
X108204000Y-55263999D02*
X108204000Y-50183999D01*
X107950000Y-49784000D02*
X62416000Y-49784000D01*
X107950000Y-49929999D02*
X108204000Y-50183999D01*
X107950000Y-49784000D02*
X107950000Y-49929999D01*
X108204000Y-55263999D02*
X108204000Y-58928000D01*
D14*
X118948200Y-60223400D02*
X122377200Y-60223400D01*
X117017800Y-60223400D02*
X122377200Y-60223400D01*
D16*
X115849400Y-60223400D02*
X122377200Y-60223400D01*
X114554000Y-58928000D02*
X115849400Y-60223400D01*
D14*
X116377200Y-65303400D02*
X122377200Y-65303400D01*
D15*
X115290600Y-65303400D02*
X122377200Y-65303400D01*
D14*
X111029602Y-57683400D02*
X122377200Y-57683400D01*
X110490000Y-58223002D02*
X111029602Y-57683400D01*
X108458000Y-64770000D02*
X110490000Y-62738000D01*
X110490000Y-62738000D02*
X110490000Y-58223002D01*
X97486500Y-64770000D02*
X108458000Y-64770000D01*
X94910000Y-62193500D02*
X97486500Y-64770000D01*
X94197500Y-62193500D02*
X94910000Y-62193500D01*
X91935000Y-62193500D02*
X92735400Y-61393100D01*
X91222500Y-62193500D02*
X91935000Y-62193500D01*
X92735400Y-61393100D02*
X92735400Y-61393100D01*
X93485000Y-57658000D02*
X93027800Y-58115200D01*
X94197500Y-57658000D02*
X93485000Y-57658000D01*
X93027800Y-58115200D02*
X92710000Y-58115200D01*
X92710000Y-58115200D02*
X92710000Y-58115200D01*
X108277000Y-63681000D02*
X109474000Y-62484000D01*
X109474000Y-62484000D02*
X109474000Y-58166000D01*
X109474000Y-58166000D02*
X109982000Y-57658000D01*
X109982000Y-57658000D02*
X109982000Y-57658000D01*
X103509500Y-63681000D02*
X108277000Y-63681000D01*
X102022000Y-62193500D02*
X103509500Y-63681000D01*
X101309500Y-62193500D02*
X102022000Y-62193500D01*
X98818400Y-62179200D02*
X99580400Y-61417200D01*
X98105900Y-62179200D02*
X98818400Y-62179200D01*
X99580400Y-61417200D02*
X99580400Y-61417200D01*
X100343000Y-57658000D02*
X99885800Y-58115200D01*
X101055500Y-57658000D02*
X100343000Y-57658000D01*
X99885800Y-58115200D02*
X99568000Y-58115200D01*
X99568000Y-58115200D02*
X99568000Y-58115200D01*
D17*
G36*
X61276918Y-49812925D02*
G01*
X61086260Y-49775000D01*
X60793740Y-49775000D01*
X60506842Y-49832068D01*
X60236589Y-49944010D01*
X59993368Y-50106525D01*
X59874893Y-50225000D01*
X59465107Y-50225000D01*
X59346632Y-50106525D01*
X59103411Y-49944010D01*
X58833158Y-49832068D01*
X58546260Y-49775000D01*
X58253740Y-49775000D01*
X57966842Y-49832068D01*
X57696589Y-49944010D01*
X57453368Y-50106525D01*
X57246525Y-50313368D01*
X57084010Y-50556589D01*
X56972068Y-50826842D01*
X56915000Y-51113740D01*
X56915000Y-51406260D01*
X56972068Y-51693158D01*
X57084010Y-51963411D01*
X57246525Y-52206632D01*
X57378380Y-52338487D01*
X57305820Y-52360498D01*
X57195506Y-52419463D01*
X57098815Y-52498815D01*
X57019463Y-52595506D01*
X56960498Y-52705820D01*
X56924188Y-52825518D01*
X56911928Y-52950000D01*
X56911928Y-54650000D01*
X56924188Y-54774482D01*
X56960498Y-54894180D01*
X57019463Y-55004494D01*
X57098815Y-55101185D01*
X57195506Y-55180537D01*
X57305820Y-55239502D01*
X57425518Y-55275812D01*
X57550000Y-55288072D01*
X59250000Y-55288072D01*
X59374482Y-55275812D01*
X59494180Y-55239502D01*
X59604494Y-55180537D01*
X59701185Y-55101185D01*
X59780537Y-55004494D01*
X59839502Y-54894180D01*
X59861513Y-54821620D01*
X59993368Y-54953475D01*
X60236589Y-55115990D01*
X60506842Y-55227932D01*
X60793740Y-55285000D01*
X61086260Y-55285000D01*
X61373158Y-55227932D01*
X61643411Y-55115990D01*
X61886632Y-54953475D01*
X62093475Y-54746632D01*
X62210000Y-54572240D01*
X62326525Y-54746632D01*
X62533368Y-54953475D01*
X62776589Y-55115990D01*
X63046842Y-55227932D01*
X63333740Y-55285000D01*
X63626260Y-55285000D01*
X63913158Y-55227932D01*
X64183411Y-55115990D01*
X64426632Y-54953475D01*
X64633475Y-54746632D01*
X64750000Y-54572240D01*
X64866525Y-54746632D01*
X65073368Y-54953475D01*
X65316589Y-55115990D01*
X65586842Y-55227932D01*
X65873740Y-55285000D01*
X66166260Y-55285000D01*
X66453158Y-55227932D01*
X66723411Y-55115990D01*
X66966632Y-54953475D01*
X67173475Y-54746632D01*
X67290000Y-54572240D01*
X67406525Y-54746632D01*
X67613368Y-54953475D01*
X67856589Y-55115990D01*
X68126842Y-55227932D01*
X68413740Y-55285000D01*
X68706260Y-55285000D01*
X68993158Y-55227932D01*
X69263411Y-55115990D01*
X69506632Y-54953475D01*
X69713475Y-54746632D01*
X69830000Y-54572240D01*
X69946525Y-54746632D01*
X70153368Y-54953475D01*
X70396589Y-55115990D01*
X70666842Y-55227932D01*
X70953740Y-55285000D01*
X71246260Y-55285000D01*
X71533158Y-55227932D01*
X71803411Y-55115990D01*
X72006492Y-54980296D01*
X72909203Y-55883008D01*
X72932997Y-55912001D01*
X72961990Y-55935795D01*
X72961994Y-55935799D01*
X72994425Y-55962414D01*
X73048722Y-56006974D01*
X73180751Y-56077546D01*
X73324012Y-56121003D01*
X73435665Y-56132000D01*
X73435674Y-56132000D01*
X73472997Y-56135676D01*
X73510320Y-56132000D01*
X87909199Y-56132000D01*
X89871928Y-58094730D01*
X89871928Y-58283000D01*
X89888992Y-58456254D01*
X89939528Y-58622850D01*
X90021595Y-58776386D01*
X90132038Y-58910962D01*
X90266614Y-59021405D01*
X90420150Y-59103472D01*
X90586746Y-59154008D01*
X90760000Y-59171072D01*
X91685000Y-59171072D01*
X91858254Y-59154008D01*
X92024850Y-59103472D01*
X92178386Y-59021405D01*
X92189559Y-59012236D01*
X92219744Y-59032405D01*
X92408102Y-59110426D01*
X92608061Y-59150200D01*
X92811939Y-59150200D01*
X93011898Y-59110426D01*
X93200256Y-59032405D01*
X93230441Y-59012236D01*
X93241614Y-59021405D01*
X93395150Y-59103472D01*
X93561746Y-59154008D01*
X93735000Y-59171072D01*
X94660000Y-59171072D01*
X94833254Y-59154008D01*
X94999850Y-59103472D01*
X95153386Y-59021405D01*
X95287962Y-58910962D01*
X95398405Y-58776386D01*
X95480472Y-58622850D01*
X95531008Y-58456254D01*
X95548072Y-58283000D01*
X95548072Y-57033000D01*
X95531008Y-56859746D01*
X95480472Y-56693150D01*
X95398405Y-56539614D01*
X95287962Y-56405038D01*
X95153386Y-56294595D01*
X94999850Y-56212528D01*
X94833254Y-56161992D01*
X94660000Y-56144928D01*
X93735000Y-56144928D01*
X93561746Y-56161992D01*
X93395150Y-56212528D01*
X93241614Y-56294595D01*
X93107038Y-56405038D01*
X92996595Y-56539614D01*
X92914528Y-56693150D01*
X92863992Y-56859746D01*
X92846928Y-57033000D01*
X92846928Y-57087160D01*
X92811939Y-57080200D01*
X92608061Y-57080200D01*
X92573072Y-57087160D01*
X92573072Y-57033000D01*
X92556008Y-56859746D01*
X92505472Y-56693150D01*
X92423405Y-56539614D01*
X92312962Y-56405038D01*
X92178386Y-56294595D01*
X92024850Y-56212528D01*
X91858254Y-56161992D01*
X91685000Y-56144928D01*
X90760000Y-56144928D01*
X90586746Y-56161992D01*
X90420150Y-56212528D01*
X90266614Y-56294595D01*
X90241778Y-56314977D01*
X89091605Y-55164804D01*
X89236890Y-55241476D01*
X89384099Y-55196825D01*
X89646920Y-55071641D01*
X89880269Y-54897588D01*
X90075178Y-54681355D01*
X90144805Y-54564466D01*
X90266525Y-54746632D01*
X90473368Y-54953475D01*
X90716589Y-55115990D01*
X90986842Y-55227932D01*
X91273740Y-55285000D01*
X91566260Y-55285000D01*
X91853158Y-55227932D01*
X92123411Y-55115990D01*
X92366632Y-54953475D01*
X92573475Y-54746632D01*
X92690000Y-54572240D01*
X92806525Y-54746632D01*
X93013368Y-54953475D01*
X93256589Y-55115990D01*
X93526842Y-55227932D01*
X93813740Y-55285000D01*
X94106260Y-55285000D01*
X94393158Y-55227932D01*
X94663411Y-55115990D01*
X94906632Y-54953475D01*
X95113475Y-54746632D01*
X95230000Y-54572240D01*
X95346525Y-54746632D01*
X95553368Y-54953475D01*
X95796589Y-55115990D01*
X96066842Y-55227932D01*
X96353740Y-55285000D01*
X96646260Y-55285000D01*
X96933158Y-55227932D01*
X97203411Y-55115990D01*
X97320501Y-55037753D01*
X97320501Y-56199681D01*
X97278150Y-56212528D01*
X97124614Y-56294595D01*
X96990038Y-56405038D01*
X96879595Y-56539614D01*
X96797528Y-56693150D01*
X96746992Y-56859746D01*
X96729928Y-57033000D01*
X96729928Y-58283000D01*
X96746992Y-58456254D01*
X96797528Y-58622850D01*
X96879595Y-58776386D01*
X96990038Y-58910962D01*
X97124614Y-59021405D01*
X97278150Y-59103472D01*
X97444746Y-59154008D01*
X97618000Y-59171072D01*
X98543000Y-59171072D01*
X98716254Y-59154008D01*
X98882850Y-59103472D01*
X99036386Y-59021405D01*
X99047559Y-59012236D01*
X99077744Y-59032405D01*
X99266102Y-59110426D01*
X99466061Y-59150200D01*
X99669939Y-59150200D01*
X99869898Y-59110426D01*
X100058256Y-59032405D01*
X100088441Y-59012236D01*
X100099614Y-59021405D01*
X100253150Y-59103472D01*
X100419746Y-59154008D01*
X100593000Y-59171072D01*
X101518000Y-59171072D01*
X101691254Y-59154008D01*
X101857850Y-59103472D01*
X102011386Y-59021405D01*
X102145962Y-58910962D01*
X102256405Y-58776386D01*
X102338472Y-58622850D01*
X102389008Y-58456254D01*
X102406072Y-58283000D01*
X102406072Y-57033000D01*
X102389008Y-56859746D01*
X102338472Y-56693150D01*
X102256405Y-56539614D01*
X102145962Y-56405038D01*
X102011386Y-56294595D01*
X101857850Y-56212528D01*
X101691254Y-56161992D01*
X101518000Y-56144928D01*
X100593000Y-56144928D01*
X100419746Y-56161992D01*
X100253150Y-56212528D01*
X100099614Y-56294595D01*
X99965038Y-56405038D01*
X99854595Y-56539614D01*
X99772528Y-56693150D01*
X99721992Y-56859746D01*
X99704928Y-57033000D01*
X99704928Y-57087160D01*
X99669939Y-57080200D01*
X99466061Y-57080200D01*
X99431072Y-57087160D01*
X99431072Y-57033000D01*
X99414008Y-56859746D01*
X99363472Y-56693150D01*
X99281405Y-56539614D01*
X99170962Y-56405038D01*
X99036386Y-56294595D01*
X98882850Y-56212528D01*
X98840500Y-56199681D01*
X98840500Y-55274410D01*
X98893740Y-55285000D01*
X99186260Y-55285000D01*
X99473158Y-55227932D01*
X99743411Y-55115990D01*
X99986632Y-54953475D01*
X100193475Y-54746632D01*
X100310000Y-54572240D01*
X100426525Y-54746632D01*
X100633368Y-54953475D01*
X100876589Y-55115990D01*
X101146842Y-55227932D01*
X101433740Y-55285000D01*
X101726260Y-55285000D01*
X102013158Y-55227932D01*
X102283411Y-55115990D01*
X102526632Y-54953475D01*
X102733475Y-54746632D01*
X102850000Y-54572240D01*
X102966525Y-54746632D01*
X103173368Y-54953475D01*
X103393679Y-55100682D01*
X103193368Y-55234525D01*
X102986525Y-55441368D01*
X102824010Y-55684589D01*
X102712068Y-55954842D01*
X102655000Y-56241740D01*
X102655000Y-56534260D01*
X102712068Y-56821158D01*
X102824010Y-57091411D01*
X102986525Y-57334632D01*
X103193368Y-57541475D01*
X103367760Y-57658000D01*
X103193368Y-57774525D01*
X102986525Y-57981368D01*
X102824010Y-58224589D01*
X102712068Y-58494842D01*
X102655000Y-58781740D01*
X102655000Y-59074260D01*
X102712068Y-59361158D01*
X102824010Y-59631411D01*
X102986525Y-59874632D01*
X103193368Y-60081475D01*
X103436589Y-60243990D01*
X103706842Y-60355932D01*
X103993740Y-60413000D01*
X104286260Y-60413000D01*
X104573158Y-60355932D01*
X104843411Y-60243990D01*
X105086632Y-60081475D01*
X105293475Y-59874632D01*
X105415195Y-59692466D01*
X105484822Y-59809355D01*
X105679731Y-60025588D01*
X105913080Y-60199641D01*
X106175901Y-60324825D01*
X106323110Y-60369476D01*
X106553000Y-60248155D01*
X106553000Y-59055000D01*
X106533000Y-59055000D01*
X106533000Y-58801000D01*
X106553000Y-58801000D01*
X106553000Y-58781000D01*
X106807000Y-58781000D01*
X106807000Y-58801000D01*
X106827000Y-58801000D01*
X106827000Y-59055000D01*
X106807000Y-59055000D01*
X106807000Y-60248155D01*
X107036890Y-60369476D01*
X107184099Y-60324825D01*
X107446920Y-60199641D01*
X107680269Y-60025588D01*
X107807761Y-59884148D01*
X107902102Y-59923226D01*
X108102061Y-59963000D01*
X108305939Y-59963000D01*
X108505898Y-59923226D01*
X108694256Y-59845205D01*
X108714001Y-59832012D01*
X108714000Y-62169198D01*
X107962199Y-62921000D01*
X103824302Y-62921000D01*
X102585804Y-61682503D01*
X102562001Y-61653499D01*
X102446276Y-61558526D01*
X102431472Y-61550613D01*
X102431472Y-61104200D01*
X102414408Y-60930946D01*
X102363872Y-60764350D01*
X102281805Y-60610814D01*
X102171362Y-60476238D01*
X102036786Y-60365795D01*
X101883250Y-60283728D01*
X101716654Y-60233192D01*
X101543400Y-60216128D01*
X100618400Y-60216128D01*
X100445146Y-60233192D01*
X100278550Y-60283728D01*
X100125014Y-60365795D01*
X99998107Y-60469944D01*
X99882298Y-60421974D01*
X99682339Y-60382200D01*
X99478461Y-60382200D01*
X99278502Y-60421974D01*
X99179972Y-60462787D01*
X99061786Y-60365795D01*
X98908250Y-60283728D01*
X98741654Y-60233192D01*
X98568400Y-60216128D01*
X97643400Y-60216128D01*
X97470146Y-60233192D01*
X97303550Y-60283728D01*
X97150014Y-60365795D01*
X97015438Y-60476238D01*
X96904995Y-60610814D01*
X96822928Y-60764350D01*
X96772392Y-60930946D01*
X96755328Y-61104200D01*
X96755328Y-62964026D01*
X95548072Y-61756771D01*
X95548072Y-61118500D01*
X95531008Y-60945246D01*
X95480472Y-60778650D01*
X95398405Y-60625114D01*
X95287962Y-60490538D01*
X95153386Y-60380095D01*
X94999850Y-60298028D01*
X94833254Y-60247492D01*
X94660000Y-60230428D01*
X93735000Y-60230428D01*
X93561746Y-60247492D01*
X93395150Y-60298028D01*
X93241614Y-60380095D01*
X93158684Y-60448154D01*
X93037298Y-60397874D01*
X92837339Y-60358100D01*
X92633461Y-60358100D01*
X92433502Y-60397874D01*
X92278356Y-60462138D01*
X92178386Y-60380095D01*
X92024850Y-60298028D01*
X91858254Y-60247492D01*
X91685000Y-60230428D01*
X90760000Y-60230428D01*
X90586746Y-60247492D01*
X90420150Y-60298028D01*
X90266614Y-60380095D01*
X90132038Y-60490538D01*
X90021595Y-60625114D01*
X89939528Y-60778650D01*
X89888992Y-60945246D01*
X89871928Y-61118500D01*
X89871928Y-63268500D01*
X89888992Y-63441754D01*
X89939528Y-63608350D01*
X90021595Y-63761886D01*
X90132038Y-63896462D01*
X90266614Y-64006905D01*
X90420150Y-64088972D01*
X90586746Y-64139508D01*
X90760000Y-64156572D01*
X91685000Y-64156572D01*
X91858254Y-64139508D01*
X92024850Y-64088972D01*
X92178386Y-64006905D01*
X92312962Y-63896462D01*
X92423405Y-63761886D01*
X92505472Y-63608350D01*
X92556008Y-63441754D01*
X92573072Y-63268500D01*
X92573072Y-62630229D01*
X92775201Y-62428100D01*
X92837339Y-62428100D01*
X92846928Y-62426193D01*
X92846928Y-63268500D01*
X92863992Y-63441754D01*
X92914528Y-63608350D01*
X92996595Y-63761886D01*
X93107038Y-63896462D01*
X93241614Y-64006905D01*
X93395150Y-64088972D01*
X93561746Y-64139508D01*
X93735000Y-64156572D01*
X94660000Y-64156572D01*
X94833254Y-64139508D01*
X94999850Y-64088972D01*
X95153386Y-64006905D01*
X95287962Y-63896462D01*
X95398405Y-63761886D01*
X95400209Y-63758511D01*
X96922701Y-65281003D01*
X96946499Y-65310001D01*
X97062224Y-65404974D01*
X97194253Y-65475546D01*
X97337514Y-65519003D01*
X97449167Y-65530000D01*
X97449176Y-65530000D01*
X97486499Y-65533676D01*
X97523822Y-65530000D01*
X108420678Y-65530000D01*
X108458000Y-65533676D01*
X108495322Y-65530000D01*
X108495333Y-65530000D01*
X108606986Y-65519003D01*
X108750247Y-65475546D01*
X108882276Y-65404974D01*
X108998001Y-65310001D01*
X109021804Y-65280997D01*
X111001004Y-63301798D01*
X111030001Y-63278001D01*
X111066930Y-63233003D01*
X111124974Y-63162277D01*
X111195546Y-63030247D01*
X111217711Y-62957176D01*
X111239003Y-62886986D01*
X111250000Y-62775333D01*
X111250000Y-62775323D01*
X111253676Y-62738000D01*
X111250000Y-62700677D01*
X111250000Y-58537804D01*
X111344404Y-58443400D01*
X113634452Y-58443400D01*
X113558774Y-58626102D01*
X113519000Y-58826061D01*
X113519000Y-59029939D01*
X113558774Y-59229898D01*
X113636795Y-59418256D01*
X113750063Y-59587774D01*
X113894226Y-59731937D01*
X114063744Y-59845205D01*
X114252102Y-59923226D01*
X114452061Y-59963000D01*
X114478843Y-59963000D01*
X115267058Y-60751215D01*
X115291636Y-60781164D01*
X115321584Y-60805742D01*
X115321587Y-60805745D01*
X115350290Y-60829301D01*
X115411167Y-60879262D01*
X115547540Y-60952154D01*
X115650545Y-60983400D01*
X115695512Y-60997041D01*
X115709890Y-60998457D01*
X115810839Y-61008400D01*
X115810846Y-61008400D01*
X115829134Y-61010201D01*
X115909861Y-61161233D01*
X116035850Y-61314750D01*
X116189367Y-61440739D01*
X116287890Y-61493400D01*
X116189367Y-61546061D01*
X116035850Y-61672050D01*
X115909861Y-61825567D01*
X115816244Y-62000714D01*
X115758594Y-62190759D01*
X115739128Y-62388400D01*
X115739128Y-63138400D01*
X115758594Y-63336041D01*
X115816244Y-63526086D01*
X115909861Y-63701233D01*
X116035850Y-63854750D01*
X116159178Y-63955963D01*
X116133020Y-63963898D01*
X116022706Y-64022863D01*
X115926015Y-64102215D01*
X115846663Y-64198906D01*
X115787698Y-64309220D01*
X115751388Y-64428918D01*
X115739128Y-64553400D01*
X115742200Y-65017650D01*
X115900950Y-65176400D01*
X116358980Y-65176400D01*
X116359188Y-65430400D01*
X115900950Y-65430400D01*
X115742200Y-65589150D01*
X115739128Y-66053400D01*
X115751388Y-66177882D01*
X115787698Y-66297580D01*
X115846663Y-66407894D01*
X115926015Y-66504585D01*
X116022706Y-66583937D01*
X116133020Y-66642902D01*
X116252718Y-66679212D01*
X116360219Y-66689800D01*
X116363570Y-70783119D01*
X115045855Y-70785072D01*
X115014105Y-70781927D01*
X114981012Y-70785168D01*
X114980344Y-70785169D01*
X114948938Y-70788309D01*
X114884716Y-70794599D01*
X114884066Y-70794796D01*
X114883394Y-70794863D01*
X114821856Y-70813630D01*
X114760285Y-70832271D01*
X114759689Y-70832589D01*
X114759040Y-70832787D01*
X114702440Y-70863148D01*
X114645594Y-70893492D01*
X114645067Y-70893924D01*
X114644474Y-70894242D01*
X114594966Y-70934995D01*
X114545051Y-70975914D01*
X114544621Y-70976438D01*
X114544098Y-70976868D01*
X114503396Y-71026614D01*
X114462518Y-71076367D01*
X114462198Y-71076965D01*
X114461770Y-71077488D01*
X114431605Y-71134125D01*
X114401170Y-71190990D01*
X114400972Y-71191640D01*
X114400655Y-71192236D01*
X114382118Y-71253670D01*
X114363362Y-71315379D01*
X114363295Y-71316054D01*
X114363100Y-71316701D01*
X114356903Y-71380586D01*
X114353758Y-71412338D01*
X114353758Y-71413013D01*
X114350548Y-71446102D01*
X114353722Y-71477845D01*
X114352383Y-73910785D01*
X114106575Y-73542907D01*
X113657093Y-73093425D01*
X113128558Y-72740270D01*
X112541281Y-72497012D01*
X111917832Y-72373000D01*
X111282168Y-72373000D01*
X110658719Y-72497012D01*
X110071442Y-72740270D01*
X109542907Y-73093425D01*
X109093425Y-73542907D01*
X108740270Y-74071442D01*
X108497012Y-74658719D01*
X108373000Y-75282168D01*
X108373000Y-75917832D01*
X108497012Y-76541281D01*
X108740270Y-77128558D01*
X109093425Y-77657093D01*
X109542907Y-78106575D01*
X109890064Y-78338538D01*
X55181431Y-78324401D01*
X55657093Y-78006575D01*
X56106575Y-77557093D01*
X56459730Y-77028558D01*
X56702988Y-76441281D01*
X56827000Y-75817832D01*
X56827000Y-75182168D01*
X56702988Y-74558719D01*
X56459730Y-73971442D01*
X56106575Y-73442907D01*
X55657093Y-72993425D01*
X55128558Y-72640270D01*
X54541281Y-72397012D01*
X53917832Y-72273000D01*
X53282168Y-72273000D01*
X52658719Y-72397012D01*
X52071442Y-72640270D01*
X51542907Y-72993425D01*
X51093425Y-73442907D01*
X50740270Y-73971442D01*
X50668415Y-74144914D01*
X50677283Y-54083951D01*
X50993425Y-54557093D01*
X51442907Y-55006575D01*
X51971442Y-55359730D01*
X52558719Y-55602988D01*
X53182168Y-55727000D01*
X53817832Y-55727000D01*
X54441281Y-55602988D01*
X55028558Y-55359730D01*
X55557093Y-55006575D01*
X56006575Y-54557093D01*
X56359730Y-54028558D01*
X56602988Y-53441281D01*
X56727000Y-52817832D01*
X56727000Y-52182168D01*
X56602988Y-51558719D01*
X56359730Y-50971442D01*
X56006575Y-50442907D01*
X55557093Y-49993425D01*
X55067851Y-49666525D01*
X61424046Y-49665796D01*
X61276918Y-49812925D01*
G37*
X61276918Y-49812925D02*
X61086260Y-49775000D01*
X60793740Y-49775000D01*
X60506842Y-49832068D01*
X60236589Y-49944010D01*
X59993368Y-50106525D01*
X59874893Y-50225000D01*
X59465107Y-50225000D01*
X59346632Y-50106525D01*
X59103411Y-49944010D01*
X58833158Y-49832068D01*
X58546260Y-49775000D01*
X58253740Y-49775000D01*
X57966842Y-49832068D01*
X57696589Y-49944010D01*
X57453368Y-50106525D01*
X57246525Y-50313368D01*
X57084010Y-50556589D01*
X56972068Y-50826842D01*
X56915000Y-51113740D01*
X56915000Y-51406260D01*
X56972068Y-51693158D01*
X57084010Y-51963411D01*
X57246525Y-52206632D01*
X57378380Y-52338487D01*
X57305820Y-52360498D01*
X57195506Y-52419463D01*
X57098815Y-52498815D01*
X57019463Y-52595506D01*
X56960498Y-52705820D01*
X56924188Y-52825518D01*
X56911928Y-52950000D01*
X56911928Y-54650000D01*
X56924188Y-54774482D01*
X56960498Y-54894180D01*
X57019463Y-55004494D01*
X57098815Y-55101185D01*
X57195506Y-55180537D01*
X57305820Y-55239502D01*
X57425518Y-55275812D01*
X57550000Y-55288072D01*
X59250000Y-55288072D01*
X59374482Y-55275812D01*
X59494180Y-55239502D01*
X59604494Y-55180537D01*
X59701185Y-55101185D01*
X59780537Y-55004494D01*
X59839502Y-54894180D01*
X59861513Y-54821620D01*
X59993368Y-54953475D01*
X60236589Y-55115990D01*
X60506842Y-55227932D01*
X60793740Y-55285000D01*
X61086260Y-55285000D01*
X61373158Y-55227932D01*
X61643411Y-55115990D01*
X61886632Y-54953475D01*
X62093475Y-54746632D01*
X62210000Y-54572240D01*
X62326525Y-54746632D01*
X62533368Y-54953475D01*
X62776589Y-55115990D01*
X63046842Y-55227932D01*
X63333740Y-55285000D01*
X63626260Y-55285000D01*
X63913158Y-55227932D01*
X64183411Y-55115990D01*
X64426632Y-54953475D01*
X64633475Y-54746632D01*
X64750000Y-54572240D01*
X64866525Y-54746632D01*
X65073368Y-54953475D01*
X65316589Y-55115990D01*
X65586842Y-55227932D01*
X65873740Y-55285000D01*
X66166260Y-55285000D01*
X66453158Y-55227932D01*
X66723411Y-55115990D01*
X66966632Y-54953475D01*
X67173475Y-54746632D01*
X67290000Y-54572240D01*
X67406525Y-54746632D01*
X67613368Y-54953475D01*
X67856589Y-55115990D01*
X68126842Y-55227932D01*
X68413740Y-55285000D01*
X68706260Y-55285000D01*
X68993158Y-55227932D01*
X69263411Y-55115990D01*
X69506632Y-54953475D01*
X69713475Y-54746632D01*
X69830000Y-54572240D01*
X69946525Y-54746632D01*
X70153368Y-54953475D01*
X70396589Y-55115990D01*
X70666842Y-55227932D01*
X70953740Y-55285000D01*
X71246260Y-55285000D01*
X71533158Y-55227932D01*
X71803411Y-55115990D01*
X72006492Y-54980296D01*
X72909203Y-55883008D01*
X72932997Y-55912001D01*
X72961990Y-55935795D01*
X72961994Y-55935799D01*
X72994425Y-55962414D01*
X73048722Y-56006974D01*
X73180751Y-56077546D01*
X73324012Y-56121003D01*
X73435665Y-56132000D01*
X73435674Y-56132000D01*
X73472997Y-56135676D01*
X73510320Y-56132000D01*
X87909199Y-56132000D01*
X89871928Y-58094730D01*
X89871928Y-58283000D01*
X89888992Y-58456254D01*
X89939528Y-58622850D01*
X90021595Y-58776386D01*
X90132038Y-58910962D01*
X90266614Y-59021405D01*
X90420150Y-59103472D01*
X90586746Y-59154008D01*
X90760000Y-59171072D01*
X91685000Y-59171072D01*
X91858254Y-59154008D01*
X92024850Y-59103472D01*
X92178386Y-59021405D01*
X92189559Y-59012236D01*
X92219744Y-59032405D01*
X92408102Y-59110426D01*
X92608061Y-59150200D01*
X92811939Y-59150200D01*
X93011898Y-59110426D01*
X93200256Y-59032405D01*
X93230441Y-59012236D01*
X93241614Y-59021405D01*
X93395150Y-59103472D01*
X93561746Y-59154008D01*
X93735000Y-59171072D01*
X94660000Y-59171072D01*
X94833254Y-59154008D01*
X94999850Y-59103472D01*
X95153386Y-59021405D01*
X95287962Y-58910962D01*
X95398405Y-58776386D01*
X95480472Y-58622850D01*
X95531008Y-58456254D01*
X95548072Y-58283000D01*
X95548072Y-57033000D01*
X95531008Y-56859746D01*
X95480472Y-56693150D01*
X95398405Y-56539614D01*
X95287962Y-56405038D01*
X95153386Y-56294595D01*
X94999850Y-56212528D01*
X94833254Y-56161992D01*
X94660000Y-56144928D01*
X93735000Y-56144928D01*
X93561746Y-56161992D01*
X93395150Y-56212528D01*
X93241614Y-56294595D01*
X93107038Y-56405038D01*
X92996595Y-56539614D01*
X92914528Y-56693150D01*
X92863992Y-56859746D01*
X92846928Y-57033000D01*
X92846928Y-57087160D01*
X92811939Y-57080200D01*
X92608061Y-57080200D01*
X92573072Y-57087160D01*
X92573072Y-57033000D01*
X92556008Y-56859746D01*
X92505472Y-56693150D01*
X92423405Y-56539614D01*
X92312962Y-56405038D01*
X92178386Y-56294595D01*
X92024850Y-56212528D01*
X91858254Y-56161992D01*
X91685000Y-56144928D01*
X90760000Y-56144928D01*
X90586746Y-56161992D01*
X90420150Y-56212528D01*
X90266614Y-56294595D01*
X90241778Y-56314977D01*
X89091605Y-55164804D01*
X89236890Y-55241476D01*
X89384099Y-55196825D01*
X89646920Y-55071641D01*
X89880269Y-54897588D01*
X90075178Y-54681355D01*
X90144805Y-54564466D01*
X90266525Y-54746632D01*
X90473368Y-54953475D01*
X90716589Y-55115990D01*
X90986842Y-55227932D01*
X91273740Y-55285000D01*
X91566260Y-55285000D01*
X91853158Y-55227932D01*
X92123411Y-55115990D01*
X92366632Y-54953475D01*
X92573475Y-54746632D01*
X92690000Y-54572240D01*
X92806525Y-54746632D01*
X93013368Y-54953475D01*
X93256589Y-55115990D01*
X93526842Y-55227932D01*
X93813740Y-55285000D01*
X94106260Y-55285000D01*
X94393158Y-55227932D01*
X94663411Y-55115990D01*
X94906632Y-54953475D01*
X95113475Y-54746632D01*
X95230000Y-54572240D01*
X95346525Y-54746632D01*
X95553368Y-54953475D01*
X95796589Y-55115990D01*
X96066842Y-55227932D01*
X96353740Y-55285000D01*
X96646260Y-55285000D01*
X96933158Y-55227932D01*
X97203411Y-55115990D01*
X97320501Y-55037753D01*
X97320501Y-56199681D01*
X97278150Y-56212528D01*
X97124614Y-56294595D01*
X96990038Y-56405038D01*
X96879595Y-56539614D01*
X96797528Y-56693150D01*
X96746992Y-56859746D01*
X96729928Y-57033000D01*
X96729928Y-58283000D01*
X96746992Y-58456254D01*
X96797528Y-58622850D01*
X96879595Y-58776386D01*
X96990038Y-58910962D01*
X97124614Y-59021405D01*
X97278150Y-59103472D01*
X97444746Y-59154008D01*
X97618000Y-59171072D01*
X98543000Y-59171072D01*
X98716254Y-59154008D01*
X98882850Y-59103472D01*
X99036386Y-59021405D01*
X99047559Y-59012236D01*
X99077744Y-59032405D01*
X99266102Y-59110426D01*
X99466061Y-59150200D01*
X99669939Y-59150200D01*
X99869898Y-59110426D01*
X100058256Y-59032405D01*
X100088441Y-59012236D01*
X100099614Y-59021405D01*
X100253150Y-59103472D01*
X100419746Y-59154008D01*
X100593000Y-59171072D01*
X101518000Y-59171072D01*
X101691254Y-59154008D01*
X101857850Y-59103472D01*
X102011386Y-59021405D01*
X102145962Y-58910962D01*
X102256405Y-58776386D01*
X102338472Y-58622850D01*
X102389008Y-58456254D01*
X102406072Y-58283000D01*
X102406072Y-57033000D01*
X102389008Y-56859746D01*
X102338472Y-56693150D01*
X102256405Y-56539614D01*
X102145962Y-56405038D01*
X102011386Y-56294595D01*
X101857850Y-56212528D01*
X101691254Y-56161992D01*
X101518000Y-56144928D01*
X100593000Y-56144928D01*
X100419746Y-56161992D01*
X100253150Y-56212528D01*
X100099614Y-56294595D01*
X99965038Y-56405038D01*
X99854595Y-56539614D01*
X99772528Y-56693150D01*
X99721992Y-56859746D01*
X99704928Y-57033000D01*
X99704928Y-57087160D01*
X99669939Y-57080200D01*
X99466061Y-57080200D01*
X99431072Y-57087160D01*
X99431072Y-57033000D01*
X99414008Y-56859746D01*
X99363472Y-56693150D01*
X99281405Y-56539614D01*
X99170962Y-56405038D01*
X99036386Y-56294595D01*
X98882850Y-56212528D01*
X98840500Y-56199681D01*
X98840500Y-55274410D01*
X98893740Y-55285000D01*
X99186260Y-55285000D01*
X99473158Y-55227932D01*
X99743411Y-55115990D01*
X99986632Y-54953475D01*
X100193475Y-54746632D01*
X100310000Y-54572240D01*
X100426525Y-54746632D01*
X100633368Y-54953475D01*
X100876589Y-55115990D01*
X101146842Y-55227932D01*
X101433740Y-55285000D01*
X101726260Y-55285000D01*
X102013158Y-55227932D01*
X102283411Y-55115990D01*
X102526632Y-54953475D01*
X102733475Y-54746632D01*
X102850000Y-54572240D01*
X102966525Y-54746632D01*
X103173368Y-54953475D01*
X103393679Y-55100682D01*
X103193368Y-55234525D01*
X102986525Y-55441368D01*
X102824010Y-55684589D01*
X102712068Y-55954842D01*
X102655000Y-56241740D01*
X102655000Y-56534260D01*
X102712068Y-56821158D01*
X102824010Y-57091411D01*
X102986525Y-57334632D01*
X103193368Y-57541475D01*
X103367760Y-57658000D01*
X103193368Y-57774525D01*
X102986525Y-57981368D01*
X102824010Y-58224589D01*
X102712068Y-58494842D01*
X102655000Y-58781740D01*
X102655000Y-59074260D01*
X102712068Y-59361158D01*
X102824010Y-59631411D01*
X102986525Y-59874632D01*
X103193368Y-60081475D01*
X103436589Y-60243990D01*
X103706842Y-60355932D01*
X103993740Y-60413000D01*
X104286260Y-60413000D01*
X104573158Y-60355932D01*
X104843411Y-60243990D01*
X105086632Y-60081475D01*
X105293475Y-59874632D01*
X105415195Y-59692466D01*
X105484822Y-59809355D01*
X105679731Y-60025588D01*
X105913080Y-60199641D01*
X106175901Y-60324825D01*
X106323110Y-60369476D01*
X106553000Y-60248155D01*
X106553000Y-59055000D01*
X106533000Y-59055000D01*
X106533000Y-58801000D01*
X106553000Y-58801000D01*
X106553000Y-58781000D01*
X106807000Y-58781000D01*
X106807000Y-58801000D01*
X106827000Y-58801000D01*
X106827000Y-59055000D01*
X106807000Y-59055000D01*
X106807000Y-60248155D01*
X107036890Y-60369476D01*
X107184099Y-60324825D01*
X107446920Y-60199641D01*
X107680269Y-60025588D01*
X107807761Y-59884148D01*
X107902102Y-59923226D01*
X108102061Y-59963000D01*
X108305939Y-59963000D01*
X108505898Y-59923226D01*
X108694256Y-59845205D01*
X108714001Y-59832012D01*
X108714000Y-62169198D01*
X107962199Y-62921000D01*
X103824302Y-62921000D01*
X102585804Y-61682503D01*
X102562001Y-61653499D01*
X102446276Y-61558526D01*
X102431472Y-61550613D01*
X102431472Y-61104200D01*
X102414408Y-60930946D01*
X102363872Y-60764350D01*
X102281805Y-60610814D01*
X102171362Y-60476238D01*
X102036786Y-60365795D01*
X101883250Y-60283728D01*
X101716654Y-60233192D01*
X101543400Y-60216128D01*
X100618400Y-60216128D01*
X100445146Y-60233192D01*
X100278550Y-60283728D01*
X100125014Y-60365795D01*
X99998107Y-60469944D01*
X99882298Y-60421974D01*
X99682339Y-60382200D01*
X99478461Y-60382200D01*
X99278502Y-60421974D01*
X99179972Y-60462787D01*
X99061786Y-60365795D01*
X98908250Y-60283728D01*
X98741654Y-60233192D01*
X98568400Y-60216128D01*
X97643400Y-60216128D01*
X97470146Y-60233192D01*
X97303550Y-60283728D01*
X97150014Y-60365795D01*
X97015438Y-60476238D01*
X96904995Y-60610814D01*
X96822928Y-60764350D01*
X96772392Y-60930946D01*
X96755328Y-61104200D01*
X96755328Y-62964026D01*
X95548072Y-61756771D01*
X95548072Y-61118500D01*
X95531008Y-60945246D01*
X95480472Y-60778650D01*
X95398405Y-60625114D01*
X95287962Y-60490538D01*
X95153386Y-60380095D01*
X94999850Y-60298028D01*
X94833254Y-60247492D01*
X94660000Y-60230428D01*
X93735000Y-60230428D01*
X93561746Y-60247492D01*
X93395150Y-60298028D01*
X93241614Y-60380095D01*
X93158684Y-60448154D01*
X93037298Y-60397874D01*
X92837339Y-60358100D01*
X92633461Y-60358100D01*
X92433502Y-60397874D01*
X92278356Y-60462138D01*
X92178386Y-60380095D01*
X92024850Y-60298028D01*
X91858254Y-60247492D01*
X91685000Y-60230428D01*
X90760000Y-60230428D01*
X90586746Y-60247492D01*
X90420150Y-60298028D01*
X90266614Y-60380095D01*
X90132038Y-60490538D01*
X90021595Y-60625114D01*
X89939528Y-60778650D01*
X89888992Y-60945246D01*
X89871928Y-61118500D01*
X89871928Y-63268500D01*
X89888992Y-63441754D01*
X89939528Y-63608350D01*
X90021595Y-63761886D01*
X90132038Y-63896462D01*
X90266614Y-64006905D01*
X90420150Y-64088972D01*
X90586746Y-64139508D01*
X90760000Y-64156572D01*
X91685000Y-64156572D01*
X91858254Y-64139508D01*
X92024850Y-64088972D01*
X92178386Y-64006905D01*
X92312962Y-63896462D01*
X92423405Y-63761886D01*
X92505472Y-63608350D01*
X92556008Y-63441754D01*
X92573072Y-63268500D01*
X92573072Y-62630229D01*
X92775201Y-62428100D01*
X92837339Y-62428100D01*
X92846928Y-62426193D01*
X92846928Y-63268500D01*
X92863992Y-63441754D01*
X92914528Y-63608350D01*
X92996595Y-63761886D01*
X93107038Y-63896462D01*
X93241614Y-64006905D01*
X93395150Y-64088972D01*
X93561746Y-64139508D01*
X93735000Y-64156572D01*
X94660000Y-64156572D01*
X94833254Y-64139508D01*
X94999850Y-64088972D01*
X95153386Y-64006905D01*
X95287962Y-63896462D01*
X95398405Y-63761886D01*
X95400209Y-63758511D01*
X96922701Y-65281003D01*
X96946499Y-65310001D01*
X97062224Y-65404974D01*
X97194253Y-65475546D01*
X97337514Y-65519003D01*
X97449167Y-65530000D01*
X97449176Y-65530000D01*
X97486499Y-65533676D01*
X97523822Y-65530000D01*
X108420678Y-65530000D01*
X108458000Y-65533676D01*
X108495322Y-65530000D01*
X108495333Y-65530000D01*
X108606986Y-65519003D01*
X108750247Y-65475546D01*
X108882276Y-65404974D01*
X108998001Y-65310001D01*
X109021804Y-65280997D01*
X111001004Y-63301798D01*
X111030001Y-63278001D01*
X111066930Y-63233003D01*
X111124974Y-63162277D01*
X111195546Y-63030247D01*
X111217711Y-62957176D01*
X111239003Y-62886986D01*
X111250000Y-62775333D01*
X111250000Y-62775323D01*
X111253676Y-62738000D01*
X111250000Y-62700677D01*
X111250000Y-58537804D01*
X111344404Y-58443400D01*
X113634452Y-58443400D01*
X113558774Y-58626102D01*
X113519000Y-58826061D01*
X113519000Y-59029939D01*
X113558774Y-59229898D01*
X113636795Y-59418256D01*
X113750063Y-59587774D01*
X113894226Y-59731937D01*
X114063744Y-59845205D01*
X114252102Y-59923226D01*
X114452061Y-59963000D01*
X114478843Y-59963000D01*
X115267058Y-60751215D01*
X115291636Y-60781164D01*
X115321584Y-60805742D01*
X115321587Y-60805745D01*
X115350290Y-60829301D01*
X115411167Y-60879262D01*
X115547540Y-60952154D01*
X115650545Y-60983400D01*
X115695512Y-60997041D01*
X115709890Y-60998457D01*
X115810839Y-61008400D01*
X115810846Y-61008400D01*
X115829134Y-61010201D01*
X115909861Y-61161233D01*
X116035850Y-61314750D01*
X116189367Y-61440739D01*
X116287890Y-61493400D01*
X116189367Y-61546061D01*
X116035850Y-61672050D01*
X115909861Y-61825567D01*
X115816244Y-62000714D01*
X115758594Y-62190759D01*
X115739128Y-62388400D01*
X115739128Y-63138400D01*
X115758594Y-63336041D01*
X115816244Y-63526086D01*
X115909861Y-63701233D01*
X116035850Y-63854750D01*
X116159178Y-63955963D01*
X116133020Y-63963898D01*
X116022706Y-64022863D01*
X115926015Y-64102215D01*
X115846663Y-64198906D01*
X115787698Y-64309220D01*
X115751388Y-64428918D01*
X115739128Y-64553400D01*
X115742200Y-65017650D01*
X115900950Y-65176400D01*
X116358980Y-65176400D01*
X116359188Y-65430400D01*
X115900950Y-65430400D01*
X115742200Y-65589150D01*
X115739128Y-66053400D01*
X115751388Y-66177882D01*
X115787698Y-66297580D01*
X115846663Y-66407894D01*
X115926015Y-66504585D01*
X116022706Y-66583937D01*
X116133020Y-66642902D01*
X116252718Y-66679212D01*
X116360219Y-66689800D01*
X116363570Y-70783119D01*
X115045855Y-70785072D01*
X115014105Y-70781927D01*
X114981012Y-70785168D01*
X114980344Y-70785169D01*
X114948938Y-70788309D01*
X114884716Y-70794599D01*
X114884066Y-70794796D01*
X114883394Y-70794863D01*
X114821856Y-70813630D01*
X114760285Y-70832271D01*
X114759689Y-70832589D01*
X114759040Y-70832787D01*
X114702440Y-70863148D01*
X114645594Y-70893492D01*
X114645067Y-70893924D01*
X114644474Y-70894242D01*
X114594966Y-70934995D01*
X114545051Y-70975914D01*
X114544621Y-70976438D01*
X114544098Y-70976868D01*
X114503396Y-71026614D01*
X114462518Y-71076367D01*
X114462198Y-71076965D01*
X114461770Y-71077488D01*
X114431605Y-71134125D01*
X114401170Y-71190990D01*
X114400972Y-71191640D01*
X114400655Y-71192236D01*
X114382118Y-71253670D01*
X114363362Y-71315379D01*
X114363295Y-71316054D01*
X114363100Y-71316701D01*
X114356903Y-71380586D01*
X114353758Y-71412338D01*
X114353758Y-71413013D01*
X114350548Y-71446102D01*
X114353722Y-71477845D01*
X114352383Y-73910785D01*
X114106575Y-73542907D01*
X113657093Y-73093425D01*
X113128558Y-72740270D01*
X112541281Y-72497012D01*
X111917832Y-72373000D01*
X111282168Y-72373000D01*
X110658719Y-72497012D01*
X110071442Y-72740270D01*
X109542907Y-73093425D01*
X109093425Y-73542907D01*
X108740270Y-74071442D01*
X108497012Y-74658719D01*
X108373000Y-75282168D01*
X108373000Y-75917832D01*
X108497012Y-76541281D01*
X108740270Y-77128558D01*
X109093425Y-77657093D01*
X109542907Y-78106575D01*
X109890064Y-78338538D01*
X55181431Y-78324401D01*
X55657093Y-78006575D01*
X56106575Y-77557093D01*
X56459730Y-77028558D01*
X56702988Y-76441281D01*
X56827000Y-75817832D01*
X56827000Y-75182168D01*
X56702988Y-74558719D01*
X56459730Y-73971442D01*
X56106575Y-73442907D01*
X55657093Y-72993425D01*
X55128558Y-72640270D01*
X54541281Y-72397012D01*
X53917832Y-72273000D01*
X53282168Y-72273000D01*
X52658719Y-72397012D01*
X52071442Y-72640270D01*
X51542907Y-72993425D01*
X51093425Y-73442907D01*
X50740270Y-73971442D01*
X50668415Y-74144914D01*
X50677283Y-54083951D01*
X50993425Y-54557093D01*
X51442907Y-55006575D01*
X51971442Y-55359730D01*
X52558719Y-55602988D01*
X53182168Y-55727000D01*
X53817832Y-55727000D01*
X54441281Y-55602988D01*
X55028558Y-55359730D01*
X55557093Y-55006575D01*
X56006575Y-54557093D01*
X56359730Y-54028558D01*
X56602988Y-53441281D01*
X56727000Y-52817832D01*
X56727000Y-52182168D01*
X56602988Y-51558719D01*
X56359730Y-50971442D01*
X56006575Y-50442907D01*
X55557093Y-49993425D01*
X55067851Y-49666525D01*
X61424046Y-49665796D01*
X61276918Y-49812925D01*
G36*
X106787000Y-53673000D02*
G01*
X106807000Y-53673000D01*
X106807000Y-53927000D01*
X106787000Y-53927000D01*
X106787000Y-53947000D01*
X106533000Y-53947000D01*
X106533000Y-53927000D01*
X106513000Y-53927000D01*
X106513000Y-53673000D01*
X106533000Y-53673000D01*
X106533000Y-53653000D01*
X106787000Y-53653000D01*
X106787000Y-53673000D01*
G37*
X106787000Y-53673000D02*
X106807000Y-53673000D01*
X106807000Y-53927000D01*
X106787000Y-53927000D01*
X106787000Y-53947000D01*
X106533000Y-53947000D01*
X106533000Y-53927000D01*
X106513000Y-53927000D01*
X106513000Y-53673000D01*
X106533000Y-53673000D01*
X106533000Y-53653000D01*
X106787000Y-53653000D01*
X106787000Y-53673000D01*
G36*
X89007000Y-53673000D02*
G01*
X89027000Y-53673000D01*
X89027000Y-53927000D01*
X89007000Y-53927000D01*
X89007000Y-53947000D01*
X88753000Y-53947000D01*
X88753000Y-53927000D01*
X88733000Y-53927000D01*
X88733000Y-53673000D01*
X88753000Y-53673000D01*
X88753000Y-53653000D01*
X89007000Y-53653000D01*
X89007000Y-53673000D01*
G37*
X89007000Y-53673000D02*
X89027000Y-53673000D01*
X89027000Y-53927000D01*
X89007000Y-53927000D01*
X89007000Y-53947000D01*
X88753000Y-53947000D01*
X88753000Y-53927000D01*
X88733000Y-53927000D01*
X88733000Y-53673000D01*
X88753000Y-53673000D01*
X88753000Y-53653000D01*
X89007000Y-53653000D01*
X89007000Y-53673000D01*
G36*
X99167000Y-51133000D02*
G01*
X99187000Y-51133000D01*
X99187000Y-51387000D01*
X99167000Y-51387000D01*
X99167000Y-51407000D01*
X98913000Y-51407000D01*
X98913000Y-51387000D01*
X98893000Y-51387000D01*
X98893000Y-51133000D01*
X98913000Y-51133000D01*
X98913000Y-51113000D01*
X99167000Y-51113000D01*
X99167000Y-51133000D01*
G37*
X99167000Y-51133000D02*
X99187000Y-51133000D01*
X99187000Y-51387000D01*
X99167000Y-51387000D01*
X99167000Y-51407000D01*
X98913000Y-51407000D01*
X98913000Y-51387000D01*
X98893000Y-51387000D01*
X98893000Y-51133000D01*
X98913000Y-51133000D01*
X98913000Y-51113000D01*
X99167000Y-51113000D01*
X99167000Y-51133000D01*
G36*
X94087000Y-51133000D02*
G01*
X94107000Y-51133000D01*
X94107000Y-51387000D01*
X94087000Y-51387000D01*
X94087000Y-51407000D01*
X93833000Y-51407000D01*
X93833000Y-51387000D01*
X93813000Y-51387000D01*
X93813000Y-51133000D01*
X93833000Y-51133000D01*
X93833000Y-51113000D01*
X94087000Y-51113000D01*
X94087000Y-51133000D01*
G37*
X94087000Y-51133000D02*
X94107000Y-51133000D01*
X94107000Y-51387000D01*
X94087000Y-51387000D01*
X94087000Y-51407000D01*
X93833000Y-51407000D01*
X93833000Y-51387000D01*
X93813000Y-51387000D01*
X93813000Y-51133000D01*
X93833000Y-51133000D01*
X93833000Y-51113000D01*
X94087000Y-51113000D01*
X94087000Y-51133000D01*
G36*
X81387000Y-51133000D02*
G01*
X81407000Y-51133000D01*
X81407000Y-51387000D01*
X81387000Y-51387000D01*
X81387000Y-51407000D01*
X81133000Y-51407000D01*
X81133000Y-51387000D01*
X81113000Y-51387000D01*
X81113000Y-51133000D01*
X81133000Y-51133000D01*
X81133000Y-51113000D01*
X81387000Y-51113000D01*
X81387000Y-51133000D01*
G37*
X81387000Y-51133000D02*
X81407000Y-51133000D01*
X81407000Y-51387000D01*
X81387000Y-51387000D01*
X81387000Y-51407000D01*
X81133000Y-51407000D01*
X81133000Y-51387000D01*
X81113000Y-51387000D01*
X81113000Y-51133000D01*
X81133000Y-51133000D01*
X81133000Y-51113000D01*
X81387000Y-51113000D01*
X81387000Y-51133000D01*
G36*
X63607000Y-51133000D02*
G01*
X63627000Y-51133000D01*
X63627000Y-51387000D01*
X63607000Y-51387000D01*
X63607000Y-51407000D01*
X63353000Y-51407000D01*
X63353000Y-51387000D01*
X63333000Y-51387000D01*
X63333000Y-51133000D01*
X63353000Y-51133000D01*
X63353000Y-51113000D01*
X63607000Y-51113000D01*
X63607000Y-51133000D01*
G37*
X63607000Y-51133000D02*
X63627000Y-51133000D01*
X63627000Y-51387000D01*
X63607000Y-51387000D01*
X63607000Y-51407000D01*
X63353000Y-51407000D01*
X63353000Y-51387000D01*
X63333000Y-51387000D01*
X63333000Y-51133000D01*
X63353000Y-51133000D01*
X63353000Y-51113000D01*
X63607000Y-51113000D01*
X63607000Y-51133000D01*
M02*
