G04 #@! TF.GenerationSoftware,KiCad,Pcbnew,(5.1.5)-2*
G04 #@! TF.CreationDate,2019-12-04T22:48:08+00:00*
G04 #@! TF.ProjectId,TTVV,54545656-2e6b-4696-9361-645f70636258,1.0.8*
G04 #@! TF.SameCoordinates,Original*
G04 #@! TF.FileFunction,Paste,Top*
G04 #@! TF.FilePolarity,Positive*
%FSLAX46Y46*%
G04 Gerber Fmt 4.6, Leading zero omitted, Abs format (unit mm)*
G04 Created by KiCad (PCBNEW (5.1.5)-2) date 2019-12-04 22:48:08*
%MOMM*%
%LPD*%
G04 APERTURE LIST*
%ADD10C,0.100000*%
G04 APERTURE END LIST*
D10*
G36*
X101542504Y-56784204D02*
G01*
X101566773Y-56787804D01*
X101590571Y-56793765D01*
X101613671Y-56802030D01*
X101635849Y-56812520D01*
X101656893Y-56825133D01*
X101676598Y-56839747D01*
X101694777Y-56856223D01*
X101711253Y-56874402D01*
X101725867Y-56894107D01*
X101738480Y-56915151D01*
X101748970Y-56937329D01*
X101757235Y-56960429D01*
X101763196Y-56984227D01*
X101766796Y-57008496D01*
X101768000Y-57033000D01*
X101768000Y-58283000D01*
X101766796Y-58307504D01*
X101763196Y-58331773D01*
X101757235Y-58355571D01*
X101748970Y-58378671D01*
X101738480Y-58400849D01*
X101725867Y-58421893D01*
X101711253Y-58441598D01*
X101694777Y-58459777D01*
X101676598Y-58476253D01*
X101656893Y-58490867D01*
X101635849Y-58503480D01*
X101613671Y-58513970D01*
X101590571Y-58522235D01*
X101566773Y-58528196D01*
X101542504Y-58531796D01*
X101518000Y-58533000D01*
X100593000Y-58533000D01*
X100568496Y-58531796D01*
X100544227Y-58528196D01*
X100520429Y-58522235D01*
X100497329Y-58513970D01*
X100475151Y-58503480D01*
X100454107Y-58490867D01*
X100434402Y-58476253D01*
X100416223Y-58459777D01*
X100399747Y-58441598D01*
X100385133Y-58421893D01*
X100372520Y-58400849D01*
X100362030Y-58378671D01*
X100353765Y-58355571D01*
X100347804Y-58331773D01*
X100344204Y-58307504D01*
X100343000Y-58283000D01*
X100343000Y-57033000D01*
X100344204Y-57008496D01*
X100347804Y-56984227D01*
X100353765Y-56960429D01*
X100362030Y-56937329D01*
X100372520Y-56915151D01*
X100385133Y-56894107D01*
X100399747Y-56874402D01*
X100416223Y-56856223D01*
X100434402Y-56839747D01*
X100454107Y-56825133D01*
X100475151Y-56812520D01*
X100497329Y-56802030D01*
X100520429Y-56793765D01*
X100544227Y-56787804D01*
X100568496Y-56784204D01*
X100593000Y-56783000D01*
X101518000Y-56783000D01*
X101542504Y-56784204D01*
G37*
G36*
X98567504Y-56784204D02*
G01*
X98591773Y-56787804D01*
X98615571Y-56793765D01*
X98638671Y-56802030D01*
X98660849Y-56812520D01*
X98681893Y-56825133D01*
X98701598Y-56839747D01*
X98719777Y-56856223D01*
X98736253Y-56874402D01*
X98750867Y-56894107D01*
X98763480Y-56915151D01*
X98773970Y-56937329D01*
X98782235Y-56960429D01*
X98788196Y-56984227D01*
X98791796Y-57008496D01*
X98793000Y-57033000D01*
X98793000Y-58283000D01*
X98791796Y-58307504D01*
X98788196Y-58331773D01*
X98782235Y-58355571D01*
X98773970Y-58378671D01*
X98763480Y-58400849D01*
X98750867Y-58421893D01*
X98736253Y-58441598D01*
X98719777Y-58459777D01*
X98701598Y-58476253D01*
X98681893Y-58490867D01*
X98660849Y-58503480D01*
X98638671Y-58513970D01*
X98615571Y-58522235D01*
X98591773Y-58528196D01*
X98567504Y-58531796D01*
X98543000Y-58533000D01*
X97618000Y-58533000D01*
X97593496Y-58531796D01*
X97569227Y-58528196D01*
X97545429Y-58522235D01*
X97522329Y-58513970D01*
X97500151Y-58503480D01*
X97479107Y-58490867D01*
X97459402Y-58476253D01*
X97441223Y-58459777D01*
X97424747Y-58441598D01*
X97410133Y-58421893D01*
X97397520Y-58400849D01*
X97387030Y-58378671D01*
X97378765Y-58355571D01*
X97372804Y-58331773D01*
X97369204Y-58307504D01*
X97368000Y-58283000D01*
X97368000Y-57033000D01*
X97369204Y-57008496D01*
X97372804Y-56984227D01*
X97378765Y-56960429D01*
X97387030Y-56937329D01*
X97397520Y-56915151D01*
X97410133Y-56894107D01*
X97424747Y-56874402D01*
X97441223Y-56856223D01*
X97459402Y-56839747D01*
X97479107Y-56825133D01*
X97500151Y-56812520D01*
X97522329Y-56802030D01*
X97545429Y-56793765D01*
X97569227Y-56787804D01*
X97593496Y-56784204D01*
X97618000Y-56783000D01*
X98543000Y-56783000D01*
X98567504Y-56784204D01*
G37*
G36*
X94684504Y-56784204D02*
G01*
X94708773Y-56787804D01*
X94732571Y-56793765D01*
X94755671Y-56802030D01*
X94777849Y-56812520D01*
X94798893Y-56825133D01*
X94818598Y-56839747D01*
X94836777Y-56856223D01*
X94853253Y-56874402D01*
X94867867Y-56894107D01*
X94880480Y-56915151D01*
X94890970Y-56937329D01*
X94899235Y-56960429D01*
X94905196Y-56984227D01*
X94908796Y-57008496D01*
X94910000Y-57033000D01*
X94910000Y-58283000D01*
X94908796Y-58307504D01*
X94905196Y-58331773D01*
X94899235Y-58355571D01*
X94890970Y-58378671D01*
X94880480Y-58400849D01*
X94867867Y-58421893D01*
X94853253Y-58441598D01*
X94836777Y-58459777D01*
X94818598Y-58476253D01*
X94798893Y-58490867D01*
X94777849Y-58503480D01*
X94755671Y-58513970D01*
X94732571Y-58522235D01*
X94708773Y-58528196D01*
X94684504Y-58531796D01*
X94660000Y-58533000D01*
X93735000Y-58533000D01*
X93710496Y-58531796D01*
X93686227Y-58528196D01*
X93662429Y-58522235D01*
X93639329Y-58513970D01*
X93617151Y-58503480D01*
X93596107Y-58490867D01*
X93576402Y-58476253D01*
X93558223Y-58459777D01*
X93541747Y-58441598D01*
X93527133Y-58421893D01*
X93514520Y-58400849D01*
X93504030Y-58378671D01*
X93495765Y-58355571D01*
X93489804Y-58331773D01*
X93486204Y-58307504D01*
X93485000Y-58283000D01*
X93485000Y-57033000D01*
X93486204Y-57008496D01*
X93489804Y-56984227D01*
X93495765Y-56960429D01*
X93504030Y-56937329D01*
X93514520Y-56915151D01*
X93527133Y-56894107D01*
X93541747Y-56874402D01*
X93558223Y-56856223D01*
X93576402Y-56839747D01*
X93596107Y-56825133D01*
X93617151Y-56812520D01*
X93639329Y-56802030D01*
X93662429Y-56793765D01*
X93686227Y-56787804D01*
X93710496Y-56784204D01*
X93735000Y-56783000D01*
X94660000Y-56783000D01*
X94684504Y-56784204D01*
G37*
G36*
X91709504Y-56784204D02*
G01*
X91733773Y-56787804D01*
X91757571Y-56793765D01*
X91780671Y-56802030D01*
X91802849Y-56812520D01*
X91823893Y-56825133D01*
X91843598Y-56839747D01*
X91861777Y-56856223D01*
X91878253Y-56874402D01*
X91892867Y-56894107D01*
X91905480Y-56915151D01*
X91915970Y-56937329D01*
X91924235Y-56960429D01*
X91930196Y-56984227D01*
X91933796Y-57008496D01*
X91935000Y-57033000D01*
X91935000Y-58283000D01*
X91933796Y-58307504D01*
X91930196Y-58331773D01*
X91924235Y-58355571D01*
X91915970Y-58378671D01*
X91905480Y-58400849D01*
X91892867Y-58421893D01*
X91878253Y-58441598D01*
X91861777Y-58459777D01*
X91843598Y-58476253D01*
X91823893Y-58490867D01*
X91802849Y-58503480D01*
X91780671Y-58513970D01*
X91757571Y-58522235D01*
X91733773Y-58528196D01*
X91709504Y-58531796D01*
X91685000Y-58533000D01*
X90760000Y-58533000D01*
X90735496Y-58531796D01*
X90711227Y-58528196D01*
X90687429Y-58522235D01*
X90664329Y-58513970D01*
X90642151Y-58503480D01*
X90621107Y-58490867D01*
X90601402Y-58476253D01*
X90583223Y-58459777D01*
X90566747Y-58441598D01*
X90552133Y-58421893D01*
X90539520Y-58400849D01*
X90529030Y-58378671D01*
X90520765Y-58355571D01*
X90514804Y-58331773D01*
X90511204Y-58307504D01*
X90510000Y-58283000D01*
X90510000Y-57033000D01*
X90511204Y-57008496D01*
X90514804Y-56984227D01*
X90520765Y-56960429D01*
X90529030Y-56937329D01*
X90539520Y-56915151D01*
X90552133Y-56894107D01*
X90566747Y-56874402D01*
X90583223Y-56856223D01*
X90601402Y-56839747D01*
X90621107Y-56825133D01*
X90642151Y-56812520D01*
X90664329Y-56802030D01*
X90687429Y-56793765D01*
X90711227Y-56787804D01*
X90735496Y-56784204D01*
X90760000Y-56783000D01*
X91685000Y-56783000D01*
X91709504Y-56784204D01*
G37*
G36*
X101567904Y-60855404D02*
G01*
X101592173Y-60859004D01*
X101615971Y-60864965D01*
X101639071Y-60873230D01*
X101661249Y-60883720D01*
X101682293Y-60896333D01*
X101701998Y-60910947D01*
X101720177Y-60927423D01*
X101736653Y-60945602D01*
X101751267Y-60965307D01*
X101763880Y-60986351D01*
X101774370Y-61008529D01*
X101782635Y-61031629D01*
X101788596Y-61055427D01*
X101792196Y-61079696D01*
X101793400Y-61104200D01*
X101793400Y-63254200D01*
X101792196Y-63278704D01*
X101788596Y-63302973D01*
X101782635Y-63326771D01*
X101774370Y-63349871D01*
X101763880Y-63372049D01*
X101751267Y-63393093D01*
X101736653Y-63412798D01*
X101720177Y-63430977D01*
X101701998Y-63447453D01*
X101682293Y-63462067D01*
X101661249Y-63474680D01*
X101639071Y-63485170D01*
X101615971Y-63493435D01*
X101592173Y-63499396D01*
X101567904Y-63502996D01*
X101543400Y-63504200D01*
X100618400Y-63504200D01*
X100593896Y-63502996D01*
X100569627Y-63499396D01*
X100545829Y-63493435D01*
X100522729Y-63485170D01*
X100500551Y-63474680D01*
X100479507Y-63462067D01*
X100459802Y-63447453D01*
X100441623Y-63430977D01*
X100425147Y-63412798D01*
X100410533Y-63393093D01*
X100397920Y-63372049D01*
X100387430Y-63349871D01*
X100379165Y-63326771D01*
X100373204Y-63302973D01*
X100369604Y-63278704D01*
X100368400Y-63254200D01*
X100368400Y-61104200D01*
X100369604Y-61079696D01*
X100373204Y-61055427D01*
X100379165Y-61031629D01*
X100387430Y-61008529D01*
X100397920Y-60986351D01*
X100410533Y-60965307D01*
X100425147Y-60945602D01*
X100441623Y-60927423D01*
X100459802Y-60910947D01*
X100479507Y-60896333D01*
X100500551Y-60883720D01*
X100522729Y-60873230D01*
X100545829Y-60864965D01*
X100569627Y-60859004D01*
X100593896Y-60855404D01*
X100618400Y-60854200D01*
X101543400Y-60854200D01*
X101567904Y-60855404D01*
G37*
G36*
X98592904Y-60855404D02*
G01*
X98617173Y-60859004D01*
X98640971Y-60864965D01*
X98664071Y-60873230D01*
X98686249Y-60883720D01*
X98707293Y-60896333D01*
X98726998Y-60910947D01*
X98745177Y-60927423D01*
X98761653Y-60945602D01*
X98776267Y-60965307D01*
X98788880Y-60986351D01*
X98799370Y-61008529D01*
X98807635Y-61031629D01*
X98813596Y-61055427D01*
X98817196Y-61079696D01*
X98818400Y-61104200D01*
X98818400Y-63254200D01*
X98817196Y-63278704D01*
X98813596Y-63302973D01*
X98807635Y-63326771D01*
X98799370Y-63349871D01*
X98788880Y-63372049D01*
X98776267Y-63393093D01*
X98761653Y-63412798D01*
X98745177Y-63430977D01*
X98726998Y-63447453D01*
X98707293Y-63462067D01*
X98686249Y-63474680D01*
X98664071Y-63485170D01*
X98640971Y-63493435D01*
X98617173Y-63499396D01*
X98592904Y-63502996D01*
X98568400Y-63504200D01*
X97643400Y-63504200D01*
X97618896Y-63502996D01*
X97594627Y-63499396D01*
X97570829Y-63493435D01*
X97547729Y-63485170D01*
X97525551Y-63474680D01*
X97504507Y-63462067D01*
X97484802Y-63447453D01*
X97466623Y-63430977D01*
X97450147Y-63412798D01*
X97435533Y-63393093D01*
X97422920Y-63372049D01*
X97412430Y-63349871D01*
X97404165Y-63326771D01*
X97398204Y-63302973D01*
X97394604Y-63278704D01*
X97393400Y-63254200D01*
X97393400Y-61104200D01*
X97394604Y-61079696D01*
X97398204Y-61055427D01*
X97404165Y-61031629D01*
X97412430Y-61008529D01*
X97422920Y-60986351D01*
X97435533Y-60965307D01*
X97450147Y-60945602D01*
X97466623Y-60927423D01*
X97484802Y-60910947D01*
X97504507Y-60896333D01*
X97525551Y-60883720D01*
X97547729Y-60873230D01*
X97570829Y-60864965D01*
X97594627Y-60859004D01*
X97618896Y-60855404D01*
X97643400Y-60854200D01*
X98568400Y-60854200D01*
X98592904Y-60855404D01*
G37*
G36*
X94684504Y-60869704D02*
G01*
X94708773Y-60873304D01*
X94732571Y-60879265D01*
X94755671Y-60887530D01*
X94777849Y-60898020D01*
X94798893Y-60910633D01*
X94818598Y-60925247D01*
X94836777Y-60941723D01*
X94853253Y-60959902D01*
X94867867Y-60979607D01*
X94880480Y-61000651D01*
X94890970Y-61022829D01*
X94899235Y-61045929D01*
X94905196Y-61069727D01*
X94908796Y-61093996D01*
X94910000Y-61118500D01*
X94910000Y-63268500D01*
X94908796Y-63293004D01*
X94905196Y-63317273D01*
X94899235Y-63341071D01*
X94890970Y-63364171D01*
X94880480Y-63386349D01*
X94867867Y-63407393D01*
X94853253Y-63427098D01*
X94836777Y-63445277D01*
X94818598Y-63461753D01*
X94798893Y-63476367D01*
X94777849Y-63488980D01*
X94755671Y-63499470D01*
X94732571Y-63507735D01*
X94708773Y-63513696D01*
X94684504Y-63517296D01*
X94660000Y-63518500D01*
X93735000Y-63518500D01*
X93710496Y-63517296D01*
X93686227Y-63513696D01*
X93662429Y-63507735D01*
X93639329Y-63499470D01*
X93617151Y-63488980D01*
X93596107Y-63476367D01*
X93576402Y-63461753D01*
X93558223Y-63445277D01*
X93541747Y-63427098D01*
X93527133Y-63407393D01*
X93514520Y-63386349D01*
X93504030Y-63364171D01*
X93495765Y-63341071D01*
X93489804Y-63317273D01*
X93486204Y-63293004D01*
X93485000Y-63268500D01*
X93485000Y-61118500D01*
X93486204Y-61093996D01*
X93489804Y-61069727D01*
X93495765Y-61045929D01*
X93504030Y-61022829D01*
X93514520Y-61000651D01*
X93527133Y-60979607D01*
X93541747Y-60959902D01*
X93558223Y-60941723D01*
X93576402Y-60925247D01*
X93596107Y-60910633D01*
X93617151Y-60898020D01*
X93639329Y-60887530D01*
X93662429Y-60879265D01*
X93686227Y-60873304D01*
X93710496Y-60869704D01*
X93735000Y-60868500D01*
X94660000Y-60868500D01*
X94684504Y-60869704D01*
G37*
G36*
X91709504Y-60869704D02*
G01*
X91733773Y-60873304D01*
X91757571Y-60879265D01*
X91780671Y-60887530D01*
X91802849Y-60898020D01*
X91823893Y-60910633D01*
X91843598Y-60925247D01*
X91861777Y-60941723D01*
X91878253Y-60959902D01*
X91892867Y-60979607D01*
X91905480Y-61000651D01*
X91915970Y-61022829D01*
X91924235Y-61045929D01*
X91930196Y-61069727D01*
X91933796Y-61093996D01*
X91935000Y-61118500D01*
X91935000Y-63268500D01*
X91933796Y-63293004D01*
X91930196Y-63317273D01*
X91924235Y-63341071D01*
X91915970Y-63364171D01*
X91905480Y-63386349D01*
X91892867Y-63407393D01*
X91878253Y-63427098D01*
X91861777Y-63445277D01*
X91843598Y-63461753D01*
X91823893Y-63476367D01*
X91802849Y-63488980D01*
X91780671Y-63499470D01*
X91757571Y-63507735D01*
X91733773Y-63513696D01*
X91709504Y-63517296D01*
X91685000Y-63518500D01*
X90760000Y-63518500D01*
X90735496Y-63517296D01*
X90711227Y-63513696D01*
X90687429Y-63507735D01*
X90664329Y-63499470D01*
X90642151Y-63488980D01*
X90621107Y-63476367D01*
X90601402Y-63461753D01*
X90583223Y-63445277D01*
X90566747Y-63427098D01*
X90552133Y-63407393D01*
X90539520Y-63386349D01*
X90529030Y-63364171D01*
X90520765Y-63341071D01*
X90514804Y-63317273D01*
X90511204Y-63293004D01*
X90510000Y-63268500D01*
X90510000Y-61118500D01*
X90511204Y-61093996D01*
X90514804Y-61069727D01*
X90520765Y-61045929D01*
X90529030Y-61022829D01*
X90539520Y-61000651D01*
X90552133Y-60979607D01*
X90566747Y-60959902D01*
X90583223Y-60941723D01*
X90601402Y-60925247D01*
X90621107Y-60910633D01*
X90642151Y-60898020D01*
X90664329Y-60887530D01*
X90687429Y-60879265D01*
X90711227Y-60873304D01*
X90735496Y-60869704D01*
X90760000Y-60868500D01*
X91685000Y-60868500D01*
X91709504Y-60869704D01*
G37*
G36*
X128038956Y-64555206D02*
G01*
X128075359Y-64560606D01*
X128111057Y-64569547D01*
X128145706Y-64581945D01*
X128178974Y-64597680D01*
X128210539Y-64616599D01*
X128240097Y-64638521D01*
X128267365Y-64663235D01*
X128292079Y-64690503D01*
X128314001Y-64720061D01*
X128332920Y-64751626D01*
X128348655Y-64784894D01*
X128361053Y-64819543D01*
X128369994Y-64855241D01*
X128375394Y-64891644D01*
X128377200Y-64928400D01*
X128377200Y-65678400D01*
X128375394Y-65715156D01*
X128369994Y-65751559D01*
X128361053Y-65787257D01*
X128348655Y-65821906D01*
X128332920Y-65855174D01*
X128314001Y-65886739D01*
X128292079Y-65916297D01*
X128267365Y-65943565D01*
X128240097Y-65968279D01*
X128210539Y-65990201D01*
X128178974Y-66009120D01*
X128145706Y-66024855D01*
X128111057Y-66037253D01*
X128075359Y-66046194D01*
X128038956Y-66051594D01*
X128002200Y-66053400D01*
X116752200Y-66053400D01*
X116715444Y-66051594D01*
X116679041Y-66046194D01*
X116643343Y-66037253D01*
X116608694Y-66024855D01*
X116575426Y-66009120D01*
X116543861Y-65990201D01*
X116514303Y-65968279D01*
X116487035Y-65943565D01*
X116462321Y-65916297D01*
X116440399Y-65886739D01*
X116421480Y-65855174D01*
X116405745Y-65821906D01*
X116393347Y-65787257D01*
X116384406Y-65751559D01*
X116379006Y-65715156D01*
X116377200Y-65678400D01*
X116377200Y-64928400D01*
X116379006Y-64891644D01*
X116384406Y-64855241D01*
X116393347Y-64819543D01*
X116405745Y-64784894D01*
X116421480Y-64751626D01*
X116440399Y-64720061D01*
X116462321Y-64690503D01*
X116487035Y-64663235D01*
X116514303Y-64638521D01*
X116543861Y-64616599D01*
X116575426Y-64597680D01*
X116608694Y-64581945D01*
X116643343Y-64569547D01*
X116679041Y-64560606D01*
X116715444Y-64555206D01*
X116752200Y-64553400D01*
X128002200Y-64553400D01*
X128038956Y-64555206D01*
G37*
G36*
X128038956Y-62015206D02*
G01*
X128075359Y-62020606D01*
X128111057Y-62029547D01*
X128145706Y-62041945D01*
X128178974Y-62057680D01*
X128210539Y-62076599D01*
X128240097Y-62098521D01*
X128267365Y-62123235D01*
X128292079Y-62150503D01*
X128314001Y-62180061D01*
X128332920Y-62211626D01*
X128348655Y-62244894D01*
X128361053Y-62279543D01*
X128369994Y-62315241D01*
X128375394Y-62351644D01*
X128377200Y-62388400D01*
X128377200Y-63138400D01*
X128375394Y-63175156D01*
X128369994Y-63211559D01*
X128361053Y-63247257D01*
X128348655Y-63281906D01*
X128332920Y-63315174D01*
X128314001Y-63346739D01*
X128292079Y-63376297D01*
X128267365Y-63403565D01*
X128240097Y-63428279D01*
X128210539Y-63450201D01*
X128178974Y-63469120D01*
X128145706Y-63484855D01*
X128111057Y-63497253D01*
X128075359Y-63506194D01*
X128038956Y-63511594D01*
X128002200Y-63513400D01*
X116752200Y-63513400D01*
X116715444Y-63511594D01*
X116679041Y-63506194D01*
X116643343Y-63497253D01*
X116608694Y-63484855D01*
X116575426Y-63469120D01*
X116543861Y-63450201D01*
X116514303Y-63428279D01*
X116487035Y-63403565D01*
X116462321Y-63376297D01*
X116440399Y-63346739D01*
X116421480Y-63315174D01*
X116405745Y-63281906D01*
X116393347Y-63247257D01*
X116384406Y-63211559D01*
X116379006Y-63175156D01*
X116377200Y-63138400D01*
X116377200Y-62388400D01*
X116379006Y-62351644D01*
X116384406Y-62315241D01*
X116393347Y-62279543D01*
X116405745Y-62244894D01*
X116421480Y-62211626D01*
X116440399Y-62180061D01*
X116462321Y-62150503D01*
X116487035Y-62123235D01*
X116514303Y-62098521D01*
X116543861Y-62076599D01*
X116575426Y-62057680D01*
X116608694Y-62041945D01*
X116643343Y-62029547D01*
X116679041Y-62020606D01*
X116715444Y-62015206D01*
X116752200Y-62013400D01*
X128002200Y-62013400D01*
X128038956Y-62015206D01*
G37*
G36*
X128038956Y-59475206D02*
G01*
X128075359Y-59480606D01*
X128111057Y-59489547D01*
X128145706Y-59501945D01*
X128178974Y-59517680D01*
X128210539Y-59536599D01*
X128240097Y-59558521D01*
X128267365Y-59583235D01*
X128292079Y-59610503D01*
X128314001Y-59640061D01*
X128332920Y-59671626D01*
X128348655Y-59704894D01*
X128361053Y-59739543D01*
X128369994Y-59775241D01*
X128375394Y-59811644D01*
X128377200Y-59848400D01*
X128377200Y-60598400D01*
X128375394Y-60635156D01*
X128369994Y-60671559D01*
X128361053Y-60707257D01*
X128348655Y-60741906D01*
X128332920Y-60775174D01*
X128314001Y-60806739D01*
X128292079Y-60836297D01*
X128267365Y-60863565D01*
X128240097Y-60888279D01*
X128210539Y-60910201D01*
X128178974Y-60929120D01*
X128145706Y-60944855D01*
X128111057Y-60957253D01*
X128075359Y-60966194D01*
X128038956Y-60971594D01*
X128002200Y-60973400D01*
X116752200Y-60973400D01*
X116715444Y-60971594D01*
X116679041Y-60966194D01*
X116643343Y-60957253D01*
X116608694Y-60944855D01*
X116575426Y-60929120D01*
X116543861Y-60910201D01*
X116514303Y-60888279D01*
X116487035Y-60863565D01*
X116462321Y-60836297D01*
X116440399Y-60806739D01*
X116421480Y-60775174D01*
X116405745Y-60741906D01*
X116393347Y-60707257D01*
X116384406Y-60671559D01*
X116379006Y-60635156D01*
X116377200Y-60598400D01*
X116377200Y-59848400D01*
X116379006Y-59811644D01*
X116384406Y-59775241D01*
X116393347Y-59739543D01*
X116405745Y-59704894D01*
X116421480Y-59671626D01*
X116440399Y-59640061D01*
X116462321Y-59610503D01*
X116487035Y-59583235D01*
X116514303Y-59558521D01*
X116543861Y-59536599D01*
X116575426Y-59517680D01*
X116608694Y-59501945D01*
X116643343Y-59489547D01*
X116679041Y-59480606D01*
X116715444Y-59475206D01*
X116752200Y-59473400D01*
X128002200Y-59473400D01*
X128038956Y-59475206D01*
G37*
G36*
X128038956Y-56935206D02*
G01*
X128075359Y-56940606D01*
X128111057Y-56949547D01*
X128145706Y-56961945D01*
X128178974Y-56977680D01*
X128210539Y-56996599D01*
X128240097Y-57018521D01*
X128267365Y-57043235D01*
X128292079Y-57070503D01*
X128314001Y-57100061D01*
X128332920Y-57131626D01*
X128348655Y-57164894D01*
X128361053Y-57199543D01*
X128369994Y-57235241D01*
X128375394Y-57271644D01*
X128377200Y-57308400D01*
X128377200Y-58058400D01*
X128375394Y-58095156D01*
X128369994Y-58131559D01*
X128361053Y-58167257D01*
X128348655Y-58201906D01*
X128332920Y-58235174D01*
X128314001Y-58266739D01*
X128292079Y-58296297D01*
X128267365Y-58323565D01*
X128240097Y-58348279D01*
X128210539Y-58370201D01*
X128178974Y-58389120D01*
X128145706Y-58404855D01*
X128111057Y-58417253D01*
X128075359Y-58426194D01*
X128038956Y-58431594D01*
X128002200Y-58433400D01*
X116752200Y-58433400D01*
X116715444Y-58431594D01*
X116679041Y-58426194D01*
X116643343Y-58417253D01*
X116608694Y-58404855D01*
X116575426Y-58389120D01*
X116543861Y-58370201D01*
X116514303Y-58348279D01*
X116487035Y-58323565D01*
X116462321Y-58296297D01*
X116440399Y-58266739D01*
X116421480Y-58235174D01*
X116405745Y-58201906D01*
X116393347Y-58167257D01*
X116384406Y-58131559D01*
X116379006Y-58095156D01*
X116377200Y-58058400D01*
X116377200Y-57308400D01*
X116379006Y-57271644D01*
X116384406Y-57235241D01*
X116393347Y-57199543D01*
X116405745Y-57164894D01*
X116421480Y-57131626D01*
X116440399Y-57100061D01*
X116462321Y-57070503D01*
X116487035Y-57043235D01*
X116514303Y-57018521D01*
X116543861Y-56996599D01*
X116575426Y-56977680D01*
X116608694Y-56961945D01*
X116643343Y-56949547D01*
X116679041Y-56940606D01*
X116715444Y-56935206D01*
X116752200Y-56933400D01*
X128002200Y-56933400D01*
X128038956Y-56935206D01*
G37*
M02*
