G04 #@! TF.GenerationSoftware,KiCad,Pcbnew,(5.1.5)-2*
G04 #@! TF.CreationDate,2019-12-04T22:48:08+00:00*
G04 #@! TF.ProjectId,TTVV,54545656-2e6b-4696-9361-645f70636258,1.0.8*
G04 #@! TF.SameCoordinates,Original*
G04 #@! TF.FileFunction,Paste,Bot*
G04 #@! TF.FilePolarity,Positive*
%FSLAX46Y46*%
G04 Gerber Fmt 4.6, Leading zero omitted, Abs format (unit mm)*
G04 Created by KiCad (PCBNEW (5.1.5)-2) date 2019-12-04 22:48:08*
%MOMM*%
%LPD*%
G04 APERTURE LIST*
%ADD10C,0.100000*%
G04 APERTURE END LIST*
D10*
G36*
X128038956Y-64555206D02*
G01*
X128075359Y-64560606D01*
X128111057Y-64569547D01*
X128145706Y-64581945D01*
X128178974Y-64597680D01*
X128210539Y-64616599D01*
X128240097Y-64638521D01*
X128267365Y-64663235D01*
X128292079Y-64690503D01*
X128314001Y-64720061D01*
X128332920Y-64751626D01*
X128348655Y-64784894D01*
X128361053Y-64819543D01*
X128369994Y-64855241D01*
X128375394Y-64891644D01*
X128377200Y-64928400D01*
X128377200Y-65678400D01*
X128375394Y-65715156D01*
X128369994Y-65751559D01*
X128361053Y-65787257D01*
X128348655Y-65821906D01*
X128332920Y-65855174D01*
X128314001Y-65886739D01*
X128292079Y-65916297D01*
X128267365Y-65943565D01*
X128240097Y-65968279D01*
X128210539Y-65990201D01*
X128178974Y-66009120D01*
X128145706Y-66024855D01*
X128111057Y-66037253D01*
X128075359Y-66046194D01*
X128038956Y-66051594D01*
X128002200Y-66053400D01*
X116752200Y-66053400D01*
X116715444Y-66051594D01*
X116679041Y-66046194D01*
X116643343Y-66037253D01*
X116608694Y-66024855D01*
X116575426Y-66009120D01*
X116543861Y-65990201D01*
X116514303Y-65968279D01*
X116487035Y-65943565D01*
X116462321Y-65916297D01*
X116440399Y-65886739D01*
X116421480Y-65855174D01*
X116405745Y-65821906D01*
X116393347Y-65787257D01*
X116384406Y-65751559D01*
X116379006Y-65715156D01*
X116377200Y-65678400D01*
X116377200Y-64928400D01*
X116379006Y-64891644D01*
X116384406Y-64855241D01*
X116393347Y-64819543D01*
X116405745Y-64784894D01*
X116421480Y-64751626D01*
X116440399Y-64720061D01*
X116462321Y-64690503D01*
X116487035Y-64663235D01*
X116514303Y-64638521D01*
X116543861Y-64616599D01*
X116575426Y-64597680D01*
X116608694Y-64581945D01*
X116643343Y-64569547D01*
X116679041Y-64560606D01*
X116715444Y-64555206D01*
X116752200Y-64553400D01*
X128002200Y-64553400D01*
X128038956Y-64555206D01*
G37*
G36*
X128038956Y-62015206D02*
G01*
X128075359Y-62020606D01*
X128111057Y-62029547D01*
X128145706Y-62041945D01*
X128178974Y-62057680D01*
X128210539Y-62076599D01*
X128240097Y-62098521D01*
X128267365Y-62123235D01*
X128292079Y-62150503D01*
X128314001Y-62180061D01*
X128332920Y-62211626D01*
X128348655Y-62244894D01*
X128361053Y-62279543D01*
X128369994Y-62315241D01*
X128375394Y-62351644D01*
X128377200Y-62388400D01*
X128377200Y-63138400D01*
X128375394Y-63175156D01*
X128369994Y-63211559D01*
X128361053Y-63247257D01*
X128348655Y-63281906D01*
X128332920Y-63315174D01*
X128314001Y-63346739D01*
X128292079Y-63376297D01*
X128267365Y-63403565D01*
X128240097Y-63428279D01*
X128210539Y-63450201D01*
X128178974Y-63469120D01*
X128145706Y-63484855D01*
X128111057Y-63497253D01*
X128075359Y-63506194D01*
X128038956Y-63511594D01*
X128002200Y-63513400D01*
X116752200Y-63513400D01*
X116715444Y-63511594D01*
X116679041Y-63506194D01*
X116643343Y-63497253D01*
X116608694Y-63484855D01*
X116575426Y-63469120D01*
X116543861Y-63450201D01*
X116514303Y-63428279D01*
X116487035Y-63403565D01*
X116462321Y-63376297D01*
X116440399Y-63346739D01*
X116421480Y-63315174D01*
X116405745Y-63281906D01*
X116393347Y-63247257D01*
X116384406Y-63211559D01*
X116379006Y-63175156D01*
X116377200Y-63138400D01*
X116377200Y-62388400D01*
X116379006Y-62351644D01*
X116384406Y-62315241D01*
X116393347Y-62279543D01*
X116405745Y-62244894D01*
X116421480Y-62211626D01*
X116440399Y-62180061D01*
X116462321Y-62150503D01*
X116487035Y-62123235D01*
X116514303Y-62098521D01*
X116543861Y-62076599D01*
X116575426Y-62057680D01*
X116608694Y-62041945D01*
X116643343Y-62029547D01*
X116679041Y-62020606D01*
X116715444Y-62015206D01*
X116752200Y-62013400D01*
X128002200Y-62013400D01*
X128038956Y-62015206D01*
G37*
G36*
X128038956Y-59475206D02*
G01*
X128075359Y-59480606D01*
X128111057Y-59489547D01*
X128145706Y-59501945D01*
X128178974Y-59517680D01*
X128210539Y-59536599D01*
X128240097Y-59558521D01*
X128267365Y-59583235D01*
X128292079Y-59610503D01*
X128314001Y-59640061D01*
X128332920Y-59671626D01*
X128348655Y-59704894D01*
X128361053Y-59739543D01*
X128369994Y-59775241D01*
X128375394Y-59811644D01*
X128377200Y-59848400D01*
X128377200Y-60598400D01*
X128375394Y-60635156D01*
X128369994Y-60671559D01*
X128361053Y-60707257D01*
X128348655Y-60741906D01*
X128332920Y-60775174D01*
X128314001Y-60806739D01*
X128292079Y-60836297D01*
X128267365Y-60863565D01*
X128240097Y-60888279D01*
X128210539Y-60910201D01*
X128178974Y-60929120D01*
X128145706Y-60944855D01*
X128111057Y-60957253D01*
X128075359Y-60966194D01*
X128038956Y-60971594D01*
X128002200Y-60973400D01*
X116752200Y-60973400D01*
X116715444Y-60971594D01*
X116679041Y-60966194D01*
X116643343Y-60957253D01*
X116608694Y-60944855D01*
X116575426Y-60929120D01*
X116543861Y-60910201D01*
X116514303Y-60888279D01*
X116487035Y-60863565D01*
X116462321Y-60836297D01*
X116440399Y-60806739D01*
X116421480Y-60775174D01*
X116405745Y-60741906D01*
X116393347Y-60707257D01*
X116384406Y-60671559D01*
X116379006Y-60635156D01*
X116377200Y-60598400D01*
X116377200Y-59848400D01*
X116379006Y-59811644D01*
X116384406Y-59775241D01*
X116393347Y-59739543D01*
X116405745Y-59704894D01*
X116421480Y-59671626D01*
X116440399Y-59640061D01*
X116462321Y-59610503D01*
X116487035Y-59583235D01*
X116514303Y-59558521D01*
X116543861Y-59536599D01*
X116575426Y-59517680D01*
X116608694Y-59501945D01*
X116643343Y-59489547D01*
X116679041Y-59480606D01*
X116715444Y-59475206D01*
X116752200Y-59473400D01*
X128002200Y-59473400D01*
X128038956Y-59475206D01*
G37*
G36*
X128038956Y-56935206D02*
G01*
X128075359Y-56940606D01*
X128111057Y-56949547D01*
X128145706Y-56961945D01*
X128178974Y-56977680D01*
X128210539Y-56996599D01*
X128240097Y-57018521D01*
X128267365Y-57043235D01*
X128292079Y-57070503D01*
X128314001Y-57100061D01*
X128332920Y-57131626D01*
X128348655Y-57164894D01*
X128361053Y-57199543D01*
X128369994Y-57235241D01*
X128375394Y-57271644D01*
X128377200Y-57308400D01*
X128377200Y-58058400D01*
X128375394Y-58095156D01*
X128369994Y-58131559D01*
X128361053Y-58167257D01*
X128348655Y-58201906D01*
X128332920Y-58235174D01*
X128314001Y-58266739D01*
X128292079Y-58296297D01*
X128267365Y-58323565D01*
X128240097Y-58348279D01*
X128210539Y-58370201D01*
X128178974Y-58389120D01*
X128145706Y-58404855D01*
X128111057Y-58417253D01*
X128075359Y-58426194D01*
X128038956Y-58431594D01*
X128002200Y-58433400D01*
X116752200Y-58433400D01*
X116715444Y-58431594D01*
X116679041Y-58426194D01*
X116643343Y-58417253D01*
X116608694Y-58404855D01*
X116575426Y-58389120D01*
X116543861Y-58370201D01*
X116514303Y-58348279D01*
X116487035Y-58323565D01*
X116462321Y-58296297D01*
X116440399Y-58266739D01*
X116421480Y-58235174D01*
X116405745Y-58201906D01*
X116393347Y-58167257D01*
X116384406Y-58131559D01*
X116379006Y-58095156D01*
X116377200Y-58058400D01*
X116377200Y-57308400D01*
X116379006Y-57271644D01*
X116384406Y-57235241D01*
X116393347Y-57199543D01*
X116405745Y-57164894D01*
X116421480Y-57131626D01*
X116440399Y-57100061D01*
X116462321Y-57070503D01*
X116487035Y-57043235D01*
X116514303Y-57018521D01*
X116543861Y-56996599D01*
X116575426Y-56977680D01*
X116608694Y-56961945D01*
X116643343Y-56949547D01*
X116679041Y-56940606D01*
X116715444Y-56935206D01*
X116752200Y-56933400D01*
X128002200Y-56933400D01*
X128038956Y-56935206D01*
G37*
M02*
