M48
; DRILL file {KiCad (5.1.5)-2} date 04/12/2019 22:48:26
; FORMAT={-:-/ absolute / inch / decimal}
; #@! TF.CreationDate,2019-12-04T22:48:26+00:00
; #@! TF.GenerationSoftware,Kicad,Pcbnew,(5.1.5)-2
; #@! TF.FileFunction,Plated,1,2,PTH
FMAT,2
INCH
T1C0.0157
T2C0.0394
%
G90
G05
T1
X3.65Y-2.288
X3.651Y-2.4171
X3.92Y-2.288
X3.9205Y-2.418
X4.26Y-2.32
X4.33Y-2.27
X4.51Y-2.32
X4.539Y-2.571
T2
X4.1Y-2.22
X4.1Y-2.32
X4.2Y-2.22
X4.2Y-2.32
X2.2992Y-2.0181
X2.2992Y-2.1181
X2.3992Y-2.0181
X2.3992Y-2.1181
X2.4992Y-2.0181
X2.4992Y-2.1181
X2.5992Y-2.0181
X2.5992Y-2.1181
X2.6992Y-2.0181
X2.6992Y-2.1181
X2.7992Y-2.0181
X2.7992Y-2.1181
X2.8992Y-2.0181
X2.8992Y-2.1181
X2.9992Y-2.0181
X2.9992Y-2.1181
X3.0992Y-2.0181
X3.0992Y-2.1181
X3.1992Y-2.0181
X3.1992Y-2.1181
X3.2992Y-2.0181
X3.2992Y-2.1181
X3.3992Y-2.0181
X3.3992Y-2.1181
X3.4992Y-2.0181
X3.4992Y-2.1181
X3.5992Y-2.0181
X3.5992Y-2.1181
X3.6992Y-2.0181
X3.6992Y-2.1181
X3.7992Y-2.0181
X3.7992Y-2.1181
X3.8992Y-2.0181
X3.8992Y-2.1181
X3.9992Y-2.0181
X3.9992Y-2.1181
X4.0992Y-2.0181
X4.0992Y-2.1181
X4.1992Y-2.0181
X4.1992Y-2.1181
T0
M30
