G04 #@! TF.GenerationSoftware,KiCad,Pcbnew,(5.1.5)-2*
G04 #@! TF.CreationDate,2019-12-04T22:48:08+00:00*
G04 #@! TF.ProjectId,TTVV,54545656-2e6b-4696-9361-645f70636258,1.0.8*
G04 #@! TF.SameCoordinates,Original*
G04 #@! TF.FileFunction,Copper,L2,Bot*
G04 #@! TF.FilePolarity,Positive*
%FSLAX46Y46*%
G04 Gerber Fmt 4.6, Leading zero omitted, Abs format (unit mm)*
G04 Created by KiCad (PCBNEW (5.1.5)-2) date 2019-12-04 22:48:08*
%MOMM*%
%LPD*%
G04 APERTURE LIST*
%ADD10C,0.100000*%
%ADD11O,1.700000X1.700000*%
%ADD12R,1.700000X1.700000*%
%ADD13C,0.800000*%
%ADD14C,0.300000*%
%ADD15C,0.250000*%
%ADD16C,0.800000*%
%ADD17C,0.254000*%
G04 APERTURE END LIST*
G04 #@! TA.AperFunction,SMDPad,CuDef*
D10*
G36*
X128038956Y-64555206D02*
G01*
X128075359Y-64560606D01*
X128111057Y-64569547D01*
X128145706Y-64581945D01*
X128178974Y-64597680D01*
X128210539Y-64616599D01*
X128240097Y-64638521D01*
X128267365Y-64663235D01*
X128292079Y-64690503D01*
X128314001Y-64720061D01*
X128332920Y-64751626D01*
X128348655Y-64784894D01*
X128361053Y-64819543D01*
X128369994Y-64855241D01*
X128375394Y-64891644D01*
X128377200Y-64928400D01*
X128377200Y-65678400D01*
X128375394Y-65715156D01*
X128369994Y-65751559D01*
X128361053Y-65787257D01*
X128348655Y-65821906D01*
X128332920Y-65855174D01*
X128314001Y-65886739D01*
X128292079Y-65916297D01*
X128267365Y-65943565D01*
X128240097Y-65968279D01*
X128210539Y-65990201D01*
X128178974Y-66009120D01*
X128145706Y-66024855D01*
X128111057Y-66037253D01*
X128075359Y-66046194D01*
X128038956Y-66051594D01*
X128002200Y-66053400D01*
X116752200Y-66053400D01*
X116715444Y-66051594D01*
X116679041Y-66046194D01*
X116643343Y-66037253D01*
X116608694Y-66024855D01*
X116575426Y-66009120D01*
X116543861Y-65990201D01*
X116514303Y-65968279D01*
X116487035Y-65943565D01*
X116462321Y-65916297D01*
X116440399Y-65886739D01*
X116421480Y-65855174D01*
X116405745Y-65821906D01*
X116393347Y-65787257D01*
X116384406Y-65751559D01*
X116379006Y-65715156D01*
X116377200Y-65678400D01*
X116377200Y-64928400D01*
X116379006Y-64891644D01*
X116384406Y-64855241D01*
X116393347Y-64819543D01*
X116405745Y-64784894D01*
X116421480Y-64751626D01*
X116440399Y-64720061D01*
X116462321Y-64690503D01*
X116487035Y-64663235D01*
X116514303Y-64638521D01*
X116543861Y-64616599D01*
X116575426Y-64597680D01*
X116608694Y-64581945D01*
X116643343Y-64569547D01*
X116679041Y-64560606D01*
X116715444Y-64555206D01*
X116752200Y-64553400D01*
X128002200Y-64553400D01*
X128038956Y-64555206D01*
G37*
G04 #@! TD.AperFunction*
G04 #@! TA.AperFunction,SMDPad,CuDef*
G36*
X128038956Y-62015206D02*
G01*
X128075359Y-62020606D01*
X128111057Y-62029547D01*
X128145706Y-62041945D01*
X128178974Y-62057680D01*
X128210539Y-62076599D01*
X128240097Y-62098521D01*
X128267365Y-62123235D01*
X128292079Y-62150503D01*
X128314001Y-62180061D01*
X128332920Y-62211626D01*
X128348655Y-62244894D01*
X128361053Y-62279543D01*
X128369994Y-62315241D01*
X128375394Y-62351644D01*
X128377200Y-62388400D01*
X128377200Y-63138400D01*
X128375394Y-63175156D01*
X128369994Y-63211559D01*
X128361053Y-63247257D01*
X128348655Y-63281906D01*
X128332920Y-63315174D01*
X128314001Y-63346739D01*
X128292079Y-63376297D01*
X128267365Y-63403565D01*
X128240097Y-63428279D01*
X128210539Y-63450201D01*
X128178974Y-63469120D01*
X128145706Y-63484855D01*
X128111057Y-63497253D01*
X128075359Y-63506194D01*
X128038956Y-63511594D01*
X128002200Y-63513400D01*
X116752200Y-63513400D01*
X116715444Y-63511594D01*
X116679041Y-63506194D01*
X116643343Y-63497253D01*
X116608694Y-63484855D01*
X116575426Y-63469120D01*
X116543861Y-63450201D01*
X116514303Y-63428279D01*
X116487035Y-63403565D01*
X116462321Y-63376297D01*
X116440399Y-63346739D01*
X116421480Y-63315174D01*
X116405745Y-63281906D01*
X116393347Y-63247257D01*
X116384406Y-63211559D01*
X116379006Y-63175156D01*
X116377200Y-63138400D01*
X116377200Y-62388400D01*
X116379006Y-62351644D01*
X116384406Y-62315241D01*
X116393347Y-62279543D01*
X116405745Y-62244894D01*
X116421480Y-62211626D01*
X116440399Y-62180061D01*
X116462321Y-62150503D01*
X116487035Y-62123235D01*
X116514303Y-62098521D01*
X116543861Y-62076599D01*
X116575426Y-62057680D01*
X116608694Y-62041945D01*
X116643343Y-62029547D01*
X116679041Y-62020606D01*
X116715444Y-62015206D01*
X116752200Y-62013400D01*
X128002200Y-62013400D01*
X128038956Y-62015206D01*
G37*
G04 #@! TD.AperFunction*
G04 #@! TA.AperFunction,SMDPad,CuDef*
G36*
X128038956Y-59475206D02*
G01*
X128075359Y-59480606D01*
X128111057Y-59489547D01*
X128145706Y-59501945D01*
X128178974Y-59517680D01*
X128210539Y-59536599D01*
X128240097Y-59558521D01*
X128267365Y-59583235D01*
X128292079Y-59610503D01*
X128314001Y-59640061D01*
X128332920Y-59671626D01*
X128348655Y-59704894D01*
X128361053Y-59739543D01*
X128369994Y-59775241D01*
X128375394Y-59811644D01*
X128377200Y-59848400D01*
X128377200Y-60598400D01*
X128375394Y-60635156D01*
X128369994Y-60671559D01*
X128361053Y-60707257D01*
X128348655Y-60741906D01*
X128332920Y-60775174D01*
X128314001Y-60806739D01*
X128292079Y-60836297D01*
X128267365Y-60863565D01*
X128240097Y-60888279D01*
X128210539Y-60910201D01*
X128178974Y-60929120D01*
X128145706Y-60944855D01*
X128111057Y-60957253D01*
X128075359Y-60966194D01*
X128038956Y-60971594D01*
X128002200Y-60973400D01*
X116752200Y-60973400D01*
X116715444Y-60971594D01*
X116679041Y-60966194D01*
X116643343Y-60957253D01*
X116608694Y-60944855D01*
X116575426Y-60929120D01*
X116543861Y-60910201D01*
X116514303Y-60888279D01*
X116487035Y-60863565D01*
X116462321Y-60836297D01*
X116440399Y-60806739D01*
X116421480Y-60775174D01*
X116405745Y-60741906D01*
X116393347Y-60707257D01*
X116384406Y-60671559D01*
X116379006Y-60635156D01*
X116377200Y-60598400D01*
X116377200Y-59848400D01*
X116379006Y-59811644D01*
X116384406Y-59775241D01*
X116393347Y-59739543D01*
X116405745Y-59704894D01*
X116421480Y-59671626D01*
X116440399Y-59640061D01*
X116462321Y-59610503D01*
X116487035Y-59583235D01*
X116514303Y-59558521D01*
X116543861Y-59536599D01*
X116575426Y-59517680D01*
X116608694Y-59501945D01*
X116643343Y-59489547D01*
X116679041Y-59480606D01*
X116715444Y-59475206D01*
X116752200Y-59473400D01*
X128002200Y-59473400D01*
X128038956Y-59475206D01*
G37*
G04 #@! TD.AperFunction*
G04 #@! TA.AperFunction,SMDPad,CuDef*
G36*
X128038956Y-56935206D02*
G01*
X128075359Y-56940606D01*
X128111057Y-56949547D01*
X128145706Y-56961945D01*
X128178974Y-56977680D01*
X128210539Y-56996599D01*
X128240097Y-57018521D01*
X128267365Y-57043235D01*
X128292079Y-57070503D01*
X128314001Y-57100061D01*
X128332920Y-57131626D01*
X128348655Y-57164894D01*
X128361053Y-57199543D01*
X128369994Y-57235241D01*
X128375394Y-57271644D01*
X128377200Y-57308400D01*
X128377200Y-58058400D01*
X128375394Y-58095156D01*
X128369994Y-58131559D01*
X128361053Y-58167257D01*
X128348655Y-58201906D01*
X128332920Y-58235174D01*
X128314001Y-58266739D01*
X128292079Y-58296297D01*
X128267365Y-58323565D01*
X128240097Y-58348279D01*
X128210539Y-58370201D01*
X128178974Y-58389120D01*
X128145706Y-58404855D01*
X128111057Y-58417253D01*
X128075359Y-58426194D01*
X128038956Y-58431594D01*
X128002200Y-58433400D01*
X116752200Y-58433400D01*
X116715444Y-58431594D01*
X116679041Y-58426194D01*
X116643343Y-58417253D01*
X116608694Y-58404855D01*
X116575426Y-58389120D01*
X116543861Y-58370201D01*
X116514303Y-58348279D01*
X116487035Y-58323565D01*
X116462321Y-58296297D01*
X116440399Y-58266739D01*
X116421480Y-58235174D01*
X116405745Y-58201906D01*
X116393347Y-58167257D01*
X116384406Y-58131559D01*
X116379006Y-58095156D01*
X116377200Y-58058400D01*
X116377200Y-57308400D01*
X116379006Y-57271644D01*
X116384406Y-57235241D01*
X116393347Y-57199543D01*
X116405745Y-57164894D01*
X116421480Y-57131626D01*
X116440399Y-57100061D01*
X116462321Y-57070503D01*
X116487035Y-57043235D01*
X116514303Y-57018521D01*
X116543861Y-56996599D01*
X116575426Y-56977680D01*
X116608694Y-56961945D01*
X116643343Y-56949547D01*
X116679041Y-56940606D01*
X116715444Y-56935206D01*
X116752200Y-56933400D01*
X128002200Y-56933400D01*
X128038956Y-56935206D01*
G37*
G04 #@! TD.AperFunction*
D11*
X104140000Y-58928000D03*
X104140000Y-56388000D03*
X106680000Y-58928000D03*
D12*
X106680000Y-56388000D03*
D11*
X106660000Y-51260000D03*
X106660000Y-53800000D03*
X104120000Y-51260000D03*
X104120000Y-53800000D03*
X101580000Y-51260000D03*
X101580000Y-53800000D03*
X99040000Y-51260000D03*
X99040000Y-53800000D03*
X96500000Y-51260000D03*
X96500000Y-53800000D03*
X93960000Y-51260000D03*
X93960000Y-53800000D03*
X91420000Y-51260000D03*
X91420000Y-53800000D03*
X88880000Y-51260000D03*
X88880000Y-53800000D03*
X86340000Y-51260000D03*
X86340000Y-53800000D03*
X83800000Y-51260000D03*
X83800000Y-53800000D03*
X81260000Y-51260000D03*
X81260000Y-53800000D03*
X78720000Y-51260000D03*
X78720000Y-53800000D03*
X76180000Y-51260000D03*
X76180000Y-53800000D03*
X73640000Y-51260000D03*
X73640000Y-53800000D03*
X71100000Y-51260000D03*
X71100000Y-53800000D03*
X68560000Y-51260000D03*
X68560000Y-53800000D03*
X66020000Y-51260000D03*
X66020000Y-53800000D03*
X63480000Y-51260000D03*
X63480000Y-53800000D03*
X60940000Y-51260000D03*
X60940000Y-53800000D03*
X58400000Y-51260000D03*
D12*
X58400000Y-53800000D03*
D13*
X114554000Y-58928000D03*
X108204000Y-58928000D03*
X115290600Y-65303400D03*
X92735400Y-61393100D03*
X92710000Y-58115200D03*
X109982000Y-57658000D03*
X99580400Y-61417200D03*
X99568000Y-58115200D03*
D14*
X114300000Y-58928000D02*
X108204000Y-58928000D01*
X114300000Y-58928000D02*
X114554000Y-58928000D01*
X114554000Y-58928000D02*
X114554000Y-58928000D01*
X108204000Y-58928000D02*
X108204000Y-58928000D01*
D15*
X107924600Y-60223400D02*
X122377200Y-60223400D01*
X107696000Y-60452000D02*
X107924600Y-60223400D01*
X104140000Y-58928000D02*
X105664000Y-60452000D01*
X105664000Y-60452000D02*
X107696000Y-60452000D01*
D16*
X122377200Y-65303400D02*
X115341400Y-65303400D01*
D15*
X92710000Y-61367700D02*
X92735400Y-61393100D01*
X92710000Y-58115200D02*
X92710000Y-61367700D01*
X120421400Y-57683400D02*
X122377200Y-57683400D01*
X122377200Y-57683400D02*
X110007400Y-57683400D01*
X99568000Y-61404800D02*
X99580400Y-61417200D01*
X99568000Y-58115200D02*
X99568000Y-61404800D01*
D17*
G36*
X109542907Y-49993425D02*
G01*
X109093425Y-50442907D01*
X108740270Y-50971442D01*
X108497012Y-51558719D01*
X108373000Y-52182168D01*
X108373000Y-52817832D01*
X108497012Y-53441281D01*
X108740270Y-54028558D01*
X109093425Y-54557093D01*
X109542907Y-55006575D01*
X110071442Y-55359730D01*
X110658719Y-55602988D01*
X111282168Y-55727000D01*
X111917832Y-55727000D01*
X112541281Y-55602988D01*
X113128558Y-55359730D01*
X113657093Y-55006575D01*
X114106575Y-54557093D01*
X114361599Y-54175421D01*
X114383923Y-56529925D01*
X114381031Y-56560275D01*
X114384538Y-56594766D01*
X114384558Y-56596855D01*
X114387820Y-56627037D01*
X114394183Y-56689618D01*
X114394799Y-56691627D01*
X114395026Y-56693724D01*
X114413888Y-56753845D01*
X114432316Y-56813908D01*
X114433313Y-56815760D01*
X114433944Y-56817770D01*
X114464141Y-56872998D01*
X114491286Y-56923400D01*
X110711111Y-56923400D01*
X110641774Y-56854063D01*
X110472256Y-56740795D01*
X110283898Y-56662774D01*
X110083939Y-56623000D01*
X109880061Y-56623000D01*
X109680102Y-56662774D01*
X109491744Y-56740795D01*
X109322226Y-56854063D01*
X109178063Y-56998226D01*
X109064795Y-57167744D01*
X108986774Y-57356102D01*
X108947000Y-57556061D01*
X108947000Y-57759939D01*
X108986774Y-57959898D01*
X109062618Y-58143000D01*
X108882711Y-58143000D01*
X108863774Y-58124063D01*
X108694256Y-58010795D01*
X108505898Y-57932774D01*
X108305939Y-57893000D01*
X108102061Y-57893000D01*
X107902102Y-57932774D01*
X107807761Y-57971852D01*
X107698374Y-57850498D01*
X107774180Y-57827502D01*
X107884494Y-57768537D01*
X107981185Y-57689185D01*
X108060537Y-57592494D01*
X108119502Y-57482180D01*
X108155812Y-57362482D01*
X108168072Y-57238000D01*
X108168072Y-55538000D01*
X108155812Y-55413518D01*
X108119502Y-55293820D01*
X108060537Y-55183506D01*
X107981185Y-55086815D01*
X107884494Y-55007463D01*
X107774180Y-54948498D01*
X107654482Y-54912188D01*
X107642303Y-54910989D01*
X107660269Y-54897588D01*
X107855178Y-54681355D01*
X108004157Y-54431252D01*
X108101481Y-54156891D01*
X107980814Y-53927000D01*
X106787000Y-53927000D01*
X106787000Y-53947000D01*
X106533000Y-53947000D01*
X106533000Y-53927000D01*
X106513000Y-53927000D01*
X106513000Y-53673000D01*
X106533000Y-53673000D01*
X106533000Y-53653000D01*
X106787000Y-53653000D01*
X106787000Y-53673000D01*
X107980814Y-53673000D01*
X108101481Y-53443109D01*
X108004157Y-53168748D01*
X107855178Y-52918645D01*
X107660269Y-52702412D01*
X107430594Y-52531100D01*
X107606632Y-52413475D01*
X107813475Y-52206632D01*
X107975990Y-51963411D01*
X108087932Y-51693158D01*
X108145000Y-51406260D01*
X108145000Y-51113740D01*
X108087932Y-50826842D01*
X107975990Y-50556589D01*
X107813475Y-50313368D01*
X107606632Y-50106525D01*
X107363411Y-49944010D01*
X107093158Y-49832068D01*
X106806260Y-49775000D01*
X106513740Y-49775000D01*
X106226842Y-49832068D01*
X105956589Y-49944010D01*
X105713368Y-50106525D01*
X105506525Y-50313368D01*
X105390000Y-50487760D01*
X105273475Y-50313368D01*
X105066632Y-50106525D01*
X104823411Y-49944010D01*
X104553158Y-49832068D01*
X104266260Y-49775000D01*
X103973740Y-49775000D01*
X103686842Y-49832068D01*
X103416589Y-49944010D01*
X103173368Y-50106525D01*
X102966525Y-50313368D01*
X102850000Y-50487760D01*
X102733475Y-50313368D01*
X102526632Y-50106525D01*
X102283411Y-49944010D01*
X102013158Y-49832068D01*
X101726260Y-49775000D01*
X101433740Y-49775000D01*
X101146842Y-49832068D01*
X100876589Y-49944010D01*
X100633368Y-50106525D01*
X100426525Y-50313368D01*
X100304805Y-50495534D01*
X100235178Y-50378645D01*
X100040269Y-50162412D01*
X99806920Y-49988359D01*
X99544099Y-49863175D01*
X99396890Y-49818524D01*
X99167000Y-49939845D01*
X99167000Y-51133000D01*
X99187000Y-51133000D01*
X99187000Y-51387000D01*
X99167000Y-51387000D01*
X99167000Y-51407000D01*
X98913000Y-51407000D01*
X98913000Y-51387000D01*
X98893000Y-51387000D01*
X98893000Y-51133000D01*
X98913000Y-51133000D01*
X98913000Y-49939845D01*
X98683110Y-49818524D01*
X98535901Y-49863175D01*
X98273080Y-49988359D01*
X98039731Y-50162412D01*
X97844822Y-50378645D01*
X97775195Y-50495534D01*
X97653475Y-50313368D01*
X97446632Y-50106525D01*
X97203411Y-49944010D01*
X96933158Y-49832068D01*
X96646260Y-49775000D01*
X96353740Y-49775000D01*
X96066842Y-49832068D01*
X95796589Y-49944010D01*
X95553368Y-50106525D01*
X95346525Y-50313368D01*
X95224805Y-50495534D01*
X95155178Y-50378645D01*
X94960269Y-50162412D01*
X94726920Y-49988359D01*
X94464099Y-49863175D01*
X94316890Y-49818524D01*
X94087000Y-49939845D01*
X94087000Y-51133000D01*
X94107000Y-51133000D01*
X94107000Y-51387000D01*
X94087000Y-51387000D01*
X94087000Y-51407000D01*
X93833000Y-51407000D01*
X93833000Y-51387000D01*
X93813000Y-51387000D01*
X93813000Y-51133000D01*
X93833000Y-51133000D01*
X93833000Y-49939845D01*
X93603110Y-49818524D01*
X93455901Y-49863175D01*
X93193080Y-49988359D01*
X92959731Y-50162412D01*
X92764822Y-50378645D01*
X92695195Y-50495534D01*
X92573475Y-50313368D01*
X92366632Y-50106525D01*
X92123411Y-49944010D01*
X91853158Y-49832068D01*
X91566260Y-49775000D01*
X91273740Y-49775000D01*
X90986842Y-49832068D01*
X90716589Y-49944010D01*
X90473368Y-50106525D01*
X90266525Y-50313368D01*
X90150000Y-50487760D01*
X90033475Y-50313368D01*
X89826632Y-50106525D01*
X89583411Y-49944010D01*
X89313158Y-49832068D01*
X89026260Y-49775000D01*
X88733740Y-49775000D01*
X88446842Y-49832068D01*
X88176589Y-49944010D01*
X87933368Y-50106525D01*
X87726525Y-50313368D01*
X87610000Y-50487760D01*
X87493475Y-50313368D01*
X87286632Y-50106525D01*
X87043411Y-49944010D01*
X86773158Y-49832068D01*
X86486260Y-49775000D01*
X86193740Y-49775000D01*
X85906842Y-49832068D01*
X85636589Y-49944010D01*
X85393368Y-50106525D01*
X85186525Y-50313368D01*
X85070000Y-50487760D01*
X84953475Y-50313368D01*
X84746632Y-50106525D01*
X84503411Y-49944010D01*
X84233158Y-49832068D01*
X83946260Y-49775000D01*
X83653740Y-49775000D01*
X83366842Y-49832068D01*
X83096589Y-49944010D01*
X82853368Y-50106525D01*
X82646525Y-50313368D01*
X82524805Y-50495534D01*
X82455178Y-50378645D01*
X82260269Y-50162412D01*
X82026920Y-49988359D01*
X81764099Y-49863175D01*
X81616890Y-49818524D01*
X81387000Y-49939845D01*
X81387000Y-51133000D01*
X81407000Y-51133000D01*
X81407000Y-51387000D01*
X81387000Y-51387000D01*
X81387000Y-51407000D01*
X81133000Y-51407000D01*
X81133000Y-51387000D01*
X81113000Y-51387000D01*
X81113000Y-51133000D01*
X81133000Y-51133000D01*
X81133000Y-49939845D01*
X80903110Y-49818524D01*
X80755901Y-49863175D01*
X80493080Y-49988359D01*
X80259731Y-50162412D01*
X80064822Y-50378645D01*
X79995195Y-50495534D01*
X79873475Y-50313368D01*
X79666632Y-50106525D01*
X79423411Y-49944010D01*
X79153158Y-49832068D01*
X78866260Y-49775000D01*
X78573740Y-49775000D01*
X78286842Y-49832068D01*
X78016589Y-49944010D01*
X77773368Y-50106525D01*
X77566525Y-50313368D01*
X77450000Y-50487760D01*
X77333475Y-50313368D01*
X77126632Y-50106525D01*
X76883411Y-49944010D01*
X76613158Y-49832068D01*
X76326260Y-49775000D01*
X76033740Y-49775000D01*
X75746842Y-49832068D01*
X75476589Y-49944010D01*
X75233368Y-50106525D01*
X75026525Y-50313368D01*
X74910000Y-50487760D01*
X74793475Y-50313368D01*
X74586632Y-50106525D01*
X74343411Y-49944010D01*
X74073158Y-49832068D01*
X73786260Y-49775000D01*
X73493740Y-49775000D01*
X73206842Y-49832068D01*
X72936589Y-49944010D01*
X72693368Y-50106525D01*
X72486525Y-50313368D01*
X72370000Y-50487760D01*
X72253475Y-50313368D01*
X72046632Y-50106525D01*
X71803411Y-49944010D01*
X71533158Y-49832068D01*
X71246260Y-49775000D01*
X70953740Y-49775000D01*
X70666842Y-49832068D01*
X70396589Y-49944010D01*
X70153368Y-50106525D01*
X69946525Y-50313368D01*
X69830000Y-50487760D01*
X69713475Y-50313368D01*
X69506632Y-50106525D01*
X69263411Y-49944010D01*
X68993158Y-49832068D01*
X68706260Y-49775000D01*
X68413740Y-49775000D01*
X68126842Y-49832068D01*
X67856589Y-49944010D01*
X67613368Y-50106525D01*
X67406525Y-50313368D01*
X67290000Y-50487760D01*
X67173475Y-50313368D01*
X66966632Y-50106525D01*
X66723411Y-49944010D01*
X66453158Y-49832068D01*
X66166260Y-49775000D01*
X65873740Y-49775000D01*
X65586842Y-49832068D01*
X65316589Y-49944010D01*
X65073368Y-50106525D01*
X64866525Y-50313368D01*
X64744805Y-50495534D01*
X64675178Y-50378645D01*
X64480269Y-50162412D01*
X64246920Y-49988359D01*
X63984099Y-49863175D01*
X63836890Y-49818524D01*
X63607000Y-49939845D01*
X63607000Y-51133000D01*
X63627000Y-51133000D01*
X63627000Y-51387000D01*
X63607000Y-51387000D01*
X63607000Y-51407000D01*
X63353000Y-51407000D01*
X63353000Y-51387000D01*
X63333000Y-51387000D01*
X63333000Y-51133000D01*
X63353000Y-51133000D01*
X63353000Y-49939845D01*
X63123110Y-49818524D01*
X62975901Y-49863175D01*
X62713080Y-49988359D01*
X62479731Y-50162412D01*
X62284822Y-50378645D01*
X62215195Y-50495534D01*
X62093475Y-50313368D01*
X61886632Y-50106525D01*
X61643411Y-49944010D01*
X61373158Y-49832068D01*
X61086260Y-49775000D01*
X60793740Y-49775000D01*
X60506842Y-49832068D01*
X60236589Y-49944010D01*
X59993368Y-50106525D01*
X59786525Y-50313368D01*
X59670000Y-50487760D01*
X59553475Y-50313368D01*
X59346632Y-50106525D01*
X59103411Y-49944010D01*
X58833158Y-49832068D01*
X58546260Y-49775000D01*
X58253740Y-49775000D01*
X57966842Y-49832068D01*
X57696589Y-49944010D01*
X57453368Y-50106525D01*
X57246525Y-50313368D01*
X57084010Y-50556589D01*
X56972068Y-50826842D01*
X56915000Y-51113740D01*
X56915000Y-51406260D01*
X56972068Y-51693158D01*
X57084010Y-51963411D01*
X57246525Y-52206632D01*
X57378380Y-52338487D01*
X57305820Y-52360498D01*
X57195506Y-52419463D01*
X57098815Y-52498815D01*
X57019463Y-52595506D01*
X56960498Y-52705820D01*
X56924188Y-52825518D01*
X56911928Y-52950000D01*
X56911928Y-54650000D01*
X56924188Y-54774482D01*
X56960498Y-54894180D01*
X57019463Y-55004494D01*
X57098815Y-55101185D01*
X57195506Y-55180537D01*
X57305820Y-55239502D01*
X57425518Y-55275812D01*
X57550000Y-55288072D01*
X59250000Y-55288072D01*
X59374482Y-55275812D01*
X59494180Y-55239502D01*
X59604494Y-55180537D01*
X59701185Y-55101185D01*
X59780537Y-55004494D01*
X59839502Y-54894180D01*
X59861513Y-54821620D01*
X59993368Y-54953475D01*
X60236589Y-55115990D01*
X60506842Y-55227932D01*
X60793740Y-55285000D01*
X61086260Y-55285000D01*
X61373158Y-55227932D01*
X61643411Y-55115990D01*
X61886632Y-54953475D01*
X62093475Y-54746632D01*
X62210000Y-54572240D01*
X62326525Y-54746632D01*
X62533368Y-54953475D01*
X62776589Y-55115990D01*
X63046842Y-55227932D01*
X63333740Y-55285000D01*
X63626260Y-55285000D01*
X63913158Y-55227932D01*
X64183411Y-55115990D01*
X64426632Y-54953475D01*
X64633475Y-54746632D01*
X64750000Y-54572240D01*
X64866525Y-54746632D01*
X65073368Y-54953475D01*
X65316589Y-55115990D01*
X65586842Y-55227932D01*
X65873740Y-55285000D01*
X66166260Y-55285000D01*
X66453158Y-55227932D01*
X66723411Y-55115990D01*
X66966632Y-54953475D01*
X67173475Y-54746632D01*
X67290000Y-54572240D01*
X67406525Y-54746632D01*
X67613368Y-54953475D01*
X67856589Y-55115990D01*
X68126842Y-55227932D01*
X68413740Y-55285000D01*
X68706260Y-55285000D01*
X68993158Y-55227932D01*
X69263411Y-55115990D01*
X69506632Y-54953475D01*
X69713475Y-54746632D01*
X69830000Y-54572240D01*
X69946525Y-54746632D01*
X70153368Y-54953475D01*
X70396589Y-55115990D01*
X70666842Y-55227932D01*
X70953740Y-55285000D01*
X71246260Y-55285000D01*
X71533158Y-55227932D01*
X71803411Y-55115990D01*
X72046632Y-54953475D01*
X72253475Y-54746632D01*
X72370000Y-54572240D01*
X72486525Y-54746632D01*
X72693368Y-54953475D01*
X72936589Y-55115990D01*
X73206842Y-55227932D01*
X73493740Y-55285000D01*
X73786260Y-55285000D01*
X74073158Y-55227932D01*
X74343411Y-55115990D01*
X74586632Y-54953475D01*
X74793475Y-54746632D01*
X74910000Y-54572240D01*
X75026525Y-54746632D01*
X75233368Y-54953475D01*
X75476589Y-55115990D01*
X75746842Y-55227932D01*
X76033740Y-55285000D01*
X76326260Y-55285000D01*
X76613158Y-55227932D01*
X76883411Y-55115990D01*
X77126632Y-54953475D01*
X77333475Y-54746632D01*
X77450000Y-54572240D01*
X77566525Y-54746632D01*
X77773368Y-54953475D01*
X78016589Y-55115990D01*
X78286842Y-55227932D01*
X78573740Y-55285000D01*
X78866260Y-55285000D01*
X79153158Y-55227932D01*
X79423411Y-55115990D01*
X79666632Y-54953475D01*
X79873475Y-54746632D01*
X79990000Y-54572240D01*
X80106525Y-54746632D01*
X80313368Y-54953475D01*
X80556589Y-55115990D01*
X80826842Y-55227932D01*
X81113740Y-55285000D01*
X81406260Y-55285000D01*
X81693158Y-55227932D01*
X81963411Y-55115990D01*
X82206632Y-54953475D01*
X82413475Y-54746632D01*
X82530000Y-54572240D01*
X82646525Y-54746632D01*
X82853368Y-54953475D01*
X83096589Y-55115990D01*
X83366842Y-55227932D01*
X83653740Y-55285000D01*
X83946260Y-55285000D01*
X84233158Y-55227932D01*
X84503411Y-55115990D01*
X84746632Y-54953475D01*
X84953475Y-54746632D01*
X85070000Y-54572240D01*
X85186525Y-54746632D01*
X85393368Y-54953475D01*
X85636589Y-55115990D01*
X85906842Y-55227932D01*
X86193740Y-55285000D01*
X86486260Y-55285000D01*
X86773158Y-55227932D01*
X87043411Y-55115990D01*
X87286632Y-54953475D01*
X87493475Y-54746632D01*
X87615195Y-54564466D01*
X87684822Y-54681355D01*
X87879731Y-54897588D01*
X88113080Y-55071641D01*
X88375901Y-55196825D01*
X88523110Y-55241476D01*
X88753000Y-55120155D01*
X88753000Y-53927000D01*
X88733000Y-53927000D01*
X88733000Y-53673000D01*
X88753000Y-53673000D01*
X88753000Y-53653000D01*
X89007000Y-53653000D01*
X89007000Y-53673000D01*
X89027000Y-53673000D01*
X89027000Y-53927000D01*
X89007000Y-53927000D01*
X89007000Y-55120155D01*
X89236890Y-55241476D01*
X89384099Y-55196825D01*
X89646920Y-55071641D01*
X89880269Y-54897588D01*
X90075178Y-54681355D01*
X90144805Y-54564466D01*
X90266525Y-54746632D01*
X90473368Y-54953475D01*
X90716589Y-55115990D01*
X90986842Y-55227932D01*
X91273740Y-55285000D01*
X91566260Y-55285000D01*
X91853158Y-55227932D01*
X92123411Y-55115990D01*
X92366632Y-54953475D01*
X92573475Y-54746632D01*
X92690000Y-54572240D01*
X92806525Y-54746632D01*
X93013368Y-54953475D01*
X93256589Y-55115990D01*
X93526842Y-55227932D01*
X93813740Y-55285000D01*
X94106260Y-55285000D01*
X94393158Y-55227932D01*
X94663411Y-55115990D01*
X94906632Y-54953475D01*
X95113475Y-54746632D01*
X95230000Y-54572240D01*
X95346525Y-54746632D01*
X95553368Y-54953475D01*
X95796589Y-55115990D01*
X96066842Y-55227932D01*
X96353740Y-55285000D01*
X96646260Y-55285000D01*
X96933158Y-55227932D01*
X97203411Y-55115990D01*
X97446632Y-54953475D01*
X97653475Y-54746632D01*
X97770000Y-54572240D01*
X97886525Y-54746632D01*
X98093368Y-54953475D01*
X98336589Y-55115990D01*
X98606842Y-55227932D01*
X98893740Y-55285000D01*
X99186260Y-55285000D01*
X99473158Y-55227932D01*
X99743411Y-55115990D01*
X99986632Y-54953475D01*
X100193475Y-54746632D01*
X100310000Y-54572240D01*
X100426525Y-54746632D01*
X100633368Y-54953475D01*
X100876589Y-55115990D01*
X101146842Y-55227932D01*
X101433740Y-55285000D01*
X101726260Y-55285000D01*
X102013158Y-55227932D01*
X102283411Y-55115990D01*
X102526632Y-54953475D01*
X102733475Y-54746632D01*
X102850000Y-54572240D01*
X102966525Y-54746632D01*
X103173368Y-54953475D01*
X103393679Y-55100682D01*
X103193368Y-55234525D01*
X102986525Y-55441368D01*
X102824010Y-55684589D01*
X102712068Y-55954842D01*
X102655000Y-56241740D01*
X102655000Y-56534260D01*
X102712068Y-56821158D01*
X102824010Y-57091411D01*
X102986525Y-57334632D01*
X103193368Y-57541475D01*
X103367760Y-57658000D01*
X103193368Y-57774525D01*
X102986525Y-57981368D01*
X102824010Y-58224589D01*
X102712068Y-58494842D01*
X102655000Y-58781740D01*
X102655000Y-59074260D01*
X102712068Y-59361158D01*
X102824010Y-59631411D01*
X102986525Y-59874632D01*
X103193368Y-60081475D01*
X103436589Y-60243990D01*
X103706842Y-60355932D01*
X103993740Y-60413000D01*
X104286260Y-60413000D01*
X104506407Y-60369210D01*
X105100205Y-60963008D01*
X105123999Y-60992001D01*
X105152992Y-61015795D01*
X105152996Y-61015799D01*
X105223685Y-61073811D01*
X105239724Y-61086974D01*
X105371753Y-61157546D01*
X105515014Y-61201003D01*
X105626667Y-61212000D01*
X105626676Y-61212000D01*
X105663999Y-61215676D01*
X105701322Y-61212000D01*
X107658678Y-61212000D01*
X107696000Y-61215676D01*
X107733322Y-61212000D01*
X107733333Y-61212000D01*
X107844986Y-61201003D01*
X107988247Y-61157546D01*
X108120276Y-61086974D01*
X108236001Y-60992001D01*
X108243060Y-60983400D01*
X115815429Y-60983400D01*
X115816244Y-60986086D01*
X115909861Y-61161233D01*
X116035850Y-61314750D01*
X116189367Y-61440739D01*
X116287890Y-61493400D01*
X116189367Y-61546061D01*
X116035850Y-61672050D01*
X115909861Y-61825567D01*
X115816244Y-62000714D01*
X115758594Y-62190759D01*
X115739128Y-62388400D01*
X115739128Y-63138400D01*
X115758594Y-63336041D01*
X115816244Y-63526086D01*
X115909861Y-63701233D01*
X116035850Y-63854750D01*
X116159178Y-63955963D01*
X116133020Y-63963898D01*
X116022706Y-64022863D01*
X115926015Y-64102215D01*
X115846663Y-64198906D01*
X115787698Y-64309220D01*
X115751388Y-64428918D01*
X115739128Y-64553400D01*
X115742200Y-65017650D01*
X115900950Y-65176400D01*
X116432739Y-65176400D01*
X116432614Y-65430400D01*
X115900950Y-65430400D01*
X115742200Y-65589150D01*
X115739128Y-66053400D01*
X115751388Y-66177882D01*
X115787698Y-66297580D01*
X115846663Y-66407894D01*
X115926015Y-66504585D01*
X116022706Y-66583937D01*
X116133020Y-66642902D01*
X116252718Y-66679212D01*
X116377200Y-66691472D01*
X116431994Y-66691443D01*
X116429984Y-70783021D01*
X115045855Y-70785072D01*
X115014105Y-70781927D01*
X114981012Y-70785168D01*
X114980344Y-70785169D01*
X114948938Y-70788309D01*
X114884716Y-70794599D01*
X114884066Y-70794796D01*
X114883394Y-70794863D01*
X114821856Y-70813630D01*
X114760285Y-70832271D01*
X114759689Y-70832589D01*
X114759040Y-70832787D01*
X114702440Y-70863148D01*
X114645594Y-70893492D01*
X114645067Y-70893924D01*
X114644474Y-70894242D01*
X114594966Y-70934995D01*
X114545051Y-70975914D01*
X114544621Y-70976438D01*
X114544098Y-70976868D01*
X114503396Y-71026614D01*
X114462518Y-71076367D01*
X114462198Y-71076965D01*
X114461770Y-71077488D01*
X114431605Y-71134125D01*
X114401170Y-71190990D01*
X114400972Y-71191640D01*
X114400655Y-71192236D01*
X114382118Y-71253670D01*
X114363362Y-71315379D01*
X114363295Y-71316054D01*
X114363100Y-71316701D01*
X114356903Y-71380586D01*
X114353758Y-71412338D01*
X114353758Y-71413013D01*
X114350548Y-71446102D01*
X114353722Y-71477845D01*
X114352383Y-73910785D01*
X114106575Y-73542907D01*
X113657093Y-73093425D01*
X113128558Y-72740270D01*
X112541281Y-72497012D01*
X111917832Y-72373000D01*
X111282168Y-72373000D01*
X110658719Y-72497012D01*
X110071442Y-72740270D01*
X109542907Y-73093425D01*
X109093425Y-73542907D01*
X108740270Y-74071442D01*
X108497012Y-74658719D01*
X108373000Y-75282168D01*
X108373000Y-75917832D01*
X108497012Y-76541281D01*
X108740270Y-77128558D01*
X109093425Y-77657093D01*
X109542907Y-78106575D01*
X109890064Y-78338538D01*
X55181431Y-78324401D01*
X55657093Y-78006575D01*
X56106575Y-77557093D01*
X56459730Y-77028558D01*
X56702988Y-76441281D01*
X56827000Y-75817832D01*
X56827000Y-75182168D01*
X56702988Y-74558719D01*
X56459730Y-73971442D01*
X56106575Y-73442907D01*
X55657093Y-72993425D01*
X55128558Y-72640270D01*
X54541281Y-72397012D01*
X53917832Y-72273000D01*
X53282168Y-72273000D01*
X52658719Y-72397012D01*
X52071442Y-72640270D01*
X51542907Y-72993425D01*
X51093425Y-73442907D01*
X50740270Y-73971442D01*
X50668415Y-74144914D01*
X50675546Y-58013261D01*
X91675000Y-58013261D01*
X91675000Y-58217139D01*
X91714774Y-58417098D01*
X91792795Y-58605456D01*
X91906063Y-58774974D01*
X91950000Y-58818911D01*
X91950001Y-60714788D01*
X91931463Y-60733326D01*
X91818195Y-60902844D01*
X91740174Y-61091202D01*
X91700400Y-61291161D01*
X91700400Y-61495039D01*
X91740174Y-61694998D01*
X91818195Y-61883356D01*
X91931463Y-62052874D01*
X92075626Y-62197037D01*
X92245144Y-62310305D01*
X92433502Y-62388326D01*
X92633461Y-62428100D01*
X92837339Y-62428100D01*
X93037298Y-62388326D01*
X93225656Y-62310305D01*
X93395174Y-62197037D01*
X93539337Y-62052874D01*
X93652605Y-61883356D01*
X93730626Y-61694998D01*
X93770400Y-61495039D01*
X93770400Y-61291161D01*
X93730626Y-61091202D01*
X93652605Y-60902844D01*
X93539337Y-60733326D01*
X93470000Y-60663989D01*
X93470000Y-58818911D01*
X93513937Y-58774974D01*
X93627205Y-58605456D01*
X93705226Y-58417098D01*
X93745000Y-58217139D01*
X93745000Y-58013261D01*
X98533000Y-58013261D01*
X98533000Y-58217139D01*
X98572774Y-58417098D01*
X98650795Y-58605456D01*
X98764063Y-58774974D01*
X98808000Y-58818911D01*
X98808001Y-60725888D01*
X98776463Y-60757426D01*
X98663195Y-60926944D01*
X98585174Y-61115302D01*
X98545400Y-61315261D01*
X98545400Y-61519139D01*
X98585174Y-61719098D01*
X98663195Y-61907456D01*
X98776463Y-62076974D01*
X98920626Y-62221137D01*
X99090144Y-62334405D01*
X99278502Y-62412426D01*
X99478461Y-62452200D01*
X99682339Y-62452200D01*
X99882298Y-62412426D01*
X100070656Y-62334405D01*
X100240174Y-62221137D01*
X100384337Y-62076974D01*
X100497605Y-61907456D01*
X100575626Y-61719098D01*
X100615400Y-61519139D01*
X100615400Y-61315261D01*
X100575626Y-61115302D01*
X100497605Y-60926944D01*
X100384337Y-60757426D01*
X100328000Y-60701089D01*
X100328000Y-58818911D01*
X100371937Y-58774974D01*
X100485205Y-58605456D01*
X100563226Y-58417098D01*
X100603000Y-58217139D01*
X100603000Y-58013261D01*
X100563226Y-57813302D01*
X100485205Y-57624944D01*
X100371937Y-57455426D01*
X100227774Y-57311263D01*
X100058256Y-57197995D01*
X99869898Y-57119974D01*
X99669939Y-57080200D01*
X99466061Y-57080200D01*
X99266102Y-57119974D01*
X99077744Y-57197995D01*
X98908226Y-57311263D01*
X98764063Y-57455426D01*
X98650795Y-57624944D01*
X98572774Y-57813302D01*
X98533000Y-58013261D01*
X93745000Y-58013261D01*
X93705226Y-57813302D01*
X93627205Y-57624944D01*
X93513937Y-57455426D01*
X93369774Y-57311263D01*
X93200256Y-57197995D01*
X93011898Y-57119974D01*
X92811939Y-57080200D01*
X92608061Y-57080200D01*
X92408102Y-57119974D01*
X92219744Y-57197995D01*
X92050226Y-57311263D01*
X91906063Y-57455426D01*
X91792795Y-57624944D01*
X91714774Y-57813302D01*
X91675000Y-58013261D01*
X50675546Y-58013261D01*
X50677283Y-54083951D01*
X50993425Y-54557093D01*
X51442907Y-55006575D01*
X51971442Y-55359730D01*
X52558719Y-55602988D01*
X53182168Y-55727000D01*
X53817832Y-55727000D01*
X54441281Y-55602988D01*
X55028558Y-55359730D01*
X55557093Y-55006575D01*
X56006575Y-54557093D01*
X56359730Y-54028558D01*
X56602988Y-53441281D01*
X56727000Y-52817832D01*
X56727000Y-52182168D01*
X56602988Y-51558719D01*
X56359730Y-50971442D01*
X56006575Y-50442907D01*
X55557093Y-49993425D01*
X55067851Y-49666525D01*
X110041578Y-49660224D01*
X109542907Y-49993425D01*
G37*
X109542907Y-49993425D02*
X109093425Y-50442907D01*
X108740270Y-50971442D01*
X108497012Y-51558719D01*
X108373000Y-52182168D01*
X108373000Y-52817832D01*
X108497012Y-53441281D01*
X108740270Y-54028558D01*
X109093425Y-54557093D01*
X109542907Y-55006575D01*
X110071442Y-55359730D01*
X110658719Y-55602988D01*
X111282168Y-55727000D01*
X111917832Y-55727000D01*
X112541281Y-55602988D01*
X113128558Y-55359730D01*
X113657093Y-55006575D01*
X114106575Y-54557093D01*
X114361599Y-54175421D01*
X114383923Y-56529925D01*
X114381031Y-56560275D01*
X114384538Y-56594766D01*
X114384558Y-56596855D01*
X114387820Y-56627037D01*
X114394183Y-56689618D01*
X114394799Y-56691627D01*
X114395026Y-56693724D01*
X114413888Y-56753845D01*
X114432316Y-56813908D01*
X114433313Y-56815760D01*
X114433944Y-56817770D01*
X114464141Y-56872998D01*
X114491286Y-56923400D01*
X110711111Y-56923400D01*
X110641774Y-56854063D01*
X110472256Y-56740795D01*
X110283898Y-56662774D01*
X110083939Y-56623000D01*
X109880061Y-56623000D01*
X109680102Y-56662774D01*
X109491744Y-56740795D01*
X109322226Y-56854063D01*
X109178063Y-56998226D01*
X109064795Y-57167744D01*
X108986774Y-57356102D01*
X108947000Y-57556061D01*
X108947000Y-57759939D01*
X108986774Y-57959898D01*
X109062618Y-58143000D01*
X108882711Y-58143000D01*
X108863774Y-58124063D01*
X108694256Y-58010795D01*
X108505898Y-57932774D01*
X108305939Y-57893000D01*
X108102061Y-57893000D01*
X107902102Y-57932774D01*
X107807761Y-57971852D01*
X107698374Y-57850498D01*
X107774180Y-57827502D01*
X107884494Y-57768537D01*
X107981185Y-57689185D01*
X108060537Y-57592494D01*
X108119502Y-57482180D01*
X108155812Y-57362482D01*
X108168072Y-57238000D01*
X108168072Y-55538000D01*
X108155812Y-55413518D01*
X108119502Y-55293820D01*
X108060537Y-55183506D01*
X107981185Y-55086815D01*
X107884494Y-55007463D01*
X107774180Y-54948498D01*
X107654482Y-54912188D01*
X107642303Y-54910989D01*
X107660269Y-54897588D01*
X107855178Y-54681355D01*
X108004157Y-54431252D01*
X108101481Y-54156891D01*
X107980814Y-53927000D01*
X106787000Y-53927000D01*
X106787000Y-53947000D01*
X106533000Y-53947000D01*
X106533000Y-53927000D01*
X106513000Y-53927000D01*
X106513000Y-53673000D01*
X106533000Y-53673000D01*
X106533000Y-53653000D01*
X106787000Y-53653000D01*
X106787000Y-53673000D01*
X107980814Y-53673000D01*
X108101481Y-53443109D01*
X108004157Y-53168748D01*
X107855178Y-52918645D01*
X107660269Y-52702412D01*
X107430594Y-52531100D01*
X107606632Y-52413475D01*
X107813475Y-52206632D01*
X107975990Y-51963411D01*
X108087932Y-51693158D01*
X108145000Y-51406260D01*
X108145000Y-51113740D01*
X108087932Y-50826842D01*
X107975990Y-50556589D01*
X107813475Y-50313368D01*
X107606632Y-50106525D01*
X107363411Y-49944010D01*
X107093158Y-49832068D01*
X106806260Y-49775000D01*
X106513740Y-49775000D01*
X106226842Y-49832068D01*
X105956589Y-49944010D01*
X105713368Y-50106525D01*
X105506525Y-50313368D01*
X105390000Y-50487760D01*
X105273475Y-50313368D01*
X105066632Y-50106525D01*
X104823411Y-49944010D01*
X104553158Y-49832068D01*
X104266260Y-49775000D01*
X103973740Y-49775000D01*
X103686842Y-49832068D01*
X103416589Y-49944010D01*
X103173368Y-50106525D01*
X102966525Y-50313368D01*
X102850000Y-50487760D01*
X102733475Y-50313368D01*
X102526632Y-50106525D01*
X102283411Y-49944010D01*
X102013158Y-49832068D01*
X101726260Y-49775000D01*
X101433740Y-49775000D01*
X101146842Y-49832068D01*
X100876589Y-49944010D01*
X100633368Y-50106525D01*
X100426525Y-50313368D01*
X100304805Y-50495534D01*
X100235178Y-50378645D01*
X100040269Y-50162412D01*
X99806920Y-49988359D01*
X99544099Y-49863175D01*
X99396890Y-49818524D01*
X99167000Y-49939845D01*
X99167000Y-51133000D01*
X99187000Y-51133000D01*
X99187000Y-51387000D01*
X99167000Y-51387000D01*
X99167000Y-51407000D01*
X98913000Y-51407000D01*
X98913000Y-51387000D01*
X98893000Y-51387000D01*
X98893000Y-51133000D01*
X98913000Y-51133000D01*
X98913000Y-49939845D01*
X98683110Y-49818524D01*
X98535901Y-49863175D01*
X98273080Y-49988359D01*
X98039731Y-50162412D01*
X97844822Y-50378645D01*
X97775195Y-50495534D01*
X97653475Y-50313368D01*
X97446632Y-50106525D01*
X97203411Y-49944010D01*
X96933158Y-49832068D01*
X96646260Y-49775000D01*
X96353740Y-49775000D01*
X96066842Y-49832068D01*
X95796589Y-49944010D01*
X95553368Y-50106525D01*
X95346525Y-50313368D01*
X95224805Y-50495534D01*
X95155178Y-50378645D01*
X94960269Y-50162412D01*
X94726920Y-49988359D01*
X94464099Y-49863175D01*
X94316890Y-49818524D01*
X94087000Y-49939845D01*
X94087000Y-51133000D01*
X94107000Y-51133000D01*
X94107000Y-51387000D01*
X94087000Y-51387000D01*
X94087000Y-51407000D01*
X93833000Y-51407000D01*
X93833000Y-51387000D01*
X93813000Y-51387000D01*
X93813000Y-51133000D01*
X93833000Y-51133000D01*
X93833000Y-49939845D01*
X93603110Y-49818524D01*
X93455901Y-49863175D01*
X93193080Y-49988359D01*
X92959731Y-50162412D01*
X92764822Y-50378645D01*
X92695195Y-50495534D01*
X92573475Y-50313368D01*
X92366632Y-50106525D01*
X92123411Y-49944010D01*
X91853158Y-49832068D01*
X91566260Y-49775000D01*
X91273740Y-49775000D01*
X90986842Y-49832068D01*
X90716589Y-49944010D01*
X90473368Y-50106525D01*
X90266525Y-50313368D01*
X90150000Y-50487760D01*
X90033475Y-50313368D01*
X89826632Y-50106525D01*
X89583411Y-49944010D01*
X89313158Y-49832068D01*
X89026260Y-49775000D01*
X88733740Y-49775000D01*
X88446842Y-49832068D01*
X88176589Y-49944010D01*
X87933368Y-50106525D01*
X87726525Y-50313368D01*
X87610000Y-50487760D01*
X87493475Y-50313368D01*
X87286632Y-50106525D01*
X87043411Y-49944010D01*
X86773158Y-49832068D01*
X86486260Y-49775000D01*
X86193740Y-49775000D01*
X85906842Y-49832068D01*
X85636589Y-49944010D01*
X85393368Y-50106525D01*
X85186525Y-50313368D01*
X85070000Y-50487760D01*
X84953475Y-50313368D01*
X84746632Y-50106525D01*
X84503411Y-49944010D01*
X84233158Y-49832068D01*
X83946260Y-49775000D01*
X83653740Y-49775000D01*
X83366842Y-49832068D01*
X83096589Y-49944010D01*
X82853368Y-50106525D01*
X82646525Y-50313368D01*
X82524805Y-50495534D01*
X82455178Y-50378645D01*
X82260269Y-50162412D01*
X82026920Y-49988359D01*
X81764099Y-49863175D01*
X81616890Y-49818524D01*
X81387000Y-49939845D01*
X81387000Y-51133000D01*
X81407000Y-51133000D01*
X81407000Y-51387000D01*
X81387000Y-51387000D01*
X81387000Y-51407000D01*
X81133000Y-51407000D01*
X81133000Y-51387000D01*
X81113000Y-51387000D01*
X81113000Y-51133000D01*
X81133000Y-51133000D01*
X81133000Y-49939845D01*
X80903110Y-49818524D01*
X80755901Y-49863175D01*
X80493080Y-49988359D01*
X80259731Y-50162412D01*
X80064822Y-50378645D01*
X79995195Y-50495534D01*
X79873475Y-50313368D01*
X79666632Y-50106525D01*
X79423411Y-49944010D01*
X79153158Y-49832068D01*
X78866260Y-49775000D01*
X78573740Y-49775000D01*
X78286842Y-49832068D01*
X78016589Y-49944010D01*
X77773368Y-50106525D01*
X77566525Y-50313368D01*
X77450000Y-50487760D01*
X77333475Y-50313368D01*
X77126632Y-50106525D01*
X76883411Y-49944010D01*
X76613158Y-49832068D01*
X76326260Y-49775000D01*
X76033740Y-49775000D01*
X75746842Y-49832068D01*
X75476589Y-49944010D01*
X75233368Y-50106525D01*
X75026525Y-50313368D01*
X74910000Y-50487760D01*
X74793475Y-50313368D01*
X74586632Y-50106525D01*
X74343411Y-49944010D01*
X74073158Y-49832068D01*
X73786260Y-49775000D01*
X73493740Y-49775000D01*
X73206842Y-49832068D01*
X72936589Y-49944010D01*
X72693368Y-50106525D01*
X72486525Y-50313368D01*
X72370000Y-50487760D01*
X72253475Y-50313368D01*
X72046632Y-50106525D01*
X71803411Y-49944010D01*
X71533158Y-49832068D01*
X71246260Y-49775000D01*
X70953740Y-49775000D01*
X70666842Y-49832068D01*
X70396589Y-49944010D01*
X70153368Y-50106525D01*
X69946525Y-50313368D01*
X69830000Y-50487760D01*
X69713475Y-50313368D01*
X69506632Y-50106525D01*
X69263411Y-49944010D01*
X68993158Y-49832068D01*
X68706260Y-49775000D01*
X68413740Y-49775000D01*
X68126842Y-49832068D01*
X67856589Y-49944010D01*
X67613368Y-50106525D01*
X67406525Y-50313368D01*
X67290000Y-50487760D01*
X67173475Y-50313368D01*
X66966632Y-50106525D01*
X66723411Y-49944010D01*
X66453158Y-49832068D01*
X66166260Y-49775000D01*
X65873740Y-49775000D01*
X65586842Y-49832068D01*
X65316589Y-49944010D01*
X65073368Y-50106525D01*
X64866525Y-50313368D01*
X64744805Y-50495534D01*
X64675178Y-50378645D01*
X64480269Y-50162412D01*
X64246920Y-49988359D01*
X63984099Y-49863175D01*
X63836890Y-49818524D01*
X63607000Y-49939845D01*
X63607000Y-51133000D01*
X63627000Y-51133000D01*
X63627000Y-51387000D01*
X63607000Y-51387000D01*
X63607000Y-51407000D01*
X63353000Y-51407000D01*
X63353000Y-51387000D01*
X63333000Y-51387000D01*
X63333000Y-51133000D01*
X63353000Y-51133000D01*
X63353000Y-49939845D01*
X63123110Y-49818524D01*
X62975901Y-49863175D01*
X62713080Y-49988359D01*
X62479731Y-50162412D01*
X62284822Y-50378645D01*
X62215195Y-50495534D01*
X62093475Y-50313368D01*
X61886632Y-50106525D01*
X61643411Y-49944010D01*
X61373158Y-49832068D01*
X61086260Y-49775000D01*
X60793740Y-49775000D01*
X60506842Y-49832068D01*
X60236589Y-49944010D01*
X59993368Y-50106525D01*
X59786525Y-50313368D01*
X59670000Y-50487760D01*
X59553475Y-50313368D01*
X59346632Y-50106525D01*
X59103411Y-49944010D01*
X58833158Y-49832068D01*
X58546260Y-49775000D01*
X58253740Y-49775000D01*
X57966842Y-49832068D01*
X57696589Y-49944010D01*
X57453368Y-50106525D01*
X57246525Y-50313368D01*
X57084010Y-50556589D01*
X56972068Y-50826842D01*
X56915000Y-51113740D01*
X56915000Y-51406260D01*
X56972068Y-51693158D01*
X57084010Y-51963411D01*
X57246525Y-52206632D01*
X57378380Y-52338487D01*
X57305820Y-52360498D01*
X57195506Y-52419463D01*
X57098815Y-52498815D01*
X57019463Y-52595506D01*
X56960498Y-52705820D01*
X56924188Y-52825518D01*
X56911928Y-52950000D01*
X56911928Y-54650000D01*
X56924188Y-54774482D01*
X56960498Y-54894180D01*
X57019463Y-55004494D01*
X57098815Y-55101185D01*
X57195506Y-55180537D01*
X57305820Y-55239502D01*
X57425518Y-55275812D01*
X57550000Y-55288072D01*
X59250000Y-55288072D01*
X59374482Y-55275812D01*
X59494180Y-55239502D01*
X59604494Y-55180537D01*
X59701185Y-55101185D01*
X59780537Y-55004494D01*
X59839502Y-54894180D01*
X59861513Y-54821620D01*
X59993368Y-54953475D01*
X60236589Y-55115990D01*
X60506842Y-55227932D01*
X60793740Y-55285000D01*
X61086260Y-55285000D01*
X61373158Y-55227932D01*
X61643411Y-55115990D01*
X61886632Y-54953475D01*
X62093475Y-54746632D01*
X62210000Y-54572240D01*
X62326525Y-54746632D01*
X62533368Y-54953475D01*
X62776589Y-55115990D01*
X63046842Y-55227932D01*
X63333740Y-55285000D01*
X63626260Y-55285000D01*
X63913158Y-55227932D01*
X64183411Y-55115990D01*
X64426632Y-54953475D01*
X64633475Y-54746632D01*
X64750000Y-54572240D01*
X64866525Y-54746632D01*
X65073368Y-54953475D01*
X65316589Y-55115990D01*
X65586842Y-55227932D01*
X65873740Y-55285000D01*
X66166260Y-55285000D01*
X66453158Y-55227932D01*
X66723411Y-55115990D01*
X66966632Y-54953475D01*
X67173475Y-54746632D01*
X67290000Y-54572240D01*
X67406525Y-54746632D01*
X67613368Y-54953475D01*
X67856589Y-55115990D01*
X68126842Y-55227932D01*
X68413740Y-55285000D01*
X68706260Y-55285000D01*
X68993158Y-55227932D01*
X69263411Y-55115990D01*
X69506632Y-54953475D01*
X69713475Y-54746632D01*
X69830000Y-54572240D01*
X69946525Y-54746632D01*
X70153368Y-54953475D01*
X70396589Y-55115990D01*
X70666842Y-55227932D01*
X70953740Y-55285000D01*
X71246260Y-55285000D01*
X71533158Y-55227932D01*
X71803411Y-55115990D01*
X72046632Y-54953475D01*
X72253475Y-54746632D01*
X72370000Y-54572240D01*
X72486525Y-54746632D01*
X72693368Y-54953475D01*
X72936589Y-55115990D01*
X73206842Y-55227932D01*
X73493740Y-55285000D01*
X73786260Y-55285000D01*
X74073158Y-55227932D01*
X74343411Y-55115990D01*
X74586632Y-54953475D01*
X74793475Y-54746632D01*
X74910000Y-54572240D01*
X75026525Y-54746632D01*
X75233368Y-54953475D01*
X75476589Y-55115990D01*
X75746842Y-55227932D01*
X76033740Y-55285000D01*
X76326260Y-55285000D01*
X76613158Y-55227932D01*
X76883411Y-55115990D01*
X77126632Y-54953475D01*
X77333475Y-54746632D01*
X77450000Y-54572240D01*
X77566525Y-54746632D01*
X77773368Y-54953475D01*
X78016589Y-55115990D01*
X78286842Y-55227932D01*
X78573740Y-55285000D01*
X78866260Y-55285000D01*
X79153158Y-55227932D01*
X79423411Y-55115990D01*
X79666632Y-54953475D01*
X79873475Y-54746632D01*
X79990000Y-54572240D01*
X80106525Y-54746632D01*
X80313368Y-54953475D01*
X80556589Y-55115990D01*
X80826842Y-55227932D01*
X81113740Y-55285000D01*
X81406260Y-55285000D01*
X81693158Y-55227932D01*
X81963411Y-55115990D01*
X82206632Y-54953475D01*
X82413475Y-54746632D01*
X82530000Y-54572240D01*
X82646525Y-54746632D01*
X82853368Y-54953475D01*
X83096589Y-55115990D01*
X83366842Y-55227932D01*
X83653740Y-55285000D01*
X83946260Y-55285000D01*
X84233158Y-55227932D01*
X84503411Y-55115990D01*
X84746632Y-54953475D01*
X84953475Y-54746632D01*
X85070000Y-54572240D01*
X85186525Y-54746632D01*
X85393368Y-54953475D01*
X85636589Y-55115990D01*
X85906842Y-55227932D01*
X86193740Y-55285000D01*
X86486260Y-55285000D01*
X86773158Y-55227932D01*
X87043411Y-55115990D01*
X87286632Y-54953475D01*
X87493475Y-54746632D01*
X87615195Y-54564466D01*
X87684822Y-54681355D01*
X87879731Y-54897588D01*
X88113080Y-55071641D01*
X88375901Y-55196825D01*
X88523110Y-55241476D01*
X88753000Y-55120155D01*
X88753000Y-53927000D01*
X88733000Y-53927000D01*
X88733000Y-53673000D01*
X88753000Y-53673000D01*
X88753000Y-53653000D01*
X89007000Y-53653000D01*
X89007000Y-53673000D01*
X89027000Y-53673000D01*
X89027000Y-53927000D01*
X89007000Y-53927000D01*
X89007000Y-55120155D01*
X89236890Y-55241476D01*
X89384099Y-55196825D01*
X89646920Y-55071641D01*
X89880269Y-54897588D01*
X90075178Y-54681355D01*
X90144805Y-54564466D01*
X90266525Y-54746632D01*
X90473368Y-54953475D01*
X90716589Y-55115990D01*
X90986842Y-55227932D01*
X91273740Y-55285000D01*
X91566260Y-55285000D01*
X91853158Y-55227932D01*
X92123411Y-55115990D01*
X92366632Y-54953475D01*
X92573475Y-54746632D01*
X92690000Y-54572240D01*
X92806525Y-54746632D01*
X93013368Y-54953475D01*
X93256589Y-55115990D01*
X93526842Y-55227932D01*
X93813740Y-55285000D01*
X94106260Y-55285000D01*
X94393158Y-55227932D01*
X94663411Y-55115990D01*
X94906632Y-54953475D01*
X95113475Y-54746632D01*
X95230000Y-54572240D01*
X95346525Y-54746632D01*
X95553368Y-54953475D01*
X95796589Y-55115990D01*
X96066842Y-55227932D01*
X96353740Y-55285000D01*
X96646260Y-55285000D01*
X96933158Y-55227932D01*
X97203411Y-55115990D01*
X97446632Y-54953475D01*
X97653475Y-54746632D01*
X97770000Y-54572240D01*
X97886525Y-54746632D01*
X98093368Y-54953475D01*
X98336589Y-55115990D01*
X98606842Y-55227932D01*
X98893740Y-55285000D01*
X99186260Y-55285000D01*
X99473158Y-55227932D01*
X99743411Y-55115990D01*
X99986632Y-54953475D01*
X100193475Y-54746632D01*
X100310000Y-54572240D01*
X100426525Y-54746632D01*
X100633368Y-54953475D01*
X100876589Y-55115990D01*
X101146842Y-55227932D01*
X101433740Y-55285000D01*
X101726260Y-55285000D01*
X102013158Y-55227932D01*
X102283411Y-55115990D01*
X102526632Y-54953475D01*
X102733475Y-54746632D01*
X102850000Y-54572240D01*
X102966525Y-54746632D01*
X103173368Y-54953475D01*
X103393679Y-55100682D01*
X103193368Y-55234525D01*
X102986525Y-55441368D01*
X102824010Y-55684589D01*
X102712068Y-55954842D01*
X102655000Y-56241740D01*
X102655000Y-56534260D01*
X102712068Y-56821158D01*
X102824010Y-57091411D01*
X102986525Y-57334632D01*
X103193368Y-57541475D01*
X103367760Y-57658000D01*
X103193368Y-57774525D01*
X102986525Y-57981368D01*
X102824010Y-58224589D01*
X102712068Y-58494842D01*
X102655000Y-58781740D01*
X102655000Y-59074260D01*
X102712068Y-59361158D01*
X102824010Y-59631411D01*
X102986525Y-59874632D01*
X103193368Y-60081475D01*
X103436589Y-60243990D01*
X103706842Y-60355932D01*
X103993740Y-60413000D01*
X104286260Y-60413000D01*
X104506407Y-60369210D01*
X105100205Y-60963008D01*
X105123999Y-60992001D01*
X105152992Y-61015795D01*
X105152996Y-61015799D01*
X105223685Y-61073811D01*
X105239724Y-61086974D01*
X105371753Y-61157546D01*
X105515014Y-61201003D01*
X105626667Y-61212000D01*
X105626676Y-61212000D01*
X105663999Y-61215676D01*
X105701322Y-61212000D01*
X107658678Y-61212000D01*
X107696000Y-61215676D01*
X107733322Y-61212000D01*
X107733333Y-61212000D01*
X107844986Y-61201003D01*
X107988247Y-61157546D01*
X108120276Y-61086974D01*
X108236001Y-60992001D01*
X108243060Y-60983400D01*
X115815429Y-60983400D01*
X115816244Y-60986086D01*
X115909861Y-61161233D01*
X116035850Y-61314750D01*
X116189367Y-61440739D01*
X116287890Y-61493400D01*
X116189367Y-61546061D01*
X116035850Y-61672050D01*
X115909861Y-61825567D01*
X115816244Y-62000714D01*
X115758594Y-62190759D01*
X115739128Y-62388400D01*
X115739128Y-63138400D01*
X115758594Y-63336041D01*
X115816244Y-63526086D01*
X115909861Y-63701233D01*
X116035850Y-63854750D01*
X116159178Y-63955963D01*
X116133020Y-63963898D01*
X116022706Y-64022863D01*
X115926015Y-64102215D01*
X115846663Y-64198906D01*
X115787698Y-64309220D01*
X115751388Y-64428918D01*
X115739128Y-64553400D01*
X115742200Y-65017650D01*
X115900950Y-65176400D01*
X116432739Y-65176400D01*
X116432614Y-65430400D01*
X115900950Y-65430400D01*
X115742200Y-65589150D01*
X115739128Y-66053400D01*
X115751388Y-66177882D01*
X115787698Y-66297580D01*
X115846663Y-66407894D01*
X115926015Y-66504585D01*
X116022706Y-66583937D01*
X116133020Y-66642902D01*
X116252718Y-66679212D01*
X116377200Y-66691472D01*
X116431994Y-66691443D01*
X116429984Y-70783021D01*
X115045855Y-70785072D01*
X115014105Y-70781927D01*
X114981012Y-70785168D01*
X114980344Y-70785169D01*
X114948938Y-70788309D01*
X114884716Y-70794599D01*
X114884066Y-70794796D01*
X114883394Y-70794863D01*
X114821856Y-70813630D01*
X114760285Y-70832271D01*
X114759689Y-70832589D01*
X114759040Y-70832787D01*
X114702440Y-70863148D01*
X114645594Y-70893492D01*
X114645067Y-70893924D01*
X114644474Y-70894242D01*
X114594966Y-70934995D01*
X114545051Y-70975914D01*
X114544621Y-70976438D01*
X114544098Y-70976868D01*
X114503396Y-71026614D01*
X114462518Y-71076367D01*
X114462198Y-71076965D01*
X114461770Y-71077488D01*
X114431605Y-71134125D01*
X114401170Y-71190990D01*
X114400972Y-71191640D01*
X114400655Y-71192236D01*
X114382118Y-71253670D01*
X114363362Y-71315379D01*
X114363295Y-71316054D01*
X114363100Y-71316701D01*
X114356903Y-71380586D01*
X114353758Y-71412338D01*
X114353758Y-71413013D01*
X114350548Y-71446102D01*
X114353722Y-71477845D01*
X114352383Y-73910785D01*
X114106575Y-73542907D01*
X113657093Y-73093425D01*
X113128558Y-72740270D01*
X112541281Y-72497012D01*
X111917832Y-72373000D01*
X111282168Y-72373000D01*
X110658719Y-72497012D01*
X110071442Y-72740270D01*
X109542907Y-73093425D01*
X109093425Y-73542907D01*
X108740270Y-74071442D01*
X108497012Y-74658719D01*
X108373000Y-75282168D01*
X108373000Y-75917832D01*
X108497012Y-76541281D01*
X108740270Y-77128558D01*
X109093425Y-77657093D01*
X109542907Y-78106575D01*
X109890064Y-78338538D01*
X55181431Y-78324401D01*
X55657093Y-78006575D01*
X56106575Y-77557093D01*
X56459730Y-77028558D01*
X56702988Y-76441281D01*
X56827000Y-75817832D01*
X56827000Y-75182168D01*
X56702988Y-74558719D01*
X56459730Y-73971442D01*
X56106575Y-73442907D01*
X55657093Y-72993425D01*
X55128558Y-72640270D01*
X54541281Y-72397012D01*
X53917832Y-72273000D01*
X53282168Y-72273000D01*
X52658719Y-72397012D01*
X52071442Y-72640270D01*
X51542907Y-72993425D01*
X51093425Y-73442907D01*
X50740270Y-73971442D01*
X50668415Y-74144914D01*
X50675546Y-58013261D01*
X91675000Y-58013261D01*
X91675000Y-58217139D01*
X91714774Y-58417098D01*
X91792795Y-58605456D01*
X91906063Y-58774974D01*
X91950000Y-58818911D01*
X91950001Y-60714788D01*
X91931463Y-60733326D01*
X91818195Y-60902844D01*
X91740174Y-61091202D01*
X91700400Y-61291161D01*
X91700400Y-61495039D01*
X91740174Y-61694998D01*
X91818195Y-61883356D01*
X91931463Y-62052874D01*
X92075626Y-62197037D01*
X92245144Y-62310305D01*
X92433502Y-62388326D01*
X92633461Y-62428100D01*
X92837339Y-62428100D01*
X93037298Y-62388326D01*
X93225656Y-62310305D01*
X93395174Y-62197037D01*
X93539337Y-62052874D01*
X93652605Y-61883356D01*
X93730626Y-61694998D01*
X93770400Y-61495039D01*
X93770400Y-61291161D01*
X93730626Y-61091202D01*
X93652605Y-60902844D01*
X93539337Y-60733326D01*
X93470000Y-60663989D01*
X93470000Y-58818911D01*
X93513937Y-58774974D01*
X93627205Y-58605456D01*
X93705226Y-58417098D01*
X93745000Y-58217139D01*
X93745000Y-58013261D01*
X98533000Y-58013261D01*
X98533000Y-58217139D01*
X98572774Y-58417098D01*
X98650795Y-58605456D01*
X98764063Y-58774974D01*
X98808000Y-58818911D01*
X98808001Y-60725888D01*
X98776463Y-60757426D01*
X98663195Y-60926944D01*
X98585174Y-61115302D01*
X98545400Y-61315261D01*
X98545400Y-61519139D01*
X98585174Y-61719098D01*
X98663195Y-61907456D01*
X98776463Y-62076974D01*
X98920626Y-62221137D01*
X99090144Y-62334405D01*
X99278502Y-62412426D01*
X99478461Y-62452200D01*
X99682339Y-62452200D01*
X99882298Y-62412426D01*
X100070656Y-62334405D01*
X100240174Y-62221137D01*
X100384337Y-62076974D01*
X100497605Y-61907456D01*
X100575626Y-61719098D01*
X100615400Y-61519139D01*
X100615400Y-61315261D01*
X100575626Y-61115302D01*
X100497605Y-60926944D01*
X100384337Y-60757426D01*
X100328000Y-60701089D01*
X100328000Y-58818911D01*
X100371937Y-58774974D01*
X100485205Y-58605456D01*
X100563226Y-58417098D01*
X100603000Y-58217139D01*
X100603000Y-58013261D01*
X100563226Y-57813302D01*
X100485205Y-57624944D01*
X100371937Y-57455426D01*
X100227774Y-57311263D01*
X100058256Y-57197995D01*
X99869898Y-57119974D01*
X99669939Y-57080200D01*
X99466061Y-57080200D01*
X99266102Y-57119974D01*
X99077744Y-57197995D01*
X98908226Y-57311263D01*
X98764063Y-57455426D01*
X98650795Y-57624944D01*
X98572774Y-57813302D01*
X98533000Y-58013261D01*
X93745000Y-58013261D01*
X93705226Y-57813302D01*
X93627205Y-57624944D01*
X93513937Y-57455426D01*
X93369774Y-57311263D01*
X93200256Y-57197995D01*
X93011898Y-57119974D01*
X92811939Y-57080200D01*
X92608061Y-57080200D01*
X92408102Y-57119974D01*
X92219744Y-57197995D01*
X92050226Y-57311263D01*
X91906063Y-57455426D01*
X91792795Y-57624944D01*
X91714774Y-57813302D01*
X91675000Y-58013261D01*
X50675546Y-58013261D01*
X50677283Y-54083951D01*
X50993425Y-54557093D01*
X51442907Y-55006575D01*
X51971442Y-55359730D01*
X52558719Y-55602988D01*
X53182168Y-55727000D01*
X53817832Y-55727000D01*
X54441281Y-55602988D01*
X55028558Y-55359730D01*
X55557093Y-55006575D01*
X56006575Y-54557093D01*
X56359730Y-54028558D01*
X56602988Y-53441281D01*
X56727000Y-52817832D01*
X56727000Y-52182168D01*
X56602988Y-51558719D01*
X56359730Y-50971442D01*
X56006575Y-50442907D01*
X55557093Y-49993425D01*
X55067851Y-49666525D01*
X110041578Y-49660224D01*
X109542907Y-49993425D01*
G36*
X106807000Y-58801000D02*
G01*
X106827000Y-58801000D01*
X106827000Y-59055000D01*
X106807000Y-59055000D01*
X106807000Y-59075000D01*
X106553000Y-59075000D01*
X106553000Y-59055000D01*
X106533000Y-59055000D01*
X106533000Y-58801000D01*
X106553000Y-58801000D01*
X106553000Y-58781000D01*
X106807000Y-58781000D01*
X106807000Y-58801000D01*
G37*
X106807000Y-58801000D02*
X106827000Y-58801000D01*
X106827000Y-59055000D01*
X106807000Y-59055000D01*
X106807000Y-59075000D01*
X106553000Y-59075000D01*
X106553000Y-59055000D01*
X106533000Y-59055000D01*
X106533000Y-58801000D01*
X106553000Y-58801000D01*
X106553000Y-58781000D01*
X106807000Y-58781000D01*
X106807000Y-58801000D01*
M02*
