G04 #@! TF.GenerationSoftware,KiCad,Pcbnew,(5.1.5)-2*
G04 #@! TF.CreationDate,2019-12-04T22:48:08+00:00*
G04 #@! TF.ProjectId,TTVV,54545656-2e6b-4696-9361-645f70636258,1.0.8*
G04 #@! TF.SameCoordinates,Original*
G04 #@! TF.FileFunction,Soldermask,Top*
G04 #@! TF.FilePolarity,Negative*
%FSLAX46Y46*%
G04 Gerber Fmt 4.6, Leading zero omitted, Abs format (unit mm)*
G04 Created by KiCad (PCBNEW (5.1.5)-2) date 2019-12-04 22:48:08*
%MOMM*%
%LPD*%
G04 APERTURE LIST*
%ADD10C,0.100000*%
G04 APERTURE END LIST*
D10*
G36*
X112204780Y-72559565D02*
G01*
X112504237Y-72619131D01*
X113068401Y-72852815D01*
X113576135Y-73192072D01*
X114007928Y-73623865D01*
X114347185Y-74131599D01*
X114580869Y-74695763D01*
X114580869Y-74695765D01*
X114680109Y-75194675D01*
X114700000Y-75294677D01*
X114700000Y-75905323D01*
X114580869Y-76504237D01*
X114347185Y-77068401D01*
X114007928Y-77576135D01*
X113576135Y-78007928D01*
X113068401Y-78347185D01*
X112504237Y-78580869D01*
X112204780Y-78640434D01*
X111905325Y-78700000D01*
X111294675Y-78700000D01*
X110995220Y-78640434D01*
X110695763Y-78580869D01*
X110131599Y-78347185D01*
X109623865Y-78007928D01*
X109192072Y-77576135D01*
X108852815Y-77068401D01*
X108619131Y-76504237D01*
X108500000Y-75905323D01*
X108500000Y-75294677D01*
X108519892Y-75194675D01*
X108619131Y-74695765D01*
X108619131Y-74695763D01*
X108852815Y-74131599D01*
X109192072Y-73623865D01*
X109623865Y-73192072D01*
X110131599Y-72852815D01*
X110695763Y-72619131D01*
X110995220Y-72559565D01*
X111294675Y-72500000D01*
X111905325Y-72500000D01*
X112204780Y-72559565D01*
G37*
G36*
X54204780Y-72459566D02*
G01*
X54504237Y-72519131D01*
X55068401Y-72752815D01*
X55576135Y-73092072D01*
X56007928Y-73523865D01*
X56347185Y-74031599D01*
X56580869Y-74595763D01*
X56640435Y-74895220D01*
X56700000Y-75194675D01*
X56700000Y-75805325D01*
X56640434Y-76104780D01*
X56580869Y-76404237D01*
X56347185Y-76968401D01*
X56007928Y-77476135D01*
X55576135Y-77907928D01*
X55068401Y-78247185D01*
X54504237Y-78480869D01*
X54204780Y-78540434D01*
X53905325Y-78600000D01*
X53294675Y-78600000D01*
X52995220Y-78540434D01*
X52695763Y-78480869D01*
X52131599Y-78247185D01*
X51623865Y-77907928D01*
X51192072Y-77476135D01*
X50852815Y-76968401D01*
X50619131Y-76404237D01*
X50559566Y-76104780D01*
X50500000Y-75805325D01*
X50500000Y-75194675D01*
X50559565Y-74895220D01*
X50619131Y-74595763D01*
X50852815Y-74031599D01*
X51192072Y-73523865D01*
X51623865Y-73092072D01*
X52131599Y-72752815D01*
X52695763Y-72519131D01*
X52995220Y-72459566D01*
X53294675Y-72400000D01*
X53905325Y-72400000D01*
X54204780Y-72459566D01*
G37*
G36*
X128156023Y-64509487D02*
G01*
X128219311Y-64528686D01*
X128277649Y-64559868D01*
X128328775Y-64601825D01*
X128370732Y-64652951D01*
X128401914Y-64711289D01*
X128421113Y-64774577D01*
X128428200Y-64846538D01*
X128428200Y-65760262D01*
X128421113Y-65832223D01*
X128401914Y-65895511D01*
X128370732Y-65953849D01*
X128328775Y-66004975D01*
X128277649Y-66046932D01*
X128219311Y-66078114D01*
X128156023Y-66097313D01*
X128084062Y-66104400D01*
X116670338Y-66104400D01*
X116598377Y-66097313D01*
X116535089Y-66078114D01*
X116476751Y-66046932D01*
X116425625Y-66004975D01*
X116383668Y-65953849D01*
X116352486Y-65895511D01*
X116333287Y-65832223D01*
X116326200Y-65760262D01*
X116326200Y-64846538D01*
X116333287Y-64774577D01*
X116352486Y-64711289D01*
X116383668Y-64652951D01*
X116425625Y-64601825D01*
X116476751Y-64559868D01*
X116535089Y-64528686D01*
X116598377Y-64509487D01*
X116670338Y-64502400D01*
X128084062Y-64502400D01*
X128156023Y-64509487D01*
G37*
G36*
X94810562Y-60821681D02*
G01*
X94845481Y-60832274D01*
X94877663Y-60849476D01*
X94905873Y-60872627D01*
X94929024Y-60900837D01*
X94946226Y-60933019D01*
X94956819Y-60967938D01*
X94961000Y-61010395D01*
X94961000Y-63376605D01*
X94956819Y-63419062D01*
X94946226Y-63453981D01*
X94929024Y-63486163D01*
X94905873Y-63514373D01*
X94877663Y-63537524D01*
X94845481Y-63554726D01*
X94810562Y-63565319D01*
X94768105Y-63569500D01*
X93626895Y-63569500D01*
X93584438Y-63565319D01*
X93549519Y-63554726D01*
X93517337Y-63537524D01*
X93489127Y-63514373D01*
X93465976Y-63486163D01*
X93448774Y-63453981D01*
X93438181Y-63419062D01*
X93434000Y-63376605D01*
X93434000Y-61010395D01*
X93438181Y-60967938D01*
X93448774Y-60933019D01*
X93465976Y-60900837D01*
X93489127Y-60872627D01*
X93517337Y-60849476D01*
X93549519Y-60832274D01*
X93584438Y-60821681D01*
X93626895Y-60817500D01*
X94768105Y-60817500D01*
X94810562Y-60821681D01*
G37*
G36*
X91835562Y-60821681D02*
G01*
X91870481Y-60832274D01*
X91902663Y-60849476D01*
X91930873Y-60872627D01*
X91954024Y-60900837D01*
X91971226Y-60933019D01*
X91981819Y-60967938D01*
X91986000Y-61010395D01*
X91986000Y-63376605D01*
X91981819Y-63419062D01*
X91971226Y-63453981D01*
X91954024Y-63486163D01*
X91930873Y-63514373D01*
X91902663Y-63537524D01*
X91870481Y-63554726D01*
X91835562Y-63565319D01*
X91793105Y-63569500D01*
X90651895Y-63569500D01*
X90609438Y-63565319D01*
X90574519Y-63554726D01*
X90542337Y-63537524D01*
X90514127Y-63514373D01*
X90490976Y-63486163D01*
X90473774Y-63453981D01*
X90463181Y-63419062D01*
X90459000Y-63376605D01*
X90459000Y-61010395D01*
X90463181Y-60967938D01*
X90473774Y-60933019D01*
X90490976Y-60900837D01*
X90514127Y-60872627D01*
X90542337Y-60849476D01*
X90574519Y-60832274D01*
X90609438Y-60821681D01*
X90651895Y-60817500D01*
X91793105Y-60817500D01*
X91835562Y-60821681D01*
G37*
G36*
X128156023Y-61969487D02*
G01*
X128219311Y-61988686D01*
X128277649Y-62019868D01*
X128328775Y-62061825D01*
X128370732Y-62112951D01*
X128401914Y-62171289D01*
X128421113Y-62234577D01*
X128428200Y-62306538D01*
X128428200Y-63220262D01*
X128421113Y-63292223D01*
X128401914Y-63355511D01*
X128370732Y-63413849D01*
X128328775Y-63464975D01*
X128277649Y-63506932D01*
X128219311Y-63538114D01*
X128156023Y-63557313D01*
X128084062Y-63564400D01*
X116670338Y-63564400D01*
X116598377Y-63557313D01*
X116535089Y-63538114D01*
X116476751Y-63506932D01*
X116425625Y-63464975D01*
X116383668Y-63413849D01*
X116352486Y-63355511D01*
X116333287Y-63292223D01*
X116326200Y-63220262D01*
X116326200Y-62306538D01*
X116333287Y-62234577D01*
X116352486Y-62171289D01*
X116383668Y-62112951D01*
X116425625Y-62061825D01*
X116476751Y-62019868D01*
X116535089Y-61988686D01*
X116598377Y-61969487D01*
X116670338Y-61962400D01*
X128084062Y-61962400D01*
X128156023Y-61969487D01*
G37*
G36*
X101693962Y-60807381D02*
G01*
X101728881Y-60817974D01*
X101761063Y-60835176D01*
X101789273Y-60858327D01*
X101812424Y-60886537D01*
X101829626Y-60918719D01*
X101840219Y-60953638D01*
X101844400Y-60996095D01*
X101844400Y-63362305D01*
X101840219Y-63404762D01*
X101829626Y-63439681D01*
X101812424Y-63471863D01*
X101789273Y-63500073D01*
X101761063Y-63523224D01*
X101728881Y-63540426D01*
X101693962Y-63551019D01*
X101651505Y-63555200D01*
X100510295Y-63555200D01*
X100467838Y-63551019D01*
X100432919Y-63540426D01*
X100400737Y-63523224D01*
X100372527Y-63500073D01*
X100349376Y-63471863D01*
X100332174Y-63439681D01*
X100321581Y-63404762D01*
X100317400Y-63362305D01*
X100317400Y-60996095D01*
X100321581Y-60953638D01*
X100332174Y-60918719D01*
X100349376Y-60886537D01*
X100372527Y-60858327D01*
X100400737Y-60835176D01*
X100432919Y-60817974D01*
X100467838Y-60807381D01*
X100510295Y-60803200D01*
X101651505Y-60803200D01*
X101693962Y-60807381D01*
G37*
G36*
X98718962Y-60807381D02*
G01*
X98753881Y-60817974D01*
X98786063Y-60835176D01*
X98814273Y-60858327D01*
X98837424Y-60886537D01*
X98854626Y-60918719D01*
X98865219Y-60953638D01*
X98869400Y-60996095D01*
X98869400Y-63362305D01*
X98865219Y-63404762D01*
X98854626Y-63439681D01*
X98837424Y-63471863D01*
X98814273Y-63500073D01*
X98786063Y-63523224D01*
X98753881Y-63540426D01*
X98718962Y-63551019D01*
X98676505Y-63555200D01*
X97535295Y-63555200D01*
X97492838Y-63551019D01*
X97457919Y-63540426D01*
X97425737Y-63523224D01*
X97397527Y-63500073D01*
X97374376Y-63471863D01*
X97357174Y-63439681D01*
X97346581Y-63404762D01*
X97342400Y-63362305D01*
X97342400Y-60996095D01*
X97346581Y-60953638D01*
X97357174Y-60918719D01*
X97374376Y-60886537D01*
X97397527Y-60858327D01*
X97425737Y-60835176D01*
X97457919Y-60817974D01*
X97492838Y-60807381D01*
X97535295Y-60803200D01*
X98676505Y-60803200D01*
X98718962Y-60807381D01*
G37*
G36*
X128156023Y-59429487D02*
G01*
X128219311Y-59448686D01*
X128277649Y-59479868D01*
X128328775Y-59521825D01*
X128370732Y-59572951D01*
X128401914Y-59631289D01*
X128421113Y-59694577D01*
X128428200Y-59766538D01*
X128428200Y-60680262D01*
X128421113Y-60752223D01*
X128401914Y-60815511D01*
X128370732Y-60873849D01*
X128328775Y-60924975D01*
X128277649Y-60966932D01*
X128219311Y-60998114D01*
X128156023Y-61017313D01*
X128084062Y-61024400D01*
X116670338Y-61024400D01*
X116598377Y-61017313D01*
X116535089Y-60998114D01*
X116476751Y-60966932D01*
X116425625Y-60924975D01*
X116383668Y-60873849D01*
X116352486Y-60815511D01*
X116333287Y-60752223D01*
X116326200Y-60680262D01*
X116326200Y-59766538D01*
X116333287Y-59694577D01*
X116352486Y-59631289D01*
X116383668Y-59572951D01*
X116425625Y-59521825D01*
X116476751Y-59479868D01*
X116535089Y-59448686D01*
X116598377Y-59429487D01*
X116670338Y-59422400D01*
X128084062Y-59422400D01*
X128156023Y-59429487D01*
G37*
G36*
X104253512Y-58031927D02*
G01*
X104402812Y-58061624D01*
X104566784Y-58129544D01*
X104714354Y-58228147D01*
X104839853Y-58353646D01*
X104938456Y-58501216D01*
X105006376Y-58665188D01*
X105041000Y-58839259D01*
X105041000Y-59016741D01*
X105006376Y-59190812D01*
X104938456Y-59354784D01*
X104839853Y-59502354D01*
X104714354Y-59627853D01*
X104566784Y-59726456D01*
X104402812Y-59794376D01*
X104253512Y-59824073D01*
X104228742Y-59829000D01*
X104051258Y-59829000D01*
X104026488Y-59824073D01*
X103877188Y-59794376D01*
X103713216Y-59726456D01*
X103565646Y-59627853D01*
X103440147Y-59502354D01*
X103341544Y-59354784D01*
X103273624Y-59190812D01*
X103239000Y-59016741D01*
X103239000Y-58839259D01*
X103273624Y-58665188D01*
X103341544Y-58501216D01*
X103440147Y-58353646D01*
X103565646Y-58228147D01*
X103713216Y-58129544D01*
X103877188Y-58061624D01*
X104026488Y-58031927D01*
X104051258Y-58027000D01*
X104228742Y-58027000D01*
X104253512Y-58031927D01*
G37*
G36*
X106793512Y-58031927D02*
G01*
X106942812Y-58061624D01*
X107106784Y-58129544D01*
X107254354Y-58228147D01*
X107379853Y-58353646D01*
X107478456Y-58501216D01*
X107546376Y-58665188D01*
X107581000Y-58839259D01*
X107581000Y-59016741D01*
X107546376Y-59190812D01*
X107478456Y-59354784D01*
X107379853Y-59502354D01*
X107254354Y-59627853D01*
X107106784Y-59726456D01*
X106942812Y-59794376D01*
X106793512Y-59824073D01*
X106768742Y-59829000D01*
X106591258Y-59829000D01*
X106566488Y-59824073D01*
X106417188Y-59794376D01*
X106253216Y-59726456D01*
X106105646Y-59627853D01*
X105980147Y-59502354D01*
X105881544Y-59354784D01*
X105813624Y-59190812D01*
X105779000Y-59016741D01*
X105779000Y-58839259D01*
X105813624Y-58665188D01*
X105881544Y-58501216D01*
X105980147Y-58353646D01*
X106105646Y-58228147D01*
X106253216Y-58129544D01*
X106417188Y-58061624D01*
X106566488Y-58031927D01*
X106591258Y-58027000D01*
X106768742Y-58027000D01*
X106793512Y-58031927D01*
G37*
G36*
X91835562Y-56736181D02*
G01*
X91870481Y-56746774D01*
X91902663Y-56763976D01*
X91930873Y-56787127D01*
X91954024Y-56815337D01*
X91971226Y-56847519D01*
X91981819Y-56882438D01*
X91986000Y-56924895D01*
X91986000Y-58391105D01*
X91981819Y-58433562D01*
X91971226Y-58468481D01*
X91954024Y-58500663D01*
X91930873Y-58528873D01*
X91902663Y-58552024D01*
X91870481Y-58569226D01*
X91835562Y-58579819D01*
X91793105Y-58584000D01*
X90651895Y-58584000D01*
X90609438Y-58579819D01*
X90574519Y-58569226D01*
X90542337Y-58552024D01*
X90514127Y-58528873D01*
X90490976Y-58500663D01*
X90473774Y-58468481D01*
X90463181Y-58433562D01*
X90459000Y-58391105D01*
X90459000Y-56924895D01*
X90463181Y-56882438D01*
X90473774Y-56847519D01*
X90490976Y-56815337D01*
X90514127Y-56787127D01*
X90542337Y-56763976D01*
X90574519Y-56746774D01*
X90609438Y-56736181D01*
X90651895Y-56732000D01*
X91793105Y-56732000D01*
X91835562Y-56736181D01*
G37*
G36*
X94810562Y-56736181D02*
G01*
X94845481Y-56746774D01*
X94877663Y-56763976D01*
X94905873Y-56787127D01*
X94929024Y-56815337D01*
X94946226Y-56847519D01*
X94956819Y-56882438D01*
X94961000Y-56924895D01*
X94961000Y-58391105D01*
X94956819Y-58433562D01*
X94946226Y-58468481D01*
X94929024Y-58500663D01*
X94905873Y-58528873D01*
X94877663Y-58552024D01*
X94845481Y-58569226D01*
X94810562Y-58579819D01*
X94768105Y-58584000D01*
X93626895Y-58584000D01*
X93584438Y-58579819D01*
X93549519Y-58569226D01*
X93517337Y-58552024D01*
X93489127Y-58528873D01*
X93465976Y-58500663D01*
X93448774Y-58468481D01*
X93438181Y-58433562D01*
X93434000Y-58391105D01*
X93434000Y-56924895D01*
X93438181Y-56882438D01*
X93448774Y-56847519D01*
X93465976Y-56815337D01*
X93489127Y-56787127D01*
X93517337Y-56763976D01*
X93549519Y-56746774D01*
X93584438Y-56736181D01*
X93626895Y-56732000D01*
X94768105Y-56732000D01*
X94810562Y-56736181D01*
G37*
G36*
X98693562Y-56736181D02*
G01*
X98728481Y-56746774D01*
X98760663Y-56763976D01*
X98788873Y-56787127D01*
X98812024Y-56815337D01*
X98829226Y-56847519D01*
X98839819Y-56882438D01*
X98844000Y-56924895D01*
X98844000Y-58391105D01*
X98839819Y-58433562D01*
X98829226Y-58468481D01*
X98812024Y-58500663D01*
X98788873Y-58528873D01*
X98760663Y-58552024D01*
X98728481Y-58569226D01*
X98693562Y-58579819D01*
X98651105Y-58584000D01*
X97509895Y-58584000D01*
X97467438Y-58579819D01*
X97432519Y-58569226D01*
X97400337Y-58552024D01*
X97372127Y-58528873D01*
X97348976Y-58500663D01*
X97331774Y-58468481D01*
X97321181Y-58433562D01*
X97317000Y-58391105D01*
X97317000Y-56924895D01*
X97321181Y-56882438D01*
X97331774Y-56847519D01*
X97348976Y-56815337D01*
X97372127Y-56787127D01*
X97400337Y-56763976D01*
X97432519Y-56746774D01*
X97467438Y-56736181D01*
X97509895Y-56732000D01*
X98651105Y-56732000D01*
X98693562Y-56736181D01*
G37*
G36*
X101668562Y-56736181D02*
G01*
X101703481Y-56746774D01*
X101735663Y-56763976D01*
X101763873Y-56787127D01*
X101787024Y-56815337D01*
X101804226Y-56847519D01*
X101814819Y-56882438D01*
X101819000Y-56924895D01*
X101819000Y-58391105D01*
X101814819Y-58433562D01*
X101804226Y-58468481D01*
X101787024Y-58500663D01*
X101763873Y-58528873D01*
X101735663Y-58552024D01*
X101703481Y-58569226D01*
X101668562Y-58579819D01*
X101626105Y-58584000D01*
X100484895Y-58584000D01*
X100442438Y-58579819D01*
X100407519Y-58569226D01*
X100375337Y-58552024D01*
X100347127Y-58528873D01*
X100323976Y-58500663D01*
X100306774Y-58468481D01*
X100296181Y-58433562D01*
X100292000Y-58391105D01*
X100292000Y-56924895D01*
X100296181Y-56882438D01*
X100306774Y-56847519D01*
X100323976Y-56815337D01*
X100347127Y-56787127D01*
X100375337Y-56763976D01*
X100407519Y-56746774D01*
X100442438Y-56736181D01*
X100484895Y-56732000D01*
X101626105Y-56732000D01*
X101668562Y-56736181D01*
G37*
G36*
X128156023Y-56889487D02*
G01*
X128219311Y-56908686D01*
X128277649Y-56939868D01*
X128328775Y-56981825D01*
X128370732Y-57032951D01*
X128401914Y-57091289D01*
X128421113Y-57154577D01*
X128428200Y-57226538D01*
X128428200Y-58140262D01*
X128421113Y-58212223D01*
X128401914Y-58275511D01*
X128370732Y-58333849D01*
X128328775Y-58384975D01*
X128277649Y-58426932D01*
X128219311Y-58458114D01*
X128156023Y-58477313D01*
X128084062Y-58484400D01*
X116670338Y-58484400D01*
X116598377Y-58477313D01*
X116535089Y-58458114D01*
X116476751Y-58426932D01*
X116425625Y-58384975D01*
X116383668Y-58333849D01*
X116352486Y-58275511D01*
X116333287Y-58212223D01*
X116326200Y-58140262D01*
X116326200Y-57226538D01*
X116333287Y-57154577D01*
X116352486Y-57091289D01*
X116383668Y-57032951D01*
X116425625Y-56981825D01*
X116476751Y-56939868D01*
X116535089Y-56908686D01*
X116598377Y-56889487D01*
X116670338Y-56882400D01*
X128084062Y-56882400D01*
X128156023Y-56889487D01*
G37*
G36*
X107581000Y-57289000D02*
G01*
X105779000Y-57289000D01*
X105779000Y-55487000D01*
X107581000Y-55487000D01*
X107581000Y-57289000D01*
G37*
G36*
X104253512Y-55491927D02*
G01*
X104402812Y-55521624D01*
X104566784Y-55589544D01*
X104714354Y-55688147D01*
X104839853Y-55813646D01*
X104938456Y-55961216D01*
X105006376Y-56125188D01*
X105041000Y-56299259D01*
X105041000Y-56476741D01*
X105006376Y-56650812D01*
X104938456Y-56814784D01*
X104839853Y-56962354D01*
X104714354Y-57087853D01*
X104566784Y-57186456D01*
X104402812Y-57254376D01*
X104253512Y-57284073D01*
X104228742Y-57289000D01*
X104051258Y-57289000D01*
X104026488Y-57284073D01*
X103877188Y-57254376D01*
X103713216Y-57186456D01*
X103565646Y-57087853D01*
X103440147Y-56962354D01*
X103341544Y-56814784D01*
X103273624Y-56650812D01*
X103239000Y-56476741D01*
X103239000Y-56299259D01*
X103273624Y-56125188D01*
X103341544Y-55961216D01*
X103440147Y-55813646D01*
X103565646Y-55688147D01*
X103713216Y-55589544D01*
X103877188Y-55521624D01*
X104026488Y-55491927D01*
X104051258Y-55487000D01*
X104228742Y-55487000D01*
X104253512Y-55491927D01*
G37*
G36*
X112204780Y-49459566D02*
G01*
X112504237Y-49519131D01*
X113068401Y-49752815D01*
X113576135Y-50092072D01*
X114007928Y-50523865D01*
X114347185Y-51031599D01*
X114580869Y-51595763D01*
X114640434Y-51895220D01*
X114700000Y-52194675D01*
X114700000Y-52805325D01*
X114674479Y-52933625D01*
X114580869Y-53404237D01*
X114347185Y-53968401D01*
X114007928Y-54476135D01*
X113576135Y-54907928D01*
X113068401Y-55247185D01*
X112504237Y-55480869D01*
X112204780Y-55540434D01*
X111905325Y-55600000D01*
X111294675Y-55600000D01*
X110995220Y-55540434D01*
X110695763Y-55480869D01*
X110131599Y-55247185D01*
X109623865Y-54907928D01*
X109192072Y-54476135D01*
X108852815Y-53968401D01*
X108619131Y-53404237D01*
X108525521Y-52933625D01*
X108500000Y-52805325D01*
X108500000Y-52194675D01*
X108559566Y-51895220D01*
X108619131Y-51595763D01*
X108852815Y-51031599D01*
X109192072Y-50523865D01*
X109623865Y-50092072D01*
X110131599Y-49752815D01*
X110695763Y-49519131D01*
X110995220Y-49459566D01*
X111294675Y-49400000D01*
X111905325Y-49400000D01*
X112204780Y-49459566D01*
G37*
G36*
X54104780Y-49459566D02*
G01*
X54404237Y-49519131D01*
X54968401Y-49752815D01*
X55476135Y-50092072D01*
X55907928Y-50523865D01*
X56247185Y-51031599D01*
X56480869Y-51595763D01*
X56540435Y-51895220D01*
X56600000Y-52194675D01*
X56600000Y-52805325D01*
X56574479Y-52933625D01*
X56480869Y-53404237D01*
X56247185Y-53968401D01*
X55907928Y-54476135D01*
X55476135Y-54907928D01*
X54968401Y-55247185D01*
X54404237Y-55480869D01*
X54104780Y-55540434D01*
X53805325Y-55600000D01*
X53194675Y-55600000D01*
X52895220Y-55540434D01*
X52595763Y-55480869D01*
X52031599Y-55247185D01*
X51523865Y-54907928D01*
X51092072Y-54476135D01*
X50752815Y-53968401D01*
X50519131Y-53404237D01*
X50425521Y-52933625D01*
X50400000Y-52805325D01*
X50400000Y-52194675D01*
X50459565Y-51895220D01*
X50519131Y-51595763D01*
X50752815Y-51031599D01*
X51092072Y-50523865D01*
X51523865Y-50092072D01*
X52031599Y-49752815D01*
X52595763Y-49519131D01*
X52895220Y-49459566D01*
X53194675Y-49400000D01*
X53805325Y-49400000D01*
X54104780Y-49459566D01*
G37*
G36*
X88993512Y-52903927D02*
G01*
X89142812Y-52933624D01*
X89306784Y-53001544D01*
X89454354Y-53100147D01*
X89579853Y-53225646D01*
X89678456Y-53373216D01*
X89746376Y-53537188D01*
X89781000Y-53711259D01*
X89781000Y-53888741D01*
X89746376Y-54062812D01*
X89678456Y-54226784D01*
X89579853Y-54374354D01*
X89454354Y-54499853D01*
X89306784Y-54598456D01*
X89142812Y-54666376D01*
X88993512Y-54696073D01*
X88968742Y-54701000D01*
X88791258Y-54701000D01*
X88766488Y-54696073D01*
X88617188Y-54666376D01*
X88453216Y-54598456D01*
X88305646Y-54499853D01*
X88180147Y-54374354D01*
X88081544Y-54226784D01*
X88013624Y-54062812D01*
X87979000Y-53888741D01*
X87979000Y-53711259D01*
X88013624Y-53537188D01*
X88081544Y-53373216D01*
X88180147Y-53225646D01*
X88305646Y-53100147D01*
X88453216Y-53001544D01*
X88617188Y-52933624D01*
X88766488Y-52903927D01*
X88791258Y-52899000D01*
X88968742Y-52899000D01*
X88993512Y-52903927D01*
G37*
G36*
X86453512Y-52903927D02*
G01*
X86602812Y-52933624D01*
X86766784Y-53001544D01*
X86914354Y-53100147D01*
X87039853Y-53225646D01*
X87138456Y-53373216D01*
X87206376Y-53537188D01*
X87241000Y-53711259D01*
X87241000Y-53888741D01*
X87206376Y-54062812D01*
X87138456Y-54226784D01*
X87039853Y-54374354D01*
X86914354Y-54499853D01*
X86766784Y-54598456D01*
X86602812Y-54666376D01*
X86453512Y-54696073D01*
X86428742Y-54701000D01*
X86251258Y-54701000D01*
X86226488Y-54696073D01*
X86077188Y-54666376D01*
X85913216Y-54598456D01*
X85765646Y-54499853D01*
X85640147Y-54374354D01*
X85541544Y-54226784D01*
X85473624Y-54062812D01*
X85439000Y-53888741D01*
X85439000Y-53711259D01*
X85473624Y-53537188D01*
X85541544Y-53373216D01*
X85640147Y-53225646D01*
X85765646Y-53100147D01*
X85913216Y-53001544D01*
X86077188Y-52933624D01*
X86226488Y-52903927D01*
X86251258Y-52899000D01*
X86428742Y-52899000D01*
X86453512Y-52903927D01*
G37*
G36*
X91533512Y-52903927D02*
G01*
X91682812Y-52933624D01*
X91846784Y-53001544D01*
X91994354Y-53100147D01*
X92119853Y-53225646D01*
X92218456Y-53373216D01*
X92286376Y-53537188D01*
X92321000Y-53711259D01*
X92321000Y-53888741D01*
X92286376Y-54062812D01*
X92218456Y-54226784D01*
X92119853Y-54374354D01*
X91994354Y-54499853D01*
X91846784Y-54598456D01*
X91682812Y-54666376D01*
X91533512Y-54696073D01*
X91508742Y-54701000D01*
X91331258Y-54701000D01*
X91306488Y-54696073D01*
X91157188Y-54666376D01*
X90993216Y-54598456D01*
X90845646Y-54499853D01*
X90720147Y-54374354D01*
X90621544Y-54226784D01*
X90553624Y-54062812D01*
X90519000Y-53888741D01*
X90519000Y-53711259D01*
X90553624Y-53537188D01*
X90621544Y-53373216D01*
X90720147Y-53225646D01*
X90845646Y-53100147D01*
X90993216Y-53001544D01*
X91157188Y-52933624D01*
X91306488Y-52903927D01*
X91331258Y-52899000D01*
X91508742Y-52899000D01*
X91533512Y-52903927D01*
G37*
G36*
X94073512Y-52903927D02*
G01*
X94222812Y-52933624D01*
X94386784Y-53001544D01*
X94534354Y-53100147D01*
X94659853Y-53225646D01*
X94758456Y-53373216D01*
X94826376Y-53537188D01*
X94861000Y-53711259D01*
X94861000Y-53888741D01*
X94826376Y-54062812D01*
X94758456Y-54226784D01*
X94659853Y-54374354D01*
X94534354Y-54499853D01*
X94386784Y-54598456D01*
X94222812Y-54666376D01*
X94073512Y-54696073D01*
X94048742Y-54701000D01*
X93871258Y-54701000D01*
X93846488Y-54696073D01*
X93697188Y-54666376D01*
X93533216Y-54598456D01*
X93385646Y-54499853D01*
X93260147Y-54374354D01*
X93161544Y-54226784D01*
X93093624Y-54062812D01*
X93059000Y-53888741D01*
X93059000Y-53711259D01*
X93093624Y-53537188D01*
X93161544Y-53373216D01*
X93260147Y-53225646D01*
X93385646Y-53100147D01*
X93533216Y-53001544D01*
X93697188Y-52933624D01*
X93846488Y-52903927D01*
X93871258Y-52899000D01*
X94048742Y-52899000D01*
X94073512Y-52903927D01*
G37*
G36*
X83913512Y-52903927D02*
G01*
X84062812Y-52933624D01*
X84226784Y-53001544D01*
X84374354Y-53100147D01*
X84499853Y-53225646D01*
X84598456Y-53373216D01*
X84666376Y-53537188D01*
X84701000Y-53711259D01*
X84701000Y-53888741D01*
X84666376Y-54062812D01*
X84598456Y-54226784D01*
X84499853Y-54374354D01*
X84374354Y-54499853D01*
X84226784Y-54598456D01*
X84062812Y-54666376D01*
X83913512Y-54696073D01*
X83888742Y-54701000D01*
X83711258Y-54701000D01*
X83686488Y-54696073D01*
X83537188Y-54666376D01*
X83373216Y-54598456D01*
X83225646Y-54499853D01*
X83100147Y-54374354D01*
X83001544Y-54226784D01*
X82933624Y-54062812D01*
X82899000Y-53888741D01*
X82899000Y-53711259D01*
X82933624Y-53537188D01*
X83001544Y-53373216D01*
X83100147Y-53225646D01*
X83225646Y-53100147D01*
X83373216Y-53001544D01*
X83537188Y-52933624D01*
X83686488Y-52903927D01*
X83711258Y-52899000D01*
X83888742Y-52899000D01*
X83913512Y-52903927D01*
G37*
G36*
X96613512Y-52903927D02*
G01*
X96762812Y-52933624D01*
X96926784Y-53001544D01*
X97074354Y-53100147D01*
X97199853Y-53225646D01*
X97298456Y-53373216D01*
X97366376Y-53537188D01*
X97401000Y-53711259D01*
X97401000Y-53888741D01*
X97366376Y-54062812D01*
X97298456Y-54226784D01*
X97199853Y-54374354D01*
X97074354Y-54499853D01*
X96926784Y-54598456D01*
X96762812Y-54666376D01*
X96613512Y-54696073D01*
X96588742Y-54701000D01*
X96411258Y-54701000D01*
X96386488Y-54696073D01*
X96237188Y-54666376D01*
X96073216Y-54598456D01*
X95925646Y-54499853D01*
X95800147Y-54374354D01*
X95701544Y-54226784D01*
X95633624Y-54062812D01*
X95599000Y-53888741D01*
X95599000Y-53711259D01*
X95633624Y-53537188D01*
X95701544Y-53373216D01*
X95800147Y-53225646D01*
X95925646Y-53100147D01*
X96073216Y-53001544D01*
X96237188Y-52933624D01*
X96386488Y-52903927D01*
X96411258Y-52899000D01*
X96588742Y-52899000D01*
X96613512Y-52903927D01*
G37*
G36*
X99153512Y-52903927D02*
G01*
X99302812Y-52933624D01*
X99466784Y-53001544D01*
X99614354Y-53100147D01*
X99739853Y-53225646D01*
X99838456Y-53373216D01*
X99906376Y-53537188D01*
X99941000Y-53711259D01*
X99941000Y-53888741D01*
X99906376Y-54062812D01*
X99838456Y-54226784D01*
X99739853Y-54374354D01*
X99614354Y-54499853D01*
X99466784Y-54598456D01*
X99302812Y-54666376D01*
X99153512Y-54696073D01*
X99128742Y-54701000D01*
X98951258Y-54701000D01*
X98926488Y-54696073D01*
X98777188Y-54666376D01*
X98613216Y-54598456D01*
X98465646Y-54499853D01*
X98340147Y-54374354D01*
X98241544Y-54226784D01*
X98173624Y-54062812D01*
X98139000Y-53888741D01*
X98139000Y-53711259D01*
X98173624Y-53537188D01*
X98241544Y-53373216D01*
X98340147Y-53225646D01*
X98465646Y-53100147D01*
X98613216Y-53001544D01*
X98777188Y-52933624D01*
X98926488Y-52903927D01*
X98951258Y-52899000D01*
X99128742Y-52899000D01*
X99153512Y-52903927D01*
G37*
G36*
X101693512Y-52903927D02*
G01*
X101842812Y-52933624D01*
X102006784Y-53001544D01*
X102154354Y-53100147D01*
X102279853Y-53225646D01*
X102378456Y-53373216D01*
X102446376Y-53537188D01*
X102481000Y-53711259D01*
X102481000Y-53888741D01*
X102446376Y-54062812D01*
X102378456Y-54226784D01*
X102279853Y-54374354D01*
X102154354Y-54499853D01*
X102006784Y-54598456D01*
X101842812Y-54666376D01*
X101693512Y-54696073D01*
X101668742Y-54701000D01*
X101491258Y-54701000D01*
X101466488Y-54696073D01*
X101317188Y-54666376D01*
X101153216Y-54598456D01*
X101005646Y-54499853D01*
X100880147Y-54374354D01*
X100781544Y-54226784D01*
X100713624Y-54062812D01*
X100679000Y-53888741D01*
X100679000Y-53711259D01*
X100713624Y-53537188D01*
X100781544Y-53373216D01*
X100880147Y-53225646D01*
X101005646Y-53100147D01*
X101153216Y-53001544D01*
X101317188Y-52933624D01*
X101466488Y-52903927D01*
X101491258Y-52899000D01*
X101668742Y-52899000D01*
X101693512Y-52903927D01*
G37*
G36*
X59301000Y-54701000D02*
G01*
X57499000Y-54701000D01*
X57499000Y-52899000D01*
X59301000Y-52899000D01*
X59301000Y-54701000D01*
G37*
G36*
X81373512Y-52903927D02*
G01*
X81522812Y-52933624D01*
X81686784Y-53001544D01*
X81834354Y-53100147D01*
X81959853Y-53225646D01*
X82058456Y-53373216D01*
X82126376Y-53537188D01*
X82161000Y-53711259D01*
X82161000Y-53888741D01*
X82126376Y-54062812D01*
X82058456Y-54226784D01*
X81959853Y-54374354D01*
X81834354Y-54499853D01*
X81686784Y-54598456D01*
X81522812Y-54666376D01*
X81373512Y-54696073D01*
X81348742Y-54701000D01*
X81171258Y-54701000D01*
X81146488Y-54696073D01*
X80997188Y-54666376D01*
X80833216Y-54598456D01*
X80685646Y-54499853D01*
X80560147Y-54374354D01*
X80461544Y-54226784D01*
X80393624Y-54062812D01*
X80359000Y-53888741D01*
X80359000Y-53711259D01*
X80393624Y-53537188D01*
X80461544Y-53373216D01*
X80560147Y-53225646D01*
X80685646Y-53100147D01*
X80833216Y-53001544D01*
X80997188Y-52933624D01*
X81146488Y-52903927D01*
X81171258Y-52899000D01*
X81348742Y-52899000D01*
X81373512Y-52903927D01*
G37*
G36*
X76293512Y-52903927D02*
G01*
X76442812Y-52933624D01*
X76606784Y-53001544D01*
X76754354Y-53100147D01*
X76879853Y-53225646D01*
X76978456Y-53373216D01*
X77046376Y-53537188D01*
X77081000Y-53711259D01*
X77081000Y-53888741D01*
X77046376Y-54062812D01*
X76978456Y-54226784D01*
X76879853Y-54374354D01*
X76754354Y-54499853D01*
X76606784Y-54598456D01*
X76442812Y-54666376D01*
X76293512Y-54696073D01*
X76268742Y-54701000D01*
X76091258Y-54701000D01*
X76066488Y-54696073D01*
X75917188Y-54666376D01*
X75753216Y-54598456D01*
X75605646Y-54499853D01*
X75480147Y-54374354D01*
X75381544Y-54226784D01*
X75313624Y-54062812D01*
X75279000Y-53888741D01*
X75279000Y-53711259D01*
X75313624Y-53537188D01*
X75381544Y-53373216D01*
X75480147Y-53225646D01*
X75605646Y-53100147D01*
X75753216Y-53001544D01*
X75917188Y-52933624D01*
X76066488Y-52903927D01*
X76091258Y-52899000D01*
X76268742Y-52899000D01*
X76293512Y-52903927D01*
G37*
G36*
X78833512Y-52903927D02*
G01*
X78982812Y-52933624D01*
X79146784Y-53001544D01*
X79294354Y-53100147D01*
X79419853Y-53225646D01*
X79518456Y-53373216D01*
X79586376Y-53537188D01*
X79621000Y-53711259D01*
X79621000Y-53888741D01*
X79586376Y-54062812D01*
X79518456Y-54226784D01*
X79419853Y-54374354D01*
X79294354Y-54499853D01*
X79146784Y-54598456D01*
X78982812Y-54666376D01*
X78833512Y-54696073D01*
X78808742Y-54701000D01*
X78631258Y-54701000D01*
X78606488Y-54696073D01*
X78457188Y-54666376D01*
X78293216Y-54598456D01*
X78145646Y-54499853D01*
X78020147Y-54374354D01*
X77921544Y-54226784D01*
X77853624Y-54062812D01*
X77819000Y-53888741D01*
X77819000Y-53711259D01*
X77853624Y-53537188D01*
X77921544Y-53373216D01*
X78020147Y-53225646D01*
X78145646Y-53100147D01*
X78293216Y-53001544D01*
X78457188Y-52933624D01*
X78606488Y-52903927D01*
X78631258Y-52899000D01*
X78808742Y-52899000D01*
X78833512Y-52903927D01*
G37*
G36*
X106773512Y-52903927D02*
G01*
X106922812Y-52933624D01*
X107086784Y-53001544D01*
X107234354Y-53100147D01*
X107359853Y-53225646D01*
X107458456Y-53373216D01*
X107526376Y-53537188D01*
X107561000Y-53711259D01*
X107561000Y-53888741D01*
X107526376Y-54062812D01*
X107458456Y-54226784D01*
X107359853Y-54374354D01*
X107234354Y-54499853D01*
X107086784Y-54598456D01*
X106922812Y-54666376D01*
X106773512Y-54696073D01*
X106748742Y-54701000D01*
X106571258Y-54701000D01*
X106546488Y-54696073D01*
X106397188Y-54666376D01*
X106233216Y-54598456D01*
X106085646Y-54499853D01*
X105960147Y-54374354D01*
X105861544Y-54226784D01*
X105793624Y-54062812D01*
X105759000Y-53888741D01*
X105759000Y-53711259D01*
X105793624Y-53537188D01*
X105861544Y-53373216D01*
X105960147Y-53225646D01*
X106085646Y-53100147D01*
X106233216Y-53001544D01*
X106397188Y-52933624D01*
X106546488Y-52903927D01*
X106571258Y-52899000D01*
X106748742Y-52899000D01*
X106773512Y-52903927D01*
G37*
G36*
X104233512Y-52903927D02*
G01*
X104382812Y-52933624D01*
X104546784Y-53001544D01*
X104694354Y-53100147D01*
X104819853Y-53225646D01*
X104918456Y-53373216D01*
X104986376Y-53537188D01*
X105021000Y-53711259D01*
X105021000Y-53888741D01*
X104986376Y-54062812D01*
X104918456Y-54226784D01*
X104819853Y-54374354D01*
X104694354Y-54499853D01*
X104546784Y-54598456D01*
X104382812Y-54666376D01*
X104233512Y-54696073D01*
X104208742Y-54701000D01*
X104031258Y-54701000D01*
X104006488Y-54696073D01*
X103857188Y-54666376D01*
X103693216Y-54598456D01*
X103545646Y-54499853D01*
X103420147Y-54374354D01*
X103321544Y-54226784D01*
X103253624Y-54062812D01*
X103219000Y-53888741D01*
X103219000Y-53711259D01*
X103253624Y-53537188D01*
X103321544Y-53373216D01*
X103420147Y-53225646D01*
X103545646Y-53100147D01*
X103693216Y-53001544D01*
X103857188Y-52933624D01*
X104006488Y-52903927D01*
X104031258Y-52899000D01*
X104208742Y-52899000D01*
X104233512Y-52903927D01*
G37*
G36*
X61053512Y-52903927D02*
G01*
X61202812Y-52933624D01*
X61366784Y-53001544D01*
X61514354Y-53100147D01*
X61639853Y-53225646D01*
X61738456Y-53373216D01*
X61806376Y-53537188D01*
X61841000Y-53711259D01*
X61841000Y-53888741D01*
X61806376Y-54062812D01*
X61738456Y-54226784D01*
X61639853Y-54374354D01*
X61514354Y-54499853D01*
X61366784Y-54598456D01*
X61202812Y-54666376D01*
X61053512Y-54696073D01*
X61028742Y-54701000D01*
X60851258Y-54701000D01*
X60826488Y-54696073D01*
X60677188Y-54666376D01*
X60513216Y-54598456D01*
X60365646Y-54499853D01*
X60240147Y-54374354D01*
X60141544Y-54226784D01*
X60073624Y-54062812D01*
X60039000Y-53888741D01*
X60039000Y-53711259D01*
X60073624Y-53537188D01*
X60141544Y-53373216D01*
X60240147Y-53225646D01*
X60365646Y-53100147D01*
X60513216Y-53001544D01*
X60677188Y-52933624D01*
X60826488Y-52903927D01*
X60851258Y-52899000D01*
X61028742Y-52899000D01*
X61053512Y-52903927D01*
G37*
G36*
X63593512Y-52903927D02*
G01*
X63742812Y-52933624D01*
X63906784Y-53001544D01*
X64054354Y-53100147D01*
X64179853Y-53225646D01*
X64278456Y-53373216D01*
X64346376Y-53537188D01*
X64381000Y-53711259D01*
X64381000Y-53888741D01*
X64346376Y-54062812D01*
X64278456Y-54226784D01*
X64179853Y-54374354D01*
X64054354Y-54499853D01*
X63906784Y-54598456D01*
X63742812Y-54666376D01*
X63593512Y-54696073D01*
X63568742Y-54701000D01*
X63391258Y-54701000D01*
X63366488Y-54696073D01*
X63217188Y-54666376D01*
X63053216Y-54598456D01*
X62905646Y-54499853D01*
X62780147Y-54374354D01*
X62681544Y-54226784D01*
X62613624Y-54062812D01*
X62579000Y-53888741D01*
X62579000Y-53711259D01*
X62613624Y-53537188D01*
X62681544Y-53373216D01*
X62780147Y-53225646D01*
X62905646Y-53100147D01*
X63053216Y-53001544D01*
X63217188Y-52933624D01*
X63366488Y-52903927D01*
X63391258Y-52899000D01*
X63568742Y-52899000D01*
X63593512Y-52903927D01*
G37*
G36*
X66133512Y-52903927D02*
G01*
X66282812Y-52933624D01*
X66446784Y-53001544D01*
X66594354Y-53100147D01*
X66719853Y-53225646D01*
X66818456Y-53373216D01*
X66886376Y-53537188D01*
X66921000Y-53711259D01*
X66921000Y-53888741D01*
X66886376Y-54062812D01*
X66818456Y-54226784D01*
X66719853Y-54374354D01*
X66594354Y-54499853D01*
X66446784Y-54598456D01*
X66282812Y-54666376D01*
X66133512Y-54696073D01*
X66108742Y-54701000D01*
X65931258Y-54701000D01*
X65906488Y-54696073D01*
X65757188Y-54666376D01*
X65593216Y-54598456D01*
X65445646Y-54499853D01*
X65320147Y-54374354D01*
X65221544Y-54226784D01*
X65153624Y-54062812D01*
X65119000Y-53888741D01*
X65119000Y-53711259D01*
X65153624Y-53537188D01*
X65221544Y-53373216D01*
X65320147Y-53225646D01*
X65445646Y-53100147D01*
X65593216Y-53001544D01*
X65757188Y-52933624D01*
X65906488Y-52903927D01*
X65931258Y-52899000D01*
X66108742Y-52899000D01*
X66133512Y-52903927D01*
G37*
G36*
X68673512Y-52903927D02*
G01*
X68822812Y-52933624D01*
X68986784Y-53001544D01*
X69134354Y-53100147D01*
X69259853Y-53225646D01*
X69358456Y-53373216D01*
X69426376Y-53537188D01*
X69461000Y-53711259D01*
X69461000Y-53888741D01*
X69426376Y-54062812D01*
X69358456Y-54226784D01*
X69259853Y-54374354D01*
X69134354Y-54499853D01*
X68986784Y-54598456D01*
X68822812Y-54666376D01*
X68673512Y-54696073D01*
X68648742Y-54701000D01*
X68471258Y-54701000D01*
X68446488Y-54696073D01*
X68297188Y-54666376D01*
X68133216Y-54598456D01*
X67985646Y-54499853D01*
X67860147Y-54374354D01*
X67761544Y-54226784D01*
X67693624Y-54062812D01*
X67659000Y-53888741D01*
X67659000Y-53711259D01*
X67693624Y-53537188D01*
X67761544Y-53373216D01*
X67860147Y-53225646D01*
X67985646Y-53100147D01*
X68133216Y-53001544D01*
X68297188Y-52933624D01*
X68446488Y-52903927D01*
X68471258Y-52899000D01*
X68648742Y-52899000D01*
X68673512Y-52903927D01*
G37*
G36*
X71213512Y-52903927D02*
G01*
X71362812Y-52933624D01*
X71526784Y-53001544D01*
X71674354Y-53100147D01*
X71799853Y-53225646D01*
X71898456Y-53373216D01*
X71966376Y-53537188D01*
X72001000Y-53711259D01*
X72001000Y-53888741D01*
X71966376Y-54062812D01*
X71898456Y-54226784D01*
X71799853Y-54374354D01*
X71674354Y-54499853D01*
X71526784Y-54598456D01*
X71362812Y-54666376D01*
X71213512Y-54696073D01*
X71188742Y-54701000D01*
X71011258Y-54701000D01*
X70986488Y-54696073D01*
X70837188Y-54666376D01*
X70673216Y-54598456D01*
X70525646Y-54499853D01*
X70400147Y-54374354D01*
X70301544Y-54226784D01*
X70233624Y-54062812D01*
X70199000Y-53888741D01*
X70199000Y-53711259D01*
X70233624Y-53537188D01*
X70301544Y-53373216D01*
X70400147Y-53225646D01*
X70525646Y-53100147D01*
X70673216Y-53001544D01*
X70837188Y-52933624D01*
X70986488Y-52903927D01*
X71011258Y-52899000D01*
X71188742Y-52899000D01*
X71213512Y-52903927D01*
G37*
G36*
X73753512Y-52903927D02*
G01*
X73902812Y-52933624D01*
X74066784Y-53001544D01*
X74214354Y-53100147D01*
X74339853Y-53225646D01*
X74438456Y-53373216D01*
X74506376Y-53537188D01*
X74541000Y-53711259D01*
X74541000Y-53888741D01*
X74506376Y-54062812D01*
X74438456Y-54226784D01*
X74339853Y-54374354D01*
X74214354Y-54499853D01*
X74066784Y-54598456D01*
X73902812Y-54666376D01*
X73753512Y-54696073D01*
X73728742Y-54701000D01*
X73551258Y-54701000D01*
X73526488Y-54696073D01*
X73377188Y-54666376D01*
X73213216Y-54598456D01*
X73065646Y-54499853D01*
X72940147Y-54374354D01*
X72841544Y-54226784D01*
X72773624Y-54062812D01*
X72739000Y-53888741D01*
X72739000Y-53711259D01*
X72773624Y-53537188D01*
X72841544Y-53373216D01*
X72940147Y-53225646D01*
X73065646Y-53100147D01*
X73213216Y-53001544D01*
X73377188Y-52933624D01*
X73526488Y-52903927D01*
X73551258Y-52899000D01*
X73728742Y-52899000D01*
X73753512Y-52903927D01*
G37*
G36*
X106773512Y-50363927D02*
G01*
X106922812Y-50393624D01*
X107086784Y-50461544D01*
X107234354Y-50560147D01*
X107359853Y-50685646D01*
X107458456Y-50833216D01*
X107526376Y-50997188D01*
X107561000Y-51171259D01*
X107561000Y-51348741D01*
X107526376Y-51522812D01*
X107458456Y-51686784D01*
X107359853Y-51834354D01*
X107234354Y-51959853D01*
X107086784Y-52058456D01*
X106922812Y-52126376D01*
X106773512Y-52156073D01*
X106748742Y-52161000D01*
X106571258Y-52161000D01*
X106546488Y-52156073D01*
X106397188Y-52126376D01*
X106233216Y-52058456D01*
X106085646Y-51959853D01*
X105960147Y-51834354D01*
X105861544Y-51686784D01*
X105793624Y-51522812D01*
X105759000Y-51348741D01*
X105759000Y-51171259D01*
X105793624Y-50997188D01*
X105861544Y-50833216D01*
X105960147Y-50685646D01*
X106085646Y-50560147D01*
X106233216Y-50461544D01*
X106397188Y-50393624D01*
X106546488Y-50363927D01*
X106571258Y-50359000D01*
X106748742Y-50359000D01*
X106773512Y-50363927D01*
G37*
G36*
X86453512Y-50363927D02*
G01*
X86602812Y-50393624D01*
X86766784Y-50461544D01*
X86914354Y-50560147D01*
X87039853Y-50685646D01*
X87138456Y-50833216D01*
X87206376Y-50997188D01*
X87241000Y-51171259D01*
X87241000Y-51348741D01*
X87206376Y-51522812D01*
X87138456Y-51686784D01*
X87039853Y-51834354D01*
X86914354Y-51959853D01*
X86766784Y-52058456D01*
X86602812Y-52126376D01*
X86453512Y-52156073D01*
X86428742Y-52161000D01*
X86251258Y-52161000D01*
X86226488Y-52156073D01*
X86077188Y-52126376D01*
X85913216Y-52058456D01*
X85765646Y-51959853D01*
X85640147Y-51834354D01*
X85541544Y-51686784D01*
X85473624Y-51522812D01*
X85439000Y-51348741D01*
X85439000Y-51171259D01*
X85473624Y-50997188D01*
X85541544Y-50833216D01*
X85640147Y-50685646D01*
X85765646Y-50560147D01*
X85913216Y-50461544D01*
X86077188Y-50393624D01*
X86226488Y-50363927D01*
X86251258Y-50359000D01*
X86428742Y-50359000D01*
X86453512Y-50363927D01*
G37*
G36*
X88993512Y-50363927D02*
G01*
X89142812Y-50393624D01*
X89306784Y-50461544D01*
X89454354Y-50560147D01*
X89579853Y-50685646D01*
X89678456Y-50833216D01*
X89746376Y-50997188D01*
X89781000Y-51171259D01*
X89781000Y-51348741D01*
X89746376Y-51522812D01*
X89678456Y-51686784D01*
X89579853Y-51834354D01*
X89454354Y-51959853D01*
X89306784Y-52058456D01*
X89142812Y-52126376D01*
X88993512Y-52156073D01*
X88968742Y-52161000D01*
X88791258Y-52161000D01*
X88766488Y-52156073D01*
X88617188Y-52126376D01*
X88453216Y-52058456D01*
X88305646Y-51959853D01*
X88180147Y-51834354D01*
X88081544Y-51686784D01*
X88013624Y-51522812D01*
X87979000Y-51348741D01*
X87979000Y-51171259D01*
X88013624Y-50997188D01*
X88081544Y-50833216D01*
X88180147Y-50685646D01*
X88305646Y-50560147D01*
X88453216Y-50461544D01*
X88617188Y-50393624D01*
X88766488Y-50363927D01*
X88791258Y-50359000D01*
X88968742Y-50359000D01*
X88993512Y-50363927D01*
G37*
G36*
X91533512Y-50363927D02*
G01*
X91682812Y-50393624D01*
X91846784Y-50461544D01*
X91994354Y-50560147D01*
X92119853Y-50685646D01*
X92218456Y-50833216D01*
X92286376Y-50997188D01*
X92321000Y-51171259D01*
X92321000Y-51348741D01*
X92286376Y-51522812D01*
X92218456Y-51686784D01*
X92119853Y-51834354D01*
X91994354Y-51959853D01*
X91846784Y-52058456D01*
X91682812Y-52126376D01*
X91533512Y-52156073D01*
X91508742Y-52161000D01*
X91331258Y-52161000D01*
X91306488Y-52156073D01*
X91157188Y-52126376D01*
X90993216Y-52058456D01*
X90845646Y-51959853D01*
X90720147Y-51834354D01*
X90621544Y-51686784D01*
X90553624Y-51522812D01*
X90519000Y-51348741D01*
X90519000Y-51171259D01*
X90553624Y-50997188D01*
X90621544Y-50833216D01*
X90720147Y-50685646D01*
X90845646Y-50560147D01*
X90993216Y-50461544D01*
X91157188Y-50393624D01*
X91306488Y-50363927D01*
X91331258Y-50359000D01*
X91508742Y-50359000D01*
X91533512Y-50363927D01*
G37*
G36*
X94073512Y-50363927D02*
G01*
X94222812Y-50393624D01*
X94386784Y-50461544D01*
X94534354Y-50560147D01*
X94659853Y-50685646D01*
X94758456Y-50833216D01*
X94826376Y-50997188D01*
X94861000Y-51171259D01*
X94861000Y-51348741D01*
X94826376Y-51522812D01*
X94758456Y-51686784D01*
X94659853Y-51834354D01*
X94534354Y-51959853D01*
X94386784Y-52058456D01*
X94222812Y-52126376D01*
X94073512Y-52156073D01*
X94048742Y-52161000D01*
X93871258Y-52161000D01*
X93846488Y-52156073D01*
X93697188Y-52126376D01*
X93533216Y-52058456D01*
X93385646Y-51959853D01*
X93260147Y-51834354D01*
X93161544Y-51686784D01*
X93093624Y-51522812D01*
X93059000Y-51348741D01*
X93059000Y-51171259D01*
X93093624Y-50997188D01*
X93161544Y-50833216D01*
X93260147Y-50685646D01*
X93385646Y-50560147D01*
X93533216Y-50461544D01*
X93697188Y-50393624D01*
X93846488Y-50363927D01*
X93871258Y-50359000D01*
X94048742Y-50359000D01*
X94073512Y-50363927D01*
G37*
G36*
X96613512Y-50363927D02*
G01*
X96762812Y-50393624D01*
X96926784Y-50461544D01*
X97074354Y-50560147D01*
X97199853Y-50685646D01*
X97298456Y-50833216D01*
X97366376Y-50997188D01*
X97401000Y-51171259D01*
X97401000Y-51348741D01*
X97366376Y-51522812D01*
X97298456Y-51686784D01*
X97199853Y-51834354D01*
X97074354Y-51959853D01*
X96926784Y-52058456D01*
X96762812Y-52126376D01*
X96613512Y-52156073D01*
X96588742Y-52161000D01*
X96411258Y-52161000D01*
X96386488Y-52156073D01*
X96237188Y-52126376D01*
X96073216Y-52058456D01*
X95925646Y-51959853D01*
X95800147Y-51834354D01*
X95701544Y-51686784D01*
X95633624Y-51522812D01*
X95599000Y-51348741D01*
X95599000Y-51171259D01*
X95633624Y-50997188D01*
X95701544Y-50833216D01*
X95800147Y-50685646D01*
X95925646Y-50560147D01*
X96073216Y-50461544D01*
X96237188Y-50393624D01*
X96386488Y-50363927D01*
X96411258Y-50359000D01*
X96588742Y-50359000D01*
X96613512Y-50363927D01*
G37*
G36*
X99153512Y-50363927D02*
G01*
X99302812Y-50393624D01*
X99466784Y-50461544D01*
X99614354Y-50560147D01*
X99739853Y-50685646D01*
X99838456Y-50833216D01*
X99906376Y-50997188D01*
X99941000Y-51171259D01*
X99941000Y-51348741D01*
X99906376Y-51522812D01*
X99838456Y-51686784D01*
X99739853Y-51834354D01*
X99614354Y-51959853D01*
X99466784Y-52058456D01*
X99302812Y-52126376D01*
X99153512Y-52156073D01*
X99128742Y-52161000D01*
X98951258Y-52161000D01*
X98926488Y-52156073D01*
X98777188Y-52126376D01*
X98613216Y-52058456D01*
X98465646Y-51959853D01*
X98340147Y-51834354D01*
X98241544Y-51686784D01*
X98173624Y-51522812D01*
X98139000Y-51348741D01*
X98139000Y-51171259D01*
X98173624Y-50997188D01*
X98241544Y-50833216D01*
X98340147Y-50685646D01*
X98465646Y-50560147D01*
X98613216Y-50461544D01*
X98777188Y-50393624D01*
X98926488Y-50363927D01*
X98951258Y-50359000D01*
X99128742Y-50359000D01*
X99153512Y-50363927D01*
G37*
G36*
X104233512Y-50363927D02*
G01*
X104382812Y-50393624D01*
X104546784Y-50461544D01*
X104694354Y-50560147D01*
X104819853Y-50685646D01*
X104918456Y-50833216D01*
X104986376Y-50997188D01*
X105021000Y-51171259D01*
X105021000Y-51348741D01*
X104986376Y-51522812D01*
X104918456Y-51686784D01*
X104819853Y-51834354D01*
X104694354Y-51959853D01*
X104546784Y-52058456D01*
X104382812Y-52126376D01*
X104233512Y-52156073D01*
X104208742Y-52161000D01*
X104031258Y-52161000D01*
X104006488Y-52156073D01*
X103857188Y-52126376D01*
X103693216Y-52058456D01*
X103545646Y-51959853D01*
X103420147Y-51834354D01*
X103321544Y-51686784D01*
X103253624Y-51522812D01*
X103219000Y-51348741D01*
X103219000Y-51171259D01*
X103253624Y-50997188D01*
X103321544Y-50833216D01*
X103420147Y-50685646D01*
X103545646Y-50560147D01*
X103693216Y-50461544D01*
X103857188Y-50393624D01*
X104006488Y-50363927D01*
X104031258Y-50359000D01*
X104208742Y-50359000D01*
X104233512Y-50363927D01*
G37*
G36*
X68673512Y-50363927D02*
G01*
X68822812Y-50393624D01*
X68986784Y-50461544D01*
X69134354Y-50560147D01*
X69259853Y-50685646D01*
X69358456Y-50833216D01*
X69426376Y-50997188D01*
X69461000Y-51171259D01*
X69461000Y-51348741D01*
X69426376Y-51522812D01*
X69358456Y-51686784D01*
X69259853Y-51834354D01*
X69134354Y-51959853D01*
X68986784Y-52058456D01*
X68822812Y-52126376D01*
X68673512Y-52156073D01*
X68648742Y-52161000D01*
X68471258Y-52161000D01*
X68446488Y-52156073D01*
X68297188Y-52126376D01*
X68133216Y-52058456D01*
X67985646Y-51959853D01*
X67860147Y-51834354D01*
X67761544Y-51686784D01*
X67693624Y-51522812D01*
X67659000Y-51348741D01*
X67659000Y-51171259D01*
X67693624Y-50997188D01*
X67761544Y-50833216D01*
X67860147Y-50685646D01*
X67985646Y-50560147D01*
X68133216Y-50461544D01*
X68297188Y-50393624D01*
X68446488Y-50363927D01*
X68471258Y-50359000D01*
X68648742Y-50359000D01*
X68673512Y-50363927D01*
G37*
G36*
X101693512Y-50363927D02*
G01*
X101842812Y-50393624D01*
X102006784Y-50461544D01*
X102154354Y-50560147D01*
X102279853Y-50685646D01*
X102378456Y-50833216D01*
X102446376Y-50997188D01*
X102481000Y-51171259D01*
X102481000Y-51348741D01*
X102446376Y-51522812D01*
X102378456Y-51686784D01*
X102279853Y-51834354D01*
X102154354Y-51959853D01*
X102006784Y-52058456D01*
X101842812Y-52126376D01*
X101693512Y-52156073D01*
X101668742Y-52161000D01*
X101491258Y-52161000D01*
X101466488Y-52156073D01*
X101317188Y-52126376D01*
X101153216Y-52058456D01*
X101005646Y-51959853D01*
X100880147Y-51834354D01*
X100781544Y-51686784D01*
X100713624Y-51522812D01*
X100679000Y-51348741D01*
X100679000Y-51171259D01*
X100713624Y-50997188D01*
X100781544Y-50833216D01*
X100880147Y-50685646D01*
X101005646Y-50560147D01*
X101153216Y-50461544D01*
X101317188Y-50393624D01*
X101466488Y-50363927D01*
X101491258Y-50359000D01*
X101668742Y-50359000D01*
X101693512Y-50363927D01*
G37*
G36*
X76293512Y-50363927D02*
G01*
X76442812Y-50393624D01*
X76606784Y-50461544D01*
X76754354Y-50560147D01*
X76879853Y-50685646D01*
X76978456Y-50833216D01*
X77046376Y-50997188D01*
X77081000Y-51171259D01*
X77081000Y-51348741D01*
X77046376Y-51522812D01*
X76978456Y-51686784D01*
X76879853Y-51834354D01*
X76754354Y-51959853D01*
X76606784Y-52058456D01*
X76442812Y-52126376D01*
X76293512Y-52156073D01*
X76268742Y-52161000D01*
X76091258Y-52161000D01*
X76066488Y-52156073D01*
X75917188Y-52126376D01*
X75753216Y-52058456D01*
X75605646Y-51959853D01*
X75480147Y-51834354D01*
X75381544Y-51686784D01*
X75313624Y-51522812D01*
X75279000Y-51348741D01*
X75279000Y-51171259D01*
X75313624Y-50997188D01*
X75381544Y-50833216D01*
X75480147Y-50685646D01*
X75605646Y-50560147D01*
X75753216Y-50461544D01*
X75917188Y-50393624D01*
X76066488Y-50363927D01*
X76091258Y-50359000D01*
X76268742Y-50359000D01*
X76293512Y-50363927D01*
G37*
G36*
X83913512Y-50363927D02*
G01*
X84062812Y-50393624D01*
X84226784Y-50461544D01*
X84374354Y-50560147D01*
X84499853Y-50685646D01*
X84598456Y-50833216D01*
X84666376Y-50997188D01*
X84701000Y-51171259D01*
X84701000Y-51348741D01*
X84666376Y-51522812D01*
X84598456Y-51686784D01*
X84499853Y-51834354D01*
X84374354Y-51959853D01*
X84226784Y-52058456D01*
X84062812Y-52126376D01*
X83913512Y-52156073D01*
X83888742Y-52161000D01*
X83711258Y-52161000D01*
X83686488Y-52156073D01*
X83537188Y-52126376D01*
X83373216Y-52058456D01*
X83225646Y-51959853D01*
X83100147Y-51834354D01*
X83001544Y-51686784D01*
X82933624Y-51522812D01*
X82899000Y-51348741D01*
X82899000Y-51171259D01*
X82933624Y-50997188D01*
X83001544Y-50833216D01*
X83100147Y-50685646D01*
X83225646Y-50560147D01*
X83373216Y-50461544D01*
X83537188Y-50393624D01*
X83686488Y-50363927D01*
X83711258Y-50359000D01*
X83888742Y-50359000D01*
X83913512Y-50363927D01*
G37*
G36*
X66133512Y-50363927D02*
G01*
X66282812Y-50393624D01*
X66446784Y-50461544D01*
X66594354Y-50560147D01*
X66719853Y-50685646D01*
X66818456Y-50833216D01*
X66886376Y-50997188D01*
X66921000Y-51171259D01*
X66921000Y-51348741D01*
X66886376Y-51522812D01*
X66818456Y-51686784D01*
X66719853Y-51834354D01*
X66594354Y-51959853D01*
X66446784Y-52058456D01*
X66282812Y-52126376D01*
X66133512Y-52156073D01*
X66108742Y-52161000D01*
X65931258Y-52161000D01*
X65906488Y-52156073D01*
X65757188Y-52126376D01*
X65593216Y-52058456D01*
X65445646Y-51959853D01*
X65320147Y-51834354D01*
X65221544Y-51686784D01*
X65153624Y-51522812D01*
X65119000Y-51348741D01*
X65119000Y-51171259D01*
X65153624Y-50997188D01*
X65221544Y-50833216D01*
X65320147Y-50685646D01*
X65445646Y-50560147D01*
X65593216Y-50461544D01*
X65757188Y-50393624D01*
X65906488Y-50363927D01*
X65931258Y-50359000D01*
X66108742Y-50359000D01*
X66133512Y-50363927D01*
G37*
G36*
X71213512Y-50363927D02*
G01*
X71362812Y-50393624D01*
X71526784Y-50461544D01*
X71674354Y-50560147D01*
X71799853Y-50685646D01*
X71898456Y-50833216D01*
X71966376Y-50997188D01*
X72001000Y-51171259D01*
X72001000Y-51348741D01*
X71966376Y-51522812D01*
X71898456Y-51686784D01*
X71799853Y-51834354D01*
X71674354Y-51959853D01*
X71526784Y-52058456D01*
X71362812Y-52126376D01*
X71213512Y-52156073D01*
X71188742Y-52161000D01*
X71011258Y-52161000D01*
X70986488Y-52156073D01*
X70837188Y-52126376D01*
X70673216Y-52058456D01*
X70525646Y-51959853D01*
X70400147Y-51834354D01*
X70301544Y-51686784D01*
X70233624Y-51522812D01*
X70199000Y-51348741D01*
X70199000Y-51171259D01*
X70233624Y-50997188D01*
X70301544Y-50833216D01*
X70400147Y-50685646D01*
X70525646Y-50560147D01*
X70673216Y-50461544D01*
X70837188Y-50393624D01*
X70986488Y-50363927D01*
X71011258Y-50359000D01*
X71188742Y-50359000D01*
X71213512Y-50363927D01*
G37*
G36*
X58513512Y-50363927D02*
G01*
X58662812Y-50393624D01*
X58826784Y-50461544D01*
X58974354Y-50560147D01*
X59099853Y-50685646D01*
X59198456Y-50833216D01*
X59266376Y-50997188D01*
X59301000Y-51171259D01*
X59301000Y-51348741D01*
X59266376Y-51522812D01*
X59198456Y-51686784D01*
X59099853Y-51834354D01*
X58974354Y-51959853D01*
X58826784Y-52058456D01*
X58662812Y-52126376D01*
X58513512Y-52156073D01*
X58488742Y-52161000D01*
X58311258Y-52161000D01*
X58286488Y-52156073D01*
X58137188Y-52126376D01*
X57973216Y-52058456D01*
X57825646Y-51959853D01*
X57700147Y-51834354D01*
X57601544Y-51686784D01*
X57533624Y-51522812D01*
X57499000Y-51348741D01*
X57499000Y-51171259D01*
X57533624Y-50997188D01*
X57601544Y-50833216D01*
X57700147Y-50685646D01*
X57825646Y-50560147D01*
X57973216Y-50461544D01*
X58137188Y-50393624D01*
X58286488Y-50363927D01*
X58311258Y-50359000D01*
X58488742Y-50359000D01*
X58513512Y-50363927D01*
G37*
G36*
X81373512Y-50363927D02*
G01*
X81522812Y-50393624D01*
X81686784Y-50461544D01*
X81834354Y-50560147D01*
X81959853Y-50685646D01*
X82058456Y-50833216D01*
X82126376Y-50997188D01*
X82161000Y-51171259D01*
X82161000Y-51348741D01*
X82126376Y-51522812D01*
X82058456Y-51686784D01*
X81959853Y-51834354D01*
X81834354Y-51959853D01*
X81686784Y-52058456D01*
X81522812Y-52126376D01*
X81373512Y-52156073D01*
X81348742Y-52161000D01*
X81171258Y-52161000D01*
X81146488Y-52156073D01*
X80997188Y-52126376D01*
X80833216Y-52058456D01*
X80685646Y-51959853D01*
X80560147Y-51834354D01*
X80461544Y-51686784D01*
X80393624Y-51522812D01*
X80359000Y-51348741D01*
X80359000Y-51171259D01*
X80393624Y-50997188D01*
X80461544Y-50833216D01*
X80560147Y-50685646D01*
X80685646Y-50560147D01*
X80833216Y-50461544D01*
X80997188Y-50393624D01*
X81146488Y-50363927D01*
X81171258Y-50359000D01*
X81348742Y-50359000D01*
X81373512Y-50363927D01*
G37*
G36*
X73753512Y-50363927D02*
G01*
X73902812Y-50393624D01*
X74066784Y-50461544D01*
X74214354Y-50560147D01*
X74339853Y-50685646D01*
X74438456Y-50833216D01*
X74506376Y-50997188D01*
X74541000Y-51171259D01*
X74541000Y-51348741D01*
X74506376Y-51522812D01*
X74438456Y-51686784D01*
X74339853Y-51834354D01*
X74214354Y-51959853D01*
X74066784Y-52058456D01*
X73902812Y-52126376D01*
X73753512Y-52156073D01*
X73728742Y-52161000D01*
X73551258Y-52161000D01*
X73526488Y-52156073D01*
X73377188Y-52126376D01*
X73213216Y-52058456D01*
X73065646Y-51959853D01*
X72940147Y-51834354D01*
X72841544Y-51686784D01*
X72773624Y-51522812D01*
X72739000Y-51348741D01*
X72739000Y-51171259D01*
X72773624Y-50997188D01*
X72841544Y-50833216D01*
X72940147Y-50685646D01*
X73065646Y-50560147D01*
X73213216Y-50461544D01*
X73377188Y-50393624D01*
X73526488Y-50363927D01*
X73551258Y-50359000D01*
X73728742Y-50359000D01*
X73753512Y-50363927D01*
G37*
G36*
X61053512Y-50363927D02*
G01*
X61202812Y-50393624D01*
X61366784Y-50461544D01*
X61514354Y-50560147D01*
X61639853Y-50685646D01*
X61738456Y-50833216D01*
X61806376Y-50997188D01*
X61841000Y-51171259D01*
X61841000Y-51348741D01*
X61806376Y-51522812D01*
X61738456Y-51686784D01*
X61639853Y-51834354D01*
X61514354Y-51959853D01*
X61366784Y-52058456D01*
X61202812Y-52126376D01*
X61053512Y-52156073D01*
X61028742Y-52161000D01*
X60851258Y-52161000D01*
X60826488Y-52156073D01*
X60677188Y-52126376D01*
X60513216Y-52058456D01*
X60365646Y-51959853D01*
X60240147Y-51834354D01*
X60141544Y-51686784D01*
X60073624Y-51522812D01*
X60039000Y-51348741D01*
X60039000Y-51171259D01*
X60073624Y-50997188D01*
X60141544Y-50833216D01*
X60240147Y-50685646D01*
X60365646Y-50560147D01*
X60513216Y-50461544D01*
X60677188Y-50393624D01*
X60826488Y-50363927D01*
X60851258Y-50359000D01*
X61028742Y-50359000D01*
X61053512Y-50363927D01*
G37*
G36*
X63593512Y-50363927D02*
G01*
X63742812Y-50393624D01*
X63906784Y-50461544D01*
X64054354Y-50560147D01*
X64179853Y-50685646D01*
X64278456Y-50833216D01*
X64346376Y-50997188D01*
X64381000Y-51171259D01*
X64381000Y-51348741D01*
X64346376Y-51522812D01*
X64278456Y-51686784D01*
X64179853Y-51834354D01*
X64054354Y-51959853D01*
X63906784Y-52058456D01*
X63742812Y-52126376D01*
X63593512Y-52156073D01*
X63568742Y-52161000D01*
X63391258Y-52161000D01*
X63366488Y-52156073D01*
X63217188Y-52126376D01*
X63053216Y-52058456D01*
X62905646Y-51959853D01*
X62780147Y-51834354D01*
X62681544Y-51686784D01*
X62613624Y-51522812D01*
X62579000Y-51348741D01*
X62579000Y-51171259D01*
X62613624Y-50997188D01*
X62681544Y-50833216D01*
X62780147Y-50685646D01*
X62905646Y-50560147D01*
X63053216Y-50461544D01*
X63217188Y-50393624D01*
X63366488Y-50363927D01*
X63391258Y-50359000D01*
X63568742Y-50359000D01*
X63593512Y-50363927D01*
G37*
G36*
X78833512Y-50363927D02*
G01*
X78982812Y-50393624D01*
X79146784Y-50461544D01*
X79294354Y-50560147D01*
X79419853Y-50685646D01*
X79518456Y-50833216D01*
X79586376Y-50997188D01*
X79621000Y-51171259D01*
X79621000Y-51348741D01*
X79586376Y-51522812D01*
X79518456Y-51686784D01*
X79419853Y-51834354D01*
X79294354Y-51959853D01*
X79146784Y-52058456D01*
X78982812Y-52126376D01*
X78833512Y-52156073D01*
X78808742Y-52161000D01*
X78631258Y-52161000D01*
X78606488Y-52156073D01*
X78457188Y-52126376D01*
X78293216Y-52058456D01*
X78145646Y-51959853D01*
X78020147Y-51834354D01*
X77921544Y-51686784D01*
X77853624Y-51522812D01*
X77819000Y-51348741D01*
X77819000Y-51171259D01*
X77853624Y-50997188D01*
X77921544Y-50833216D01*
X78020147Y-50685646D01*
X78145646Y-50560147D01*
X78293216Y-50461544D01*
X78457188Y-50393624D01*
X78606488Y-50363927D01*
X78631258Y-50359000D01*
X78808742Y-50359000D01*
X78833512Y-50363927D01*
G37*
M02*
